<?xml version="1.0" encoding="utf-8"?>
<!-- Generator: Adobe Illustrator 24.1.3, SVG Export Plug-In . SVG Version: 6.00 Build 0)  -->
<svg version="1.1" id="Layer_1" xmlns="http://www.w3.org/2000/svg" xmlns:xlink="http://www.w3.org/1999/xlink" x="0px" y="0px"
	 viewBox="0 0 1080 1080" style="enable-background:new 0 0 1080 1080;" xml:space="preserve">
<style type="text/css">
	.st0{fill:#FFFFFF;}
	.st1{display:none;}
	.st2{display:inline;opacity:0.47;fill:#231F20;stroke:#231F20;stroke-miterlimit:10;enable-background:new    ;}
	.st3{display:inline;}
	.st4{fill:#553F2F;}
	.st5{fill:#C8AF9E;}
	.st6{fill:#F1E3D3;}
	.st7{fill:#F1E8D9;}
	.st8{fill:#94A4B5;}
</style>
<g id="Layer_2_1_">
	<g>
		<g>
			<path class="st0" d="M925.4,164.9l-150,107.4c-2.5,1.8-6,0.3-6.4-2.8l-3.5-29c-0.7-5.9-7.5-8.9-12.4-5.4l-27.7,19.7
				c-1.6,1.1-0.2,3.6,1.6,2.8l23.8-10.7c2.5-1.1,5.4,0.7,5.3,3.5l-0.3,27c0.9,10,12.2,15.3,20.5,9.6l155.4-106.1
				c3.1-2.1,7,1.1,5.6,4.6L806.7,500.2c-8.5,20.6-19.5,40-32.7,57.9c-6.2,8.4-15.5,12.6-24.9,12.6c-8.9,0-17.8-3.8-24-11.4
				L703.7,533c-9.2-8.1-23.5-6-30,4.4c-0.6,1-1.6,1.4-2.5,1.4c-1.2,0-2.4-0.7-2.9-2.1l-53.5-174.9c-3.4-11.1-8.8-21.5-16.1-30.6
				l-0.6-0.8c-13.5-17-40.8-8.2-41.8,13.4c-0.4,9.2-0.8,17.3-1,22.4c-0.1,2.4-2.8,3.7-4.8,2.3l-13.5-9.7
				c-33.4-23.9-79.3,3.1-74.5,43.9l0.1,0.9c0.8,7.3,3.1,14,6.6,20.1c7.8,13.6,22.2,38.5,28.9,50.3c1.3,2.2-0.9,4.8-3.3,4l-43.5-15
				c-14.7-5.1-30.9-2.6-43.4,6.6l-90.7,67c-5.7,4.2-13.5-1.3-11.4-8.1l43.7-141.1c3.5-11.2-1.2-23.3-11.4-29.2l-137.2-80.1
				c-8.8-5.1-19.7,1.8-18.9,11.9l27.6,340.4c0.2,3,2.7,5.3,5.7,5.3c3.2,0,5.8-2.6,5.7-5.8l-0.7-149.8c0-7.5,7.3-12.7,14.3-10.2
				l31.4,11c2.1,0.8,3.6-2.2,1.8-3.5l-40.9-28.1c-10.2-7-16.7-18.1-17.9-30.4l-10.8-112.2c-0.4-4.1,3.9-6.9,7.5-5l115.6,63.6
				c10,5.5,14.6,17.5,10.7,28.3l-63.9,177.1c-4,11.2,9.2,20.7,18.5,13.3l124.2-99.5c12-9.6,28.4-11.6,42.3-5.2l77,35.3
				c24,11,52.2-1.9,59.5-27.4c1.9-6.7,2.9-13.7,2.9-20.5c0-11-2.4-21.9-7.1-31.9c-4-8.4-8.2-17.5-11.7-24.8
				c-4.5-9.6-6.5-20.3-5.6-30.9l1.6-19.9c0.7-9.3,11.4-14.2,18.9-8.7c3.6,2.6,6.7,5.8,9.2,9.4c2.5,3.6,4.4,7.6,5.6,11.9
				c12.7,44.9,53.5,188.9,53.5,188.9c2.2,7.8,12.3,9.8,17.3,3.5l10-13.9c2.3-3.2,7.1-3.2,9.3,0.1l15.7,22.5
				c19.1,27.3,60,26.1,77.3-2.4l4-6.6c10.6-17.4,19.9-35.6,27.9-54.4l135.5-321C961.8,170.8,941.4,154,925.4,164.9z M547.5,462.9
				c-1.2,4.5-2.7,8.9-4.6,13.1c-4.1,9.2-16.3,11.2-23.2,3.9l-5.6-6l-2.3-2.7c-11.6-13.6-21.1-28.8-28.4-45.1l-8.4-18.9l-0.7-3.5
				c-4.8-23.4,13.6-43.6,35.4-43.6c4.3,0,8.7,0.8,13.1,2.5c0.2,0.1,0.3,0.1,0.5,0.2c5.6,2.4,10.4,6.3,14.1,11.2l9.9,12.9
				c4,5.2,6.4,11.6,6.3,18.2c0,0.6,0,1.2-0.1,1.9l-3.8,42.3C549.4,453.8,548.6,458.4,547.5,462.9z M579.1,468.7
				c0.9,2.8,1.3,5.6,1.3,8.4c0,14.6-11.6,27.4-27.1,27.9c-0.9,0-1.6-0.9-1.4-1.8l6.3-23.7c1.3-5.1,2.3-10.2,2.7-15.4l3.3-35.8
				c0.1-1.3,1.9-1.3,2.2-0.1L579.1,468.7z"/>
			<g>
				<path class="st0" d="M189,745.1c-1.5,0-2.9-0.1-4.3-0.3c-1.4-0.2-2.7-0.6-3.9-1.1c-1.2-0.5-2.3-1-3.3-1.7
					c-0.4-0.3-0.7-0.6-0.9-1s-0.2-0.8-0.1-1.2s0.3-0.7,0.5-1s0.6-0.5,1-0.5c0.4-0.1,0.8,0.1,1.2,0.4c1.4,1,3,1.7,4.5,2.1
					c1.6,0.4,3.3,0.7,5.3,0.7c2.8,0,4.8-0.5,6.1-1.5c1.3-1,1.9-2.3,1.9-4c0-1.3-0.5-2.4-1.4-3.2s-2.5-1.4-4.8-1.8l-5-1
					c-2.9-0.6-5.1-1.7-6.6-3.1c-1.5-1.4-2.2-3.4-2.2-5.8c0-1.5,0.3-2.8,0.9-4c0.6-1.2,1.4-2.3,2.5-3.1c1.1-0.9,2.4-1.5,3.9-2
					c1.5-0.5,3.1-0.7,5-0.7c1.9,0,3.8,0.3,5.5,0.8c1.7,0.5,3.3,1.3,4.6,2.3c0.4,0.3,0.6,0.6,0.8,1c0.1,0.4,0.1,0.8,0.1,1.2
					c-0.1,0.4-0.3,0.7-0.5,0.9s-0.6,0.4-1,0.4c-0.4,0-0.8-0.1-1.3-0.4c-1.3-0.9-2.5-1.5-3.9-1.9c-1.3-0.4-2.8-0.6-4.3-0.6
					c-1.6,0-3,0.3-4.2,0.8s-2.1,1.2-2.7,2.1s-1,1.9-1,3.1c0,1.4,0.4,2.6,1.3,3.4s2.4,1.4,4.4,1.9l4.9,1c3.1,0.7,5.5,1.7,7,3
					c1.5,1.4,2.3,3.2,2.3,5.5c0,1.4-0.3,2.8-0.9,3.9s-1.4,2.2-2.5,3s-2.4,1.5-3.9,1.9C192.6,744.9,190.9,745.1,189,745.1z"/>
				<path class="st0" d="M217.9,745c-0.7,0-1.2-0.2-1.6-0.6s-0.6-0.9-0.6-1.7v-29.5c0-0.7,0.2-1.3,0.6-1.6c0.4-0.4,0.9-0.5,1.6-0.5
					c0.7,0,1.2,0.2,1.6,0.5s0.6,0.9,0.6,1.6v13.4h-0.6c0.7-1.8,1.7-3.1,3.2-4s3.2-1.4,5.1-1.4c1.9,0,3.4,0.3,4.6,1
					c1.2,0.7,2.1,1.7,2.7,3c0.6,1.3,0.9,3,0.9,5.1v12.3c0,0.7-0.2,1.3-0.5,1.7s-0.9,0.6-1.6,0.6s-1.2-0.2-1.6-0.6s-0.6-0.9-0.6-1.7
					v-12.1c0-2-0.4-3.5-1.2-4.5c-0.8-0.9-2-1.4-3.8-1.4c-2,0-3.6,0.6-4.8,1.9c-1.2,1.2-1.8,2.9-1.8,5v11.1
					C220.1,744.3,219.4,745,217.9,745z"/>
				<path class="st0" d="M259.1,745.1c-1.6,0-3-0.3-4.3-0.9s-2.3-1.5-3-2.5c-0.7-1.1-1.1-2.3-1.1-3.6c0-1.7,0.4-3,1.3-4
					s2.3-1.7,4.3-2.1c2-0.4,4.7-0.6,8.1-0.6h2.2v2.7h-2.1c-2.4,0-4.3,0.1-5.7,0.3c-1.4,0.2-2.4,0.6-2.9,1.2
					c-0.6,0.5-0.9,1.3-0.9,2.3c0,1.2,0.4,2.2,1.3,3c0.9,0.8,2,1.2,3.5,1.2c1.2,0,2.2-0.3,3.1-0.9s1.6-1.4,2.2-2.3
					c0.5-1,0.8-2.1,0.8-3.4V730c0-1.8-0.4-3.2-1.1-4s-2-1.3-3.8-1.3c-1,0-2.1,0.1-3.2,0.4c-1.1,0.3-2.2,0.7-3.4,1.3
					c-0.5,0.2-0.9,0.3-1.2,0.2c-0.4-0.1-0.6-0.3-0.8-0.6c-0.2-0.3-0.3-0.6-0.3-1s0.1-0.7,0.2-1.1c0.2-0.3,0.5-0.6,0.9-0.8
					c1.4-0.7,2.8-1.2,4.1-1.5s2.6-0.5,3.8-0.5c2,0,3.7,0.3,5,1s2.3,1.6,3,3s1,3,1,5.1v12.4c0,0.7-0.2,1.3-0.5,1.7
					c-0.4,0.4-0.9,0.6-1.5,0.6c-0.6,0-1.1-0.2-1.5-0.6c-0.4-0.4-0.5-0.9-0.5-1.7v-3.3h0.4c-0.3,1.2-0.7,2.2-1.4,3
					c-0.7,0.8-1.5,1.5-2.6,2C261.6,744.9,260.4,745.1,259.1,745.1z"/>
				<path class="st0" d="M288.2,753.5c-0.7,0-1.2-0.2-1.5-0.6c-0.4-0.4-0.6-0.9-0.6-1.6v-27.7c0-0.7,0.2-1.3,0.6-1.6
					c0.4-0.4,0.9-0.5,1.5-0.5c0.7,0,1.2,0.2,1.6,0.5s0.5,0.9,0.5,1.6v4.3l-0.5-0.8c0.5-1.7,1.5-3.1,3-4.1c1.5-1,3.3-1.5,5.3-1.5
					c2,0,3.8,0.5,5.3,1.4s2.7,2.3,3.5,4.1s1.3,3.9,1.3,6.3c0,2.4-0.4,4.5-1.3,6.3s-2,3.2-3.5,4.1c-1.5,1-3.3,1.4-5.3,1.4
					s-3.8-0.5-5.3-1.5c-1.5-1-2.5-2.4-3-4.1h0.5v11.9c0,0.7-0.2,1.2-0.6,1.6C289.4,753.3,288.9,753.5,288.2,753.5z M297.1,741.7
					c1.4,0,2.5-0.3,3.5-1s1.8-1.6,2.4-2.9c0.6-1.3,0.9-2.8,0.9-4.7c0-2.8-0.6-4.9-1.8-6.3c-1.2-1.4-2.9-2.2-4.9-2.2
					c-1.4,0-2.6,0.3-3.6,1c-1,0.6-1.8,1.6-2.4,2.8c-0.5,1.3-0.8,2.8-0.8,4.7c0,2.8,0.6,4.9,1.8,6.3S295,741.7,297.1,741.7z"/>
				<path class="st0" d="M324.9,716.4c-0.9,0-1.5-0.2-2-0.7s-0.7-1.1-0.7-1.8c0-0.8,0.2-1.4,0.7-1.9c0.5-0.4,1.1-0.6,2-0.6
					c0.9,0,1.6,0.2,2,0.6c0.5,0.4,0.7,1,0.7,1.9c0,0.8-0.2,1.4-0.7,1.8C326.5,716.2,325.9,716.4,324.9,716.4z M324.9,744.9
					c-0.7,0-1.2-0.2-1.5-0.6c-0.4-0.4-0.6-1-0.6-1.7v-18.8c0-0.8,0.2-1.3,0.6-1.7c0.4-0.4,0.9-0.6,1.5-0.6c0.7,0,1.2,0.2,1.6,0.6
					s0.6,1,0.6,1.7v18.8c0,0.7-0.2,1.3-0.5,1.7C326.2,744.7,325.7,744.9,324.9,744.9z"/>
				<path class="st0" d="M345.2,745c-0.7,0-1.2-0.2-1.5-0.6s-0.6-0.9-0.6-1.7v-19.2c0-0.7,0.2-1.3,0.6-1.6c0.4-0.4,0.9-0.5,1.5-0.5
					c0.7,0,1.2,0.2,1.5,0.5s0.5,0.9,0.5,1.6v3.9l-0.5-0.7c0.7-1.8,1.7-3.1,3.2-4s3.2-1.4,5.1-1.4c1.9,0,3.4,0.3,4.6,1
					c1.2,0.7,2.1,1.7,2.7,3c0.6,1.3,0.9,3.1,0.9,5.1v12.3c0,0.7-0.2,1.3-0.5,1.7c-0.4,0.4-0.9,0.6-1.6,0.6c-0.7,0-1.2-0.2-1.6-0.6
					s-0.6-0.9-0.6-1.7v-12.1c0-2-0.4-3.5-1.2-4.5c-0.8-0.9-2-1.4-3.8-1.4c-2,0-3.6,0.6-4.8,1.9c-1.2,1.2-1.8,2.9-1.8,5v11.1
					C347.4,744.3,346.7,745,345.2,745z"/>
				<path class="st0" d="M389.5,753.6c-1.7,0-3.3-0.2-4.9-0.6c-1.6-0.4-3-1-4.3-1.7c-0.4-0.3-0.7-0.5-0.8-0.9s-0.2-0.7-0.1-1
					c0.1-0.3,0.2-0.7,0.5-0.9s0.5-0.4,0.9-0.5c0.3-0.1,0.7,0,1,0.2c1.4,0.8,2.7,1.3,4,1.6c1.3,0.3,2.5,0.4,3.6,0.4
					c2.2,0,3.9-0.6,5-1.7c1.1-1.2,1.7-2.8,1.7-5v-5.1h0.4c-0.4,1.8-1.4,3.2-2.9,4.2s-3.3,1.5-5.3,1.5c-2.1,0-3.9-0.5-5.4-1.4
					c-1.5-1-2.7-2.3-3.6-4s-1.3-3.7-1.3-6c0-1.7,0.2-3.3,0.7-4.7c0.5-1.4,1.2-2.6,2.1-3.6s2-1.8,3.2-2.3s2.7-0.8,4.2-0.8
					c2,0,3.8,0.5,5.3,1.5c1.5,1,2.5,2.4,2.9,4.2l-0.5,0.7v-4.1c0-0.7,0.2-1.3,0.6-1.6c0.4-0.4,0.9-0.5,1.6-0.5
					c0.7,0,1.2,0.2,1.5,0.5c0.4,0.4,0.6,0.9,0.6,1.6v19.3c0,3.5-0.9,6.2-2.7,8C395.5,752.7,392.9,753.6,389.5,753.6z M389,740.7
					c1.4,0,2.6-0.3,3.6-1s1.8-1.6,2.4-2.8c0.5-1.2,0.8-2.6,0.8-4.3c0-2.5-0.6-4.4-1.8-5.9c-1.2-1.4-2.9-2.1-5-2.1
					c-1.4,0-2.6,0.3-3.6,1s-1.8,1.6-2.4,2.8s-0.9,2.6-0.9,4.3c0,2.5,0.6,4.4,1.9,5.8C385.2,740,386.9,740.7,389,740.7z"/>
				<path class="st0" d="M440.2,745c-0.7,0-1.2-0.2-1.6-0.6s-0.6-1-0.6-1.7v-29.3c0-0.8,0.2-1.3,0.6-1.7c0.4-0.4,0.9-0.6,1.6-0.6
					c0.7,0,1.3,0.2,1.6,0.6c0.4,0.4,0.6,0.9,0.6,1.7v29.3c0,0.7-0.2,1.3-0.5,1.7C441.5,744.8,441,745,440.2,745z"/>
				<path class="st0" d="M467.7,745.1c-2,0-3.8-0.5-5.3-1.4c-1.5-1-2.7-2.3-3.5-4.1c-0.9-1.8-1.3-3.9-1.3-6.3c0-2.5,0.4-4.6,1.3-6.3
					s2-3.1,3.5-4.1c1.5-1,3.3-1.4,5.3-1.4s3.8,0.5,5.3,1.5s2.5,2.4,3,4.1h-0.5v-13.6c0-0.7,0.2-1.3,0.5-1.6c0.4-0.4,0.9-0.5,1.6-0.5
					c0.7,0,1.2,0.2,1.6,0.5s0.6,0.9,0.6,1.6v29.5c0,0.7-0.2,1.3-0.6,1.7s-0.9,0.6-1.6,0.6c-0.7,0-1.2-0.2-1.5-0.6
					c-0.4-0.4-0.6-0.9-0.6-1.7v-4.3l0.5,0.8c-0.5,1.8-1.5,3.2-2.9,4.2C471.5,744.6,469.7,745.1,467.7,745.1z M468.7,741.7
					c1.4,0,2.6-0.3,3.6-1c1-0.7,1.8-1.6,2.4-2.9c0.5-1.3,0.8-2.8,0.8-4.7c0-2.8-0.6-4.9-1.8-6.3c-1.2-1.4-2.9-2.2-4.9-2.2
					c-1.4,0-2.5,0.3-3.5,1s-1.8,1.6-2.4,2.8c-0.6,1.3-0.9,2.8-0.9,4.7c0,2.8,0.6,4.9,1.9,6.3C465,741,466.6,741.7,468.7,741.7z"/>
				<path class="st0" d="M506.3,745.1c-2.5,0-4.6-0.5-6.4-1.4c-1.8-1-3.1-2.3-4.1-4.1s-1.5-3.9-1.5-6.3c0-2.4,0.5-4.5,1.4-6.3
					c1-1.8,2.3-3.2,4-4.2c1.7-1,3.6-1.5,5.8-1.5c1.5,0,2.9,0.3,4.2,0.8c1.2,0.5,2.3,1.3,3.2,2.2c0.9,1,1.5,2.2,2,3.5
					c0.5,1.4,0.7,3,0.7,4.7c0,0.5-0.2,0.9-0.5,1.2c-0.3,0.3-0.7,0.4-1.3,0.4h-16.1v-2.7h15l-0.8,0.7c0-1.6-0.2-3-0.7-4.2
					c-0.5-1.2-1.2-2-2.1-2.6c-0.9-0.6-2.1-0.9-3.5-0.9c-1.5,0-2.8,0.3-3.9,1.1c-1.1,0.7-1.9,1.7-2.5,3c-0.6,1.3-0.9,2.7-0.9,4.4v0.3
					c0,2.8,0.7,5,2,6.4c1.4,1.4,3.3,2.2,5.8,2.2c1,0,2-0.1,3.1-0.4s2.1-0.7,3-1.4c0.5-0.3,0.9-0.4,1.3-0.4c0.4,0,0.7,0.1,1,0.4
					s0.4,0.5,0.5,0.8c0.1,0.3,0,0.7-0.1,1.1c-0.2,0.4-0.5,0.7-0.9,1c-1,0.7-2.3,1.3-3.7,1.7C509,744.9,507.6,745.1,506.3,745.1z"/>
				<path class="st0" d="M537.3,745.1c-1.6,0-3-0.3-4.3-0.9s-2.3-1.5-3-2.5c-0.7-1.1-1.1-2.3-1.1-3.6c0-1.7,0.4-3,1.3-4
					c0.8-1,2.3-1.7,4.3-2.1c2-0.4,4.7-0.6,8.1-0.6h2.2v2.7h-2.1c-2.4,0-4.3,0.1-5.7,0.3c-1.4,0.2-2.4,0.6-2.9,1.2
					c-0.6,0.5-0.8,1.3-0.8,2.3c0,1.2,0.4,2.2,1.3,3s2,1.2,3.5,1.2c1.2,0,2.2-0.3,3.2-0.9c0.9-0.6,1.6-1.4,2.2-2.3
					c0.5-1,0.8-2.1,0.8-3.4V730c0-1.8-0.4-3.2-1.1-4s-2-1.3-3.8-1.3c-1,0-2.1,0.1-3.2,0.4c-1.1,0.3-2.2,0.7-3.4,1.3
					c-0.5,0.2-0.9,0.3-1.2,0.2c-0.3-0.1-0.6-0.3-0.8-0.6c-0.2-0.3-0.3-0.6-0.3-1s0.1-0.7,0.2-1.1c0.2-0.3,0.5-0.6,0.9-0.8
					c1.4-0.7,2.8-1.2,4.1-1.5s2.6-0.5,3.8-0.5c2,0,3.7,0.3,5,1s2.3,1.6,3,3s1,3,1,5.1v12.4c0,0.7-0.2,1.3-0.5,1.7
					c-0.3,0.4-0.8,0.6-1.5,0.6c-0.6,0-1.1-0.2-1.5-0.6c-0.4-0.4-0.5-0.9-0.5-1.7v-3.3h0.4c-0.3,1.2-0.7,2.2-1.4,3
					c-0.7,0.8-1.5,1.5-2.6,2C539.7,744.9,538.5,745.1,537.3,745.1z"/>
				<path class="st0" d="M572.1,745.1c-1.4,0-2.8-0.2-4.3-0.5c-1.4-0.3-2.8-0.9-4-1.7c-0.3-0.2-0.6-0.5-0.7-0.8
					c-0.1-0.3-0.2-0.7-0.1-1s0.2-0.6,0.4-0.9c0.2-0.3,0.5-0.4,0.8-0.5s0.7,0,1.1,0.3c1.2,0.7,2.4,1.2,3.5,1.5s2.3,0.4,3.4,0.4
					c1.7,0,3-0.3,3.9-0.9c0.9-0.6,1.3-1.5,1.3-2.5c0-0.9-0.3-1.6-0.9-2s-1.5-0.8-2.7-1.1l-4.4-0.9c-2-0.4-3.4-1.2-4.4-2.2
					s-1.5-2.3-1.5-3.9c0-1.4,0.4-2.6,1.2-3.7c0.8-1,1.8-1.9,3.2-2.4c1.4-0.6,3-0.8,4.8-0.8c1.4,0,2.7,0.2,3.9,0.5s2.4,0.9,3.4,1.6
					c0.4,0.2,0.6,0.5,0.7,0.8s0.1,0.7,0,1s-0.2,0.6-0.5,0.8c-0.2,0.2-0.5,0.3-0.8,0.4c-0.3,0-0.7,0-1.1-0.3
					c-0.9-0.6-1.8-1.1-2.8-1.3s-1.9-0.4-2.8-0.4c-1.7,0-3,0.3-3.8,1c-0.9,0.7-1.3,1.5-1.3,2.6c0,0.8,0.3,1.5,0.8,2s1.3,0.9,2.5,1.2
					l4.4,0.9c2,0.4,3.6,1.1,4.6,2.1c1,1,1.5,2.3,1.5,3.9c0,2.1-0.8,3.8-2.5,5.1C577.2,744.5,574.9,745.1,572.1,745.1z"/>
				<path class="st0" d="M619.6,716.4c-0.8,0-1.5-0.2-2-0.7s-0.7-1.1-0.7-1.8c0-0.8,0.2-1.4,0.7-1.9s1.2-0.6,2-0.6
					c0.9,0,1.6,0.2,2,0.6c0.5,0.4,0.7,1,0.7,1.9c0,0.8-0.2,1.4-0.7,1.8C621.2,716.2,620.5,716.4,619.6,716.4z M619.6,744.9
					c-0.7,0-1.2-0.2-1.5-0.6c-0.4-0.4-0.6-1-0.6-1.7v-18.8c0-0.8,0.2-1.3,0.6-1.7c0.4-0.4,0.9-0.6,1.5-0.6c0.7,0,1.2,0.2,1.6,0.6
					s0.6,1,0.6,1.7v18.8c0,0.7-0.2,1.3-0.5,1.7S620.3,744.9,619.6,744.9z"/>
				<path class="st0" d="M639.9,745c-0.7,0-1.2-0.2-1.5-0.6c-0.4-0.4-0.6-0.9-0.6-1.7v-19.2c0-0.7,0.2-1.3,0.6-1.6s0.9-0.5,1.5-0.5
					s1.2,0.2,1.5,0.5c0.4,0.4,0.5,0.9,0.5,1.6v3.9l-0.5-0.7c0.7-1.8,1.7-3.1,3.2-4s3.2-1.4,5.1-1.4c1.8,0,3.4,0.3,4.6,1
					s2.1,1.7,2.7,3c0.6,1.3,0.9,3.1,0.9,5.1v12.3c0,0.7-0.2,1.3-0.5,1.7s-0.9,0.6-1.6,0.6s-1.2-0.2-1.6-0.6
					c-0.4-0.4-0.6-0.9-0.6-1.7v-12.1c0-2-0.4-3.5-1.2-4.5s-2-1.4-3.8-1.4c-2,0-3.6,0.6-4.8,1.9c-1.2,1.2-1.8,2.9-1.8,5v11.1
					C642,744.3,641.3,745,639.9,745z"/>
				<path class="st0" d="M683.3,745.1c-1.8,0-3.4-0.3-4.6-1s-2.2-1.6-2.8-2.9c-0.6-1.3-0.9-2.8-0.9-4.6v-11.6h-3
					c-0.6,0-1-0.2-1.3-0.5c-0.3-0.3-0.5-0.7-0.5-1.2c0-0.5,0.2-0.9,0.5-1.2s0.8-0.4,1.3-0.4h3v-5.1c0-0.7,0.2-1.3,0.6-1.6
					s0.9-0.5,1.6-0.5s1.2,0.2,1.6,0.5c0.4,0.4,0.5,0.9,0.5,1.6v5.1h5.7c0.6,0,1,0.1,1.4,0.4s0.5,0.7,0.5,1.2c0,0.5-0.2,0.9-0.5,1.2
					s-0.8,0.5-1.4,0.5h-5.7v11.2c0,1.7,0.4,3,1.1,3.9c0.7,0.9,1.9,1.3,3.6,1.3c0.6,0,1.1,0,1.5-0.2c0.4-0.1,0.8-0.2,1.1-0.2
					c0.3,0,0.5,0.1,0.7,0.3c0.2,0.2,0.3,0.6,0.3,1.2c0,0.4-0.1,0.8-0.2,1.2s-0.4,0.6-0.8,0.7c-0.4,0.1-0.9,0.2-1.5,0.3
					C684.4,745,683.8,745.1,683.3,745.1z"/>
				<path class="st0" d="M709.3,745.1c-2.3,0-4.2-0.5-5.9-1.5c-1.7-1-3-2.3-3.9-4.1c-0.9-1.8-1.4-3.9-1.4-6.3c0-1.8,0.3-3.5,0.8-4.9
					s1.3-2.7,2.2-3.7c1-1,2.1-1.8,3.5-2.4s2.9-0.8,4.6-0.8c2.3,0,4.2,0.5,5.9,1.5s3,2.3,3.9,4.1s1.4,3.9,1.4,6.3
					c0,1.8-0.3,3.5-0.8,4.9c-0.5,1.5-1.3,2.7-2.2,3.8c-1,1-2.1,1.8-3.5,2.4C712.5,744.8,711,745.1,709.3,745.1z M709.3,741.7
					c1.4,0,2.6-0.3,3.6-1c1-0.7,1.8-1.6,2.3-2.9s0.8-2.8,0.8-4.7c0-2.8-0.6-4.9-1.8-6.3c-1.2-1.4-2.9-2.2-4.9-2.2
					c-1.3,0-2.5,0.3-3.5,1c-1,0.6-1.8,1.6-2.4,2.8c-0.6,1.3-0.8,2.8-0.8,4.7c0,2.8,0.6,4.9,1.9,6.3
					C705.6,741,707.3,741.7,709.3,741.7z"/>
				<path class="st0" d="M767.9,745.1c-1.5,0-2.9-0.1-4.3-0.3c-1.4-0.2-2.7-0.6-3.9-1.1s-2.3-1-3.3-1.7c-0.4-0.3-0.7-0.6-0.9-1
					s-0.2-0.8-0.1-1.2c0.1-0.4,0.3-0.7,0.5-1s0.6-0.5,1-0.5c0.4-0.1,0.8,0.1,1.2,0.4c1.4,1,3,1.7,4.5,2.1c1.6,0.4,3.3,0.7,5.3,0.7
					c2.8,0,4.8-0.5,6.1-1.5s2-2.3,2-4c0-1.3-0.5-2.4-1.4-3.2s-2.5-1.4-4.8-1.8l-5-1c-3-0.6-5.2-1.7-6.6-3.1s-2.2-3.4-2.2-5.8
					c0-1.5,0.3-2.8,0.9-4c0.6-1.2,1.4-2.3,2.5-3.1s2.4-1.5,3.9-2c1.5-0.5,3.2-0.7,5-0.7c2,0,3.8,0.3,5.5,0.8
					c1.7,0.5,3.3,1.3,4.6,2.3c0.4,0.3,0.6,0.6,0.8,1c0.1,0.4,0.2,0.8,0.1,1.2s-0.3,0.7-0.5,0.9s-0.6,0.4-1,0.4
					c-0.4,0-0.8-0.1-1.3-0.4c-1.3-0.9-2.5-1.5-3.9-1.9c-1.3-0.4-2.8-0.6-4.3-0.6c-1.6,0-3,0.3-4.2,0.8s-2.1,1.2-2.7,2.1
					c-0.6,0.9-1,1.9-1,3.1c0,1.4,0.4,2.6,1.3,3.4s2.3,1.4,4.4,1.9l4.9,1c3.1,0.7,5.5,1.7,7,3c1.5,1.4,2.3,3.2,2.3,5.5
					c0,1.4-0.3,2.8-0.9,3.9s-1.4,2.2-2.5,3c-1.1,0.8-2.4,1.5-3.9,1.9C771.5,744.9,769.8,745.1,767.9,745.1z"/>
				<path class="st0" d="M796.8,753.5c-0.7,0-1.2-0.2-1.5-0.6c-0.4-0.4-0.6-0.9-0.6-1.6v-27.7c0-0.7,0.2-1.3,0.6-1.6
					s0.9-0.5,1.5-0.5c0.7,0,1.2,0.2,1.6,0.5c0.4,0.4,0.5,0.9,0.5,1.6v4.3l-0.5-0.8c0.5-1.7,1.5-3.1,3-4.1c1.5-1,3.3-1.5,5.3-1.5
					c2,0,3.8,0.5,5.3,1.4s2.7,2.3,3.5,4.1c0.8,1.8,1.3,3.9,1.3,6.3c0,2.4-0.4,4.5-1.3,6.3s-2,3.2-3.5,4.1c-1.5,1-3.3,1.4-5.3,1.4
					c-2,0-3.8-0.5-5.3-1.5c-1.5-1-2.5-2.4-3-4.1h0.5v11.9c0,0.7-0.2,1.2-0.6,1.6C798,753.3,797.5,753.5,796.8,753.5z M805.7,741.7
					c1.3,0,2.5-0.3,3.5-1c1-0.7,1.8-1.6,2.4-2.9c0.6-1.3,0.8-2.8,0.8-4.7c0-2.8-0.6-4.9-1.8-6.3c-1.2-1.4-2.9-2.2-4.9-2.2
					c-1.4,0-2.6,0.3-3.6,1c-1,0.6-1.8,1.6-2.3,2.8c-0.5,1.3-0.8,2.8-0.8,4.7c0,2.8,0.6,4.9,1.8,6.3S803.6,741.7,805.7,741.7z"/>
				<path class="st0" d="M838.7,745.1c-1.6,0-3-0.3-4.3-0.9s-2.3-1.5-3-2.5c-0.7-1.1-1.1-2.3-1.1-3.6c0-1.7,0.4-3,1.3-4
					c0.8-1,2.3-1.7,4.3-2.1c2-0.4,4.7-0.6,8.1-0.6h2.2v2.7h-2.1c-2.4,0-4.3,0.1-5.7,0.3c-1.4,0.2-2.4,0.6-2.9,1.2
					c-0.6,0.5-0.8,1.3-0.8,2.3c0,1.2,0.4,2.2,1.3,3s2,1.2,3.5,1.2c1.2,0,2.2-0.3,3.2-0.9c0.9-0.6,1.6-1.4,2.2-2.3
					c0.5-1,0.8-2.1,0.8-3.4V730c0-1.8-0.4-3.2-1.1-4s-2-1.3-3.8-1.3c-1,0-2.1,0.1-3.2,0.4c-1.1,0.3-2.2,0.7-3.4,1.3
					c-0.5,0.2-0.9,0.3-1.2,0.2c-0.3-0.1-0.6-0.3-0.8-0.6s-0.3-0.6-0.3-1s0.1-0.7,0.2-1.1c0.2-0.3,0.5-0.6,0.9-0.8
					c1.4-0.7,2.8-1.2,4.1-1.5c1.4-0.3,2.6-0.5,3.8-0.5c2,0,3.7,0.3,5,1s2.3,1.6,3,3s1,3,1,5.1v12.4c0,0.7-0.2,1.3-0.5,1.7
					c-0.3,0.4-0.8,0.6-1.5,0.6c-0.6,0-1.1-0.2-1.5-0.6c-0.4-0.4-0.5-0.9-0.5-1.7v-3.3h0.4c-0.3,1.2-0.7,2.2-1.4,3
					c-0.7,0.8-1.5,1.5-2.6,2C841.2,744.9,840,745.1,838.7,745.1z"/>
				<path class="st0" d="M875.6,745.1c-2.3,0-4.3-0.5-6-1.5s-3-2.4-3.9-4.2c-0.9-1.8-1.4-3.9-1.4-6.4c0-1.8,0.3-3.5,0.8-4.9
					c0.5-1.4,1.3-2.7,2.2-3.7s2.2-1.8,3.5-2.3c1.4-0.5,3-0.8,4.7-0.8c1.1,0,2.3,0.2,3.5,0.5c1.2,0.3,2.3,0.9,3.4,1.7
					c0.3,0.3,0.6,0.5,0.7,0.9c0.1,0.3,0.1,0.7,0,1c-0.1,0.3-0.2,0.6-0.5,0.9s-0.5,0.4-0.9,0.4s-0.8-0.1-1.2-0.3
					c-0.8-0.6-1.5-1-2.4-1.2s-1.6-0.4-2.4-0.4c-1.2,0-2.2,0.2-3.1,0.6s-1.7,0.9-2.3,1.6s-1.1,1.6-1.4,2.6s-0.5,2.2-0.5,3.5
					c0,2.7,0.6,4.8,1.9,6.3s3,2.3,5.3,2.3c0.8,0,1.5-0.1,2.3-0.3s1.6-0.6,2.4-1.2c0.4-0.3,0.8-0.3,1.1-0.3c0.3,0,0.6,0.2,0.9,0.4
					s0.4,0.5,0.5,0.8c0.1,0.3,0,0.7-0.1,1c-0.1,0.3-0.3,0.6-0.7,0.8c-1,0.8-2.1,1.3-3.3,1.7C877.8,744.9,876.7,745.1,875.6,745.1z"
					/>
				<path class="st0" d="M906.8,745.1c-2.5,0-4.6-0.5-6.4-1.4s-3.2-2.3-4.1-4.1s-1.5-3.9-1.5-6.3c0-2.4,0.5-4.5,1.4-6.3
					c1-1.8,2.3-3.2,4-4.2c1.7-1,3.6-1.5,5.8-1.5c1.5,0,2.9,0.3,4.2,0.8c1.2,0.5,2.3,1.3,3.2,2.2c0.9,1,1.5,2.2,2,3.5
					c0.5,1.4,0.7,3,0.7,4.7c0,0.5-0.2,0.9-0.5,1.2c-0.3,0.3-0.7,0.4-1.3,0.4h-16.1v-2.7h15l-0.8,0.7c0-1.6-0.2-3-0.7-4.2
					c-0.5-1.2-1.2-2-2.1-2.6c-0.9-0.6-2.1-0.9-3.5-0.9c-1.5,0-2.8,0.3-3.9,1.1s-1.9,1.7-2.5,3c-0.6,1.3-0.8,2.7-0.8,4.4v0.3
					c0,2.8,0.7,5,2,6.4c1.3,1.4,3.3,2.2,5.8,2.2c1,0,2-0.1,3.1-0.4s2.1-0.7,3-1.4c0.5-0.3,0.9-0.4,1.3-0.4s0.7,0.1,1,0.4
					s0.4,0.5,0.5,0.8c0.1,0.3,0,0.7-0.1,1.1c-0.2,0.4-0.5,0.7-0.9,1c-1,0.7-2.3,1.3-3.7,1.7C909.5,744.9,908.1,745.1,906.8,745.1z"
					/>
				<path class="st0" d="M938.4,745.1c-1.4,0-2.8-0.2-4.3-0.5c-1.4-0.3-2.8-0.9-4-1.7c-0.3-0.2-0.6-0.5-0.7-0.8
					c-0.1-0.3-0.2-0.7-0.1-1s0.2-0.6,0.4-0.9c0.2-0.3,0.5-0.4,0.8-0.5s0.7,0,1.1,0.3c1.2,0.7,2.4,1.2,3.5,1.5s2.3,0.4,3.4,0.4
					c1.7,0,3-0.3,3.9-0.9c0.9-0.6,1.3-1.5,1.3-2.5c0-0.9-0.3-1.6-0.9-2s-1.5-0.8-2.7-1.1l-4.4-0.9c-2-0.4-3.4-1.2-4.4-2.2
					s-1.5-2.3-1.5-3.9c0-1.4,0.4-2.6,1.2-3.7c0.8-1,1.8-1.9,3.2-2.4c1.4-0.6,3-0.8,4.8-0.8c1.4,0,2.7,0.2,3.9,0.5s2.4,0.9,3.4,1.6
					c0.4,0.2,0.6,0.5,0.7,0.8s0.1,0.7,0,1s-0.2,0.6-0.5,0.8c-0.2,0.2-0.5,0.3-0.8,0.4c-0.3,0-0.7,0-1.1-0.3
					c-0.9-0.6-1.8-1.1-2.8-1.3s-1.9-0.4-2.8-0.4c-1.7,0-3,0.3-3.8,1c-0.9,0.7-1.3,1.5-1.3,2.6c0,0.8,0.3,1.5,0.8,2s1.3,0.9,2.5,1.2
					l4.4,0.9c2,0.4,3.6,1.1,4.6,2.1c1,1,1.5,2.3,1.5,3.9c0,2.1-0.8,3.8-2.5,5.1C943.5,744.5,941.2,745.1,938.4,745.1z"/>
				<path class="st0" d="M192.7,826.4c-3.3,0-6.1-0.7-8.5-2.1s-4.2-3.3-5.4-5.9s-1.9-5.6-1.9-9.1c0-2.6,0.4-5,1.1-7
					c0.7-2.1,1.8-3.9,3.1-5.4s3-2.6,5-3.4c2-0.8,4.2-1.2,6.7-1.2c1.9,0,3.7,0.3,5.4,0.8c1.7,0.5,3.2,1.3,4.5,2.3
					c0.5,0.3,0.8,0.7,1,1.2s0.2,0.9,0.1,1.3c-0.1,0.4-0.3,0.7-0.6,1s-0.7,0.4-1.1,0.4c-0.4,0-0.9-0.2-1.4-0.5
					c-1.1-0.8-2.3-1.5-3.6-1.9s-2.7-0.6-4.2-0.6c-2.4,0-4.5,0.5-6.1,1.5s-2.9,2.5-3.8,4.4s-1.3,4.3-1.3,7.1c0,2.8,0.4,5.1,1.3,7.1
					s2.1,3.5,3.8,4.5c1.7,1,3.7,1.5,6.1,1.5c1.5,0,2.9-0.2,4.2-0.6s2.6-1,3.7-1.9c0.5-0.3,1-0.5,1.4-0.5c0.4,0,0.8,0.2,1.1,0.4
					c0.3,0.2,0.5,0.5,0.6,0.9s0.1,0.8,0,1.2c-0.1,0.4-0.4,0.8-0.9,1.1c-1.3,1.1-2.8,1.9-4.6,2.5
					C196.5,826.1,194.7,826.4,192.7,826.4z"/>
				<path class="st0" d="M224,826.3c-0.7,0-1.3-0.2-1.6-0.6s-0.6-0.9-0.6-1.7v-19.2c0-0.7,0.2-1.3,0.6-1.6c0.4-0.4,0.9-0.5,1.6-0.5
					s1.2,0.2,1.5,0.5s0.5,0.9,0.5,1.6v3.6h-0.5c0.5-1.9,1.4-3.3,2.8-4.3c1.4-1,3.1-1.5,5.2-1.7c0.5,0,0.9,0.1,1.2,0.3
					c0.3,0.3,0.5,0.7,0.5,1.3c0,0.6-0.1,1.1-0.4,1.4s-0.8,0.6-1.5,0.6l-0.9,0c-2.1,0.2-3.7,0.9-4.8,2s-1.7,2.7-1.7,4.7v11
					c0,0.7-0.2,1.3-0.5,1.7C225.2,826.1,224.7,826.3,224,826.3z"/>
				<path class="st0" d="M261.7,826.4c-2.5,0-4.6-0.5-6.4-1.4c-1.8-1-3.1-2.3-4.1-4.1s-1.5-3.9-1.5-6.3c0-2.4,0.5-4.5,1.4-6.3
					c1-1.8,2.3-3.2,3.9-4.2c1.7-1,3.6-1.5,5.8-1.5c1.5,0,2.9,0.3,4.2,0.8c1.2,0.5,2.3,1.3,3.2,2.2c0.9,1,1.5,2.2,2,3.5
					c0.5,1.4,0.7,3,0.7,4.7c0,0.5-0.1,0.9-0.5,1.2c-0.3,0.3-0.7,0.4-1.3,0.4h-16.1v-2.7h15l-0.8,0.7c0-1.6-0.2-3-0.7-4.2
					c-0.5-1.2-1.2-2-2.1-2.6c-0.9-0.6-2.1-0.9-3.5-0.9c-1.5,0-2.8,0.3-3.9,1.1c-1.1,0.7-1.9,1.7-2.4,3c-0.6,1.3-0.9,2.7-0.9,4.4v0.3
					c0,2.8,0.7,5,2,6.4s3.3,2.2,5.8,2.2c1,0,2-0.1,3.1-0.4s2.1-0.7,3-1.4c0.5-0.3,0.9-0.4,1.3-0.4c0.4,0,0.7,0.1,1,0.4
					s0.4,0.5,0.5,0.8c0.1,0.3,0,0.7-0.1,1.1s-0.5,0.7-0.9,1c-1,0.7-2.3,1.3-3.7,1.7C264.4,826.2,263,826.4,261.7,826.4z"/>
				<path class="st0" d="M296,826.4c-1.6,0-3-0.3-4.3-0.9c-1.3-0.6-2.3-1.5-3-2.5c-0.7-1.1-1.1-2.3-1.1-3.6c0-1.7,0.4-3,1.3-4
					c0.9-1,2.3-1.7,4.3-2.1c2-0.4,4.7-0.6,8.1-0.6h2.2v2.7h-2.1c-2.4,0-4.3,0.1-5.7,0.3c-1.4,0.2-2.4,0.6-2.9,1.2
					c-0.6,0.5-0.9,1.3-0.9,2.3c0,1.2,0.4,2.2,1.3,3c0.9,0.8,2,1.2,3.5,1.2c1.2,0,2.2-0.3,3.1-0.9s1.6-1.4,2.2-2.3
					c0.5-1,0.8-2.1,0.8-3.4v-5.4c0-1.8-0.4-3.2-1.1-4s-2-1.3-3.8-1.3c-1,0-2.1,0.1-3.2,0.4c-1.1,0.3-2.2,0.7-3.4,1.3
					c-0.5,0.2-0.9,0.3-1.2,0.2c-0.4-0.1-0.6-0.3-0.8-0.6c-0.2-0.3-0.3-0.6-0.3-1s0.1-0.7,0.2-1.1c0.2-0.3,0.5-0.6,0.9-0.8
					c1.4-0.7,2.8-1.2,4.1-1.5s2.6-0.5,3.8-0.5c2,0,3.7,0.3,5,1s2.3,1.6,3,3s1,3,1,5.1v12.4c0,0.7-0.2,1.3-0.5,1.7
					c-0.4,0.4-0.9,0.6-1.5,0.6c-0.6,0-1.1-0.2-1.5-0.6c-0.4-0.4-0.5-0.9-0.5-1.7v-3.3h0.4c-0.3,1.2-0.7,2.2-1.4,3
					c-0.7,0.8-1.5,1.5-2.6,2C298.4,826.2,297.3,826.4,296,826.4z"/>
				<path class="st0" d="M335.7,826.4c-1.9,0-3.4-0.3-4.6-1c-1.2-0.7-2.2-1.6-2.8-2.9s-0.9-2.8-0.9-4.6v-11.6h-3
					c-0.6,0-1-0.2-1.3-0.5c-0.3-0.3-0.5-0.7-0.5-1.2c0-0.5,0.2-0.9,0.5-1.2c0.3-0.3,0.8-0.4,1.3-0.4h3v-5.1c0-0.7,0.2-1.3,0.6-1.6
					c0.4-0.4,0.9-0.5,1.6-0.5s1.2,0.2,1.6,0.5s0.5,0.9,0.5,1.6v5.1h5.7c0.6,0,1,0.1,1.4,0.4c0.3,0.3,0.5,0.7,0.5,1.2
					c0,0.5-0.2,0.9-0.5,1.2s-0.8,0.5-1.4,0.5h-5.7v11.2c0,1.7,0.4,3,1.1,3.9c0.7,0.9,1.9,1.3,3.6,1.3c0.6,0,1.1,0,1.5-0.2
					c0.4-0.1,0.8-0.2,1.1-0.2c0.3,0,0.5,0.1,0.7,0.3c0.2,0.2,0.3,0.6,0.3,1.2c0,0.4-0.1,0.8-0.2,1.2s-0.4,0.6-0.8,0.7
					c-0.4,0.1-0.9,0.2-1.5,0.3C336.8,826.3,336.2,826.4,335.7,826.4z"/>
				<path class="st0" d="M365.8,826.4c-2.5,0-4.6-0.5-6.4-1.4c-1.8-1-3.1-2.3-4.1-4.1s-1.5-3.9-1.5-6.3c0-2.4,0.5-4.5,1.4-6.3
					c1-1.8,2.3-3.2,4-4.2c1.7-1,3.6-1.5,5.8-1.5c1.5,0,2.9,0.3,4.2,0.8c1.2,0.5,2.3,1.3,3.2,2.2c0.9,1,1.5,2.2,2,3.5
					c0.5,1.4,0.7,3,0.7,4.7c0,0.5-0.1,0.9-0.5,1.2c-0.3,0.3-0.7,0.4-1.3,0.4h-16.1v-2.7h15l-0.8,0.7c0-1.6-0.2-3-0.7-4.2
					c-0.5-1.2-1.2-2-2.1-2.6c-0.9-0.6-2.1-0.9-3.5-0.9c-1.5,0-2.8,0.3-3.9,1.1c-1.1,0.7-1.9,1.7-2.5,3c-0.6,1.3-0.9,2.7-0.9,4.4v0.3
					c0,2.8,0.7,5,2,6.4c1.4,1.4,3.3,2.2,5.8,2.2c1,0,2-0.1,3.1-0.4s2.1-0.7,3-1.4c0.5-0.3,0.9-0.4,1.3-0.4c0.4,0,0.7,0.1,1,0.4
					s0.4,0.5,0.5,0.8c0.1,0.3,0,0.7-0.1,1.1s-0.5,0.7-0.9,1c-1,0.7-2.3,1.3-3.7,1.7C368.5,826.2,367.2,826.4,365.8,826.4z"/>
				<path class="st0" d="M426.4,821.8c-1.5,0-3-0.4-4.2-1.1c-1.3-0.7-2.3-1.7-3.1-3c-0.8-1.3-1.2-2.7-1.2-4.2c0-1.4,0.4-2.8,1.1-4.1
					s1.8-2.3,3-3.1s2.8-1.2,4.4-1.2c1.5,0,2.9,0.4,4.2,1.1c1.3,0.7,2.4,1.7,3.1,3s1.2,2.7,1.2,4.3c0,1.5-0.4,2.9-1.1,4.2
					s-1.8,2.3-3.1,3C429.4,821.5,428,821.8,426.4,821.8z"/>
				<path class="st0" d="M482.2,826c-0.8,0-1.3-0.2-1.7-0.6s-0.6-1-0.6-1.7v-28.5c0-0.8,0.2-1.3,0.6-1.7c0.4-0.4,1-0.6,1.7-0.6h9.1
					c5.4,0,9.6,1.4,12.5,4.3c2.9,2.8,4.4,6.9,4.4,12.3c0,2.7-0.4,5-1.1,7.1s-1.9,3.8-3.3,5.2s-3.2,2.5-5.3,3.2
					c-2.1,0.7-4.5,1.1-7.2,1.1L482.2,826L482.2,826z M484.3,822.3h6.8c2.1,0,4-0.3,5.5-0.8c1.6-0.5,2.9-1.3,3.9-2.4s1.8-2.4,2.4-4
					c0.5-1.6,0.8-3.5,0.8-5.7c0-4.3-1.1-7.5-3.2-9.7c-2.1-2.1-5.3-3.2-9.5-3.2h-6.8L484.3,822.3L484.3,822.3z"/>
				<path class="st0" d="M537.5,826.4c-2.5,0-4.6-0.5-6.4-1.4s-3.2-2.3-4.1-4.1s-1.5-3.9-1.5-6.3c0-2.4,0.5-4.5,1.4-6.3
					c1-1.8,2.3-3.2,4-4.2c1.7-1,3.6-1.5,5.8-1.5c1.5,0,2.9,0.3,4.2,0.8s2.3,1.3,3.2,2.2c0.9,1,1.5,2.2,2,3.5c0.5,1.4,0.7,3,0.7,4.7
					c0,0.5-0.2,0.9-0.5,1.2c-0.3,0.3-0.7,0.4-1.3,0.4h-16.1v-2.7h15l-0.8,0.7c0-1.6-0.2-3-0.7-4.2s-1.2-2-2.1-2.6s-2.1-0.9-3.5-0.9
					c-1.5,0-2.8,0.3-3.9,1.1s-1.9,1.7-2.5,3c-0.6,1.3-0.8,2.7-0.8,4.4v0.3c0,2.8,0.7,5,2,6.4c1.3,1.4,3.3,2.2,5.8,2.2
					c1,0,2-0.1,3.1-0.4s2.1-0.7,3-1.4c0.5-0.3,0.9-0.4,1.3-0.4c0.4,0,0.7,0.1,1,0.4s0.4,0.5,0.5,0.8c0.1,0.3,0,0.7-0.1,1.1
					c-0.2,0.4-0.5,0.7-0.9,1c-1,0.7-2.3,1.3-3.7,1.7C540.2,826.2,538.8,826.4,537.5,826.4z"/>
				<path class="st0" d="M572.4,826.4c-1.4,0-2.8-0.2-4.3-0.5c-1.4-0.3-2.8-0.9-4-1.7c-0.3-0.2-0.6-0.5-0.7-0.8
					c-0.1-0.3-0.2-0.7-0.1-1s0.2-0.6,0.4-0.9c0.2-0.3,0.5-0.4,0.8-0.5s0.7,0,1.1,0.3c1.2,0.7,2.4,1.2,3.5,1.5s2.3,0.4,3.4,0.4
					c1.7,0,3-0.3,3.9-0.9c0.9-0.6,1.3-1.5,1.3-2.5c0-0.9-0.3-1.6-0.9-2s-1.5-0.8-2.7-1.1l-4.4-0.9c-2-0.4-3.4-1.2-4.4-2.2
					s-1.5-2.3-1.5-3.9c0-1.4,0.4-2.6,1.2-3.7c0.8-1,1.8-1.9,3.2-2.4c1.4-0.6,3-0.8,4.8-0.8c1.4,0,2.7,0.2,3.9,0.5s2.4,0.9,3.4,1.6
					c0.4,0.2,0.6,0.5,0.7,0.8s0.1,0.7,0,1s-0.2,0.6-0.5,0.8c-0.2,0.2-0.5,0.3-0.8,0.4c-0.3,0-0.7,0-1.1-0.3
					c-0.9-0.6-1.8-1.1-2.8-1.3s-1.9-0.4-2.8-0.4c-1.7,0-3,0.3-3.8,1c-0.9,0.7-1.3,1.5-1.3,2.6c0,0.8,0.3,1.5,0.8,2s1.3,0.9,2.5,1.2
					l4.4,0.9c2,0.4,3.6,1.1,4.6,2.1c1,1,1.5,2.3,1.5,3.9c0,2.1-0.8,3.8-2.5,5.1C577.5,825.8,575.2,826.4,572.4,826.4z"/>
				<path class="st0" d="M601.7,797.7c-0.8,0-1.5-0.2-2-0.7s-0.7-1.1-0.7-1.8c0-0.8,0.2-1.4,0.7-1.9s1.2-0.6,2-0.6
					c0.9,0,1.6,0.2,2,0.6c0.5,0.4,0.7,1,0.7,1.9c0,0.8-0.2,1.4-0.7,1.8C603.3,797.5,602.7,797.7,601.7,797.7z M601.7,826.2
					c-0.7,0-1.2-0.2-1.5-0.6c-0.4-0.4-0.6-1-0.6-1.7v-18.8c0-0.8,0.2-1.3,0.6-1.7c0.4-0.4,0.9-0.6,1.5-0.6c0.7,0,1.2,0.2,1.6,0.6
					s0.6,1,0.6,1.7v18.8c0,0.7-0.2,1.3-0.5,1.7C603,826,602.5,826.2,601.7,826.2z"/>
				<path class="st0" d="M633.5,834.9c-1.7,0-3.3-0.2-4.9-0.6c-1.6-0.4-3-1-4.3-1.7c-0.4-0.3-0.7-0.5-0.8-0.9s-0.2-0.7-0.1-1
					c0.1-0.3,0.2-0.7,0.5-0.9s0.5-0.4,0.8-0.5c0.3-0.1,0.7,0,1,0.2c1.4,0.8,2.7,1.3,4,1.6c1.3,0.3,2.5,0.4,3.6,0.4
					c2.2,0,3.9-0.6,5-1.7c1.1-1.2,1.7-2.8,1.7-5v-5.1h0.4c-0.4,1.8-1.4,3.2-2.9,4.2s-3.3,1.5-5.3,1.5c-2.1,0-3.9-0.5-5.4-1.4
					c-1.5-1-2.7-2.3-3.6-4c-0.8-1.7-1.3-3.7-1.3-6c0-1.7,0.2-3.3,0.7-4.7c0.5-1.4,1.2-2.6,2.1-3.6s2-1.8,3.2-2.3s2.7-0.8,4.2-0.8
					c2,0,3.8,0.5,5.3,1.5c1.5,1,2.5,2.4,2.9,4.2l-0.5,0.7v-4.1c0-0.7,0.2-1.3,0.6-1.6s0.9-0.5,1.6-0.5c0.7,0,1.2,0.2,1.5,0.5
					c0.4,0.4,0.6,0.9,0.6,1.6v19.3c0,3.5-0.9,6.2-2.7,8C639.6,834,637,834.9,633.5,834.9z M633,822c1.4,0,2.6-0.3,3.7-1
					s1.8-1.6,2.3-2.8s0.8-2.6,0.8-4.3c0-2.5-0.6-4.4-1.8-5.9c-1.2-1.4-2.9-2.1-5-2.1c-1.4,0-2.6,0.3-3.7,1s-1.8,1.6-2.4,2.8
					s-0.8,2.6-0.8,4.3c0,2.5,0.6,4.4,1.9,5.8C629.3,821.3,630.9,822,633,822z"/>
				<path class="st0" d="M665.5,826.3c-0.7,0-1.2-0.2-1.5-0.6c-0.4-0.4-0.6-0.9-0.6-1.7v-19.2c0-0.7,0.2-1.3,0.6-1.6
					s0.9-0.5,1.5-0.5s1.2,0.2,1.5,0.5c0.4,0.4,0.5,0.9,0.5,1.6v3.9l-0.5-0.7c0.7-1.8,1.7-3.1,3.2-4s3.2-1.4,5.1-1.4
					c1.8,0,3.4,0.3,4.6,1s2.1,1.7,2.7,3c0.6,1.3,0.9,3.1,0.9,5.1v12.3c0,0.7-0.2,1.3-0.5,1.7s-0.9,0.6-1.6,0.6s-1.2-0.2-1.6-0.6
					c-0.4-0.4-0.6-0.9-0.6-1.7V812c0-2-0.4-3.5-1.2-4.5s-2-1.4-3.8-1.4c-2,0-3.6,0.6-4.8,1.9c-1.2,1.2-1.8,2.9-1.8,5v11.1
					C667.7,825.6,667,826.3,665.5,826.3z"/>
				<path class="st0" d="M736.4,821.8c-1.5,0-3-0.4-4.2-1.1s-2.3-1.7-3.1-3c-0.8-1.3-1.2-2.7-1.2-4.2c0-1.4,0.4-2.8,1.1-4.1
					s1.8-2.3,3-3.1s2.8-1.2,4.4-1.2c1.5,0,2.9,0.4,4.2,1.1c1.3,0.7,2.3,1.7,3.1,3c0.8,1.3,1.2,2.7,1.2,4.3c0,1.5-0.4,2.9-1.2,4.2
					s-1.8,2.3-3.1,3C739.3,821.5,737.9,821.8,736.4,821.8z"/>
				<path class="st0" d="M792.2,826c-0.8,0-1.3-0.2-1.7-0.6s-0.6-1-0.6-1.7v-28.5c0-0.8,0.2-1.3,0.6-1.7s1-0.6,1.7-0.6h11.2
					c2.3,0,4.2,0.3,5.9,1s2.8,1.7,3.7,3c0.8,1.3,1.3,2.8,1.3,4.7c0,2-0.6,3.8-1.8,5.1s-2.8,2.3-4.9,2.8v-0.7
					c2.3,0.3,4.2,1.1,5.5,2.6s2,3.3,2,5.6c0,3-1,5.2-2.9,6.8c-1.9,1.6-4.7,2.4-8.2,2.4L792.2,826L792.2,826z M794.1,807.4h8.6
					c2.4,0,4.2-0.5,5.4-1.4s1.8-2.3,1.8-4.2s-0.6-3.2-1.8-4.2c-1.2-1-3-1.4-5.4-1.4h-8.6V807.4z M794.1,822.5h9.4
					c2.5,0,4.3-0.5,5.5-1.4s1.8-2.4,1.8-4.4s-0.6-3.4-1.8-4.4s-3-1.4-5.5-1.4h-9.4V822.5z"/>
				<path class="st0" d="M841.8,826.4c-1.8,0-3.4-0.3-4.6-1s-2.2-1.7-2.8-3.1c-0.6-1.3-0.9-3-0.9-5.1v-12.3c0-0.7,0.2-1.3,0.5-1.6
					s0.9-0.5,1.6-0.5s1.2,0.2,1.6,0.5s0.6,0.9,0.6,1.6v12.3c0,2,0.4,3.4,1.2,4.3c0.8,0.9,2,1.4,3.7,1.4c1.9,0,3.4-0.6,4.6-1.9
					c1.2-1.3,1.8-2.9,1.8-5v-11.2c0-0.7,0.2-1.3,0.5-1.6s0.9-0.5,1.6-0.5s1.2,0.2,1.6,0.5s0.6,0.9,0.6,1.6v19.2
					c0,1.5-0.7,2.2-2.1,2.2c-0.7,0-1.2-0.2-1.6-0.6c-0.4-0.4-0.5-0.9-0.5-1.7V820l0.6,0.8c-0.6,1.8-1.6,3.2-3,4.2
					C845.4,825.9,843.7,826.4,841.8,826.4z"/>
				<path class="st0" d="M874.8,797.7c-0.8,0-1.5-0.2-2-0.7s-0.7-1.1-0.7-1.8c0-0.8,0.2-1.4,0.7-1.9s1.2-0.6,2-0.6
					c0.9,0,1.6,0.2,2,0.6c0.5,0.4,0.7,1,0.7,1.9c0,0.8-0.2,1.4-0.7,1.8S875.7,797.7,874.8,797.7z M874.8,826.2
					c-0.7,0-1.2-0.2-1.5-0.6c-0.4-0.4-0.6-1-0.6-1.7v-18.8c0-0.8,0.2-1.3,0.6-1.7c0.4-0.4,0.9-0.6,1.5-0.6c0.7,0,1.2,0.2,1.6,0.6
					s0.6,1,0.6,1.7v18.8c0,0.7-0.2,1.3-0.5,1.7C876,826,875.5,826.2,874.8,826.2z"/>
				<path class="st0" d="M903.5,826.4c-2.3,0-4.1-0.7-5.4-2.1c-1.2-1.4-1.8-3.4-1.8-6v-23.6c0-0.7,0.2-1.3,0.6-1.6s0.9-0.5,1.5-0.5
					c0.7,0,1.2,0.2,1.6,0.5s0.6,0.9,0.6,1.6v23.3c0,1.6,0.3,2.8,1,3.7c0.7,0.8,1.6,1.2,2.9,1.2c0.3,0,0.5,0,0.8,0s0.4,0,0.7-0.1
					c0.3,0,0.6,0.1,0.8,0.3c0.2,0.2,0.2,0.7,0.2,1.3c0,0.6-0.1,1.1-0.4,1.4s-0.7,0.5-1.3,0.6c-0.3,0-0.6,0-0.8,0.1
					C904,826.4,903.7,826.4,903.5,826.4z"/>
				<path class="st0" d="M931.4,826.4c-2,0-3.8-0.5-5.3-1.4c-1.5-1-2.7-2.3-3.5-4.1c-0.8-1.8-1.3-3.9-1.3-6.3c0-2.5,0.4-4.6,1.3-6.3
					s2-3.1,3.5-4.1c1.5-1,3.3-1.4,5.3-1.4s3.8,0.5,5.3,1.5c1.5,1,2.5,2.4,3,4.1h-0.5v-13.6c0-0.7,0.2-1.3,0.5-1.6s0.9-0.5,1.6-0.5
					s1.2,0.2,1.6,0.5s0.6,0.9,0.6,1.6v29.5c0,0.7-0.2,1.3-0.6,1.7s-0.9,0.6-1.6,0.6c-0.7,0-1.2-0.2-1.5-0.6
					c-0.4-0.4-0.6-0.9-0.6-1.7v-4.3l0.5,0.8c-0.5,1.8-1.5,3.2-2.9,4.2C935.2,825.9,933.4,826.4,931.4,826.4z M932.3,823
					c1.4,0,2.6-0.3,3.6-1c1-0.7,1.8-1.6,2.3-2.9s0.8-2.8,0.8-4.7c0-2.8-0.6-4.9-1.8-6.3c-1.2-1.4-2.9-2.2-4.9-2.2
					c-1.3,0-2.5,0.3-3.5,1c-1,0.6-1.8,1.6-2.4,2.8c-0.6,1.3-0.8,2.8-0.8,4.7c0,2.8,0.6,4.9,1.9,6.3C928.7,822.3,930.3,823,932.3,823
					z"/>
			</g>
		</g>
	</g>
</g>
<g id="Layer_1_1_" class="st1">
	<path class="st2" d="M540.5,1080.8L540.5,1080.8c-298.2,0-540-241.8-540-540l0,0c0-298.2,241.8-540,540-540l0,0
		c298.2,0,540,241.8,540,540l0,0C1080.5,839.1,838.7,1080.8,540.5,1080.8z"/>
	<g class="st3">
		<rect x="16.3" y="504" class="st4" width="54.6" height="54.6"/>
		<rect x="16.3" y="564.8" class="st5" width="54.6" height="54.6"/>
		<rect x="16.3" y="627.7" class="st6" width="54.6" height="54.6"/>
		<rect x="16.3" y="689.5" class="st7" width="54.6" height="54.6"/>
		<rect x="16.3" y="753.5" class="st8" width="54.6" height="54.6"/>
	</g>
</g>
</svg>
