<?xml version="1.0" encoding="utf-8"?>
<!-- Generator: Adobe Illustrator 24.1.3, SVG Export Plug-In . SVG Version: 6.00 Build 0)  -->
<svg version="1.1" xmlns="http://www.w3.org/2000/svg" xmlns:xlink="http://www.w3.org/1999/xlink" x="0px" y="0px"
	 viewBox="0 0 1080 1080" style="enable-background:new 0 0 1080 1080;" xml:space="preserve">
<style type="text/css">
	.st0{fill:#553F2F;}
	.st1{display:none;}
	.st2{opacity:0.47;fill:#231F20;stroke:#231F20;stroke-miterlimit:10;}
	.st3{display:inline;}
	.st4{fill:#C8AF9E;}
	.st5{fill:#F1E3D3;}
	.st6{fill:#F1E8D9;}
	.st7{fill:#94A4B5;}
</style>
<g id="Layer_2">
	<g>
		<g>
			<path class="st0" d="M925.37,164.85L775.38,272.23c-2.52,1.8-6.04,0.25-6.42-2.82l-3.52-28.99c-0.71-5.92-7.51-8.92-12.36-5.45
				l-27.65,19.68c-1.6,1.15-0.17,3.62,1.61,2.81l23.75-10.74c2.53-1.15,5.38,0.71,5.35,3.49l-0.28,26.98
				c0.92,9.96,12.2,15.29,20.47,9.64l155.36-106.1c3.11-2.07,7.03,1.15,5.59,4.6L806.67,500.16c-8.52,20.55-19.51,39.99-32.7,57.91
				c-6.17,8.36-15.54,12.58-24.92,12.58c-8.89,0-17.78-3.78-23.99-11.4l-21.38-26.27c-9.24-8.09-23.52-5.98-29.99,4.44
				c-0.6,0.96-1.56,1.41-2.52,1.41c-1.22,0-2.44-0.74-2.87-2.11l-53.46-174.92c-3.4-11.1-8.84-21.47-16.07-30.56l-0.6-0.76
				c-13.5-16.99-40.76-8.18-41.78,13.43c-0.42,9.22-0.81,17.32-1.05,22.39c-0.12,2.4-2.84,3.71-4.77,2.31l-13.47-9.67
				c-33.37-23.93-79.28,3.13-74.48,43.9l0.1,0.86c0.84,7.26,3.08,14.02,6.6,20.15c7.83,13.59,22.17,38.55,28.9,50.26
				c1.27,2.2-0.89,4.8-3.29,3.97l-43.45-14.98c-14.66-5.06-30.88-2.57-43.35,6.63l-90.74,67.02c-5.72,4.22-13.5-1.32-11.4-8.1
				l43.73-141.06c3.48-11.2-1.24-23.3-11.36-29.22l-137.23-80.12c-8.8-5.13-19.74,1.75-18.91,11.9l27.61,340.37
				c0.23,2.98,2.72,5.27,5.7,5.27c3.17,0,5.75-2.57,5.72-5.75l-0.74-149.84c-0.03-7.45,7.32-12.68,14.33-10.21l31.43,11.01
				c2.15,0.77,3.65-2.17,1.76-3.46l-40.89-28.15c-10.17-7.01-16.73-18.14-17.91-30.43l-10.79-112.18c-0.39-4.07,3.94-6.92,7.52-4.95
				l115.59,63.57c10.04,5.51,14.56,17.5,10.68,28.26l-63.87,177.13c-4.04,11.24,9.22,20.73,18.55,13.25l124.17-99.48
				c11.99-9.6,28.37-11.62,42.32-5.22l76.97,35.35c24.02,11.03,52.21-1.93,59.47-27.35c1.92-6.73,2.88-13.66,2.88-20.55
				c0-10.95-2.4-21.86-7.14-31.91c-3.97-8.41-8.23-17.5-11.68-24.83c-4.54-9.63-6.47-20.26-5.63-30.88l1.57-19.94
				c0.73-9.31,11.39-14.21,18.92-8.7c3.59,2.62,6.69,5.8,9.21,9.41c2.5,3.59,4.41,7.61,5.61,11.9
				c12.68,44.88,53.49,188.87,53.49,188.87c2.2,7.77,12.26,9.83,17.34,3.55l10.04-13.86c2.31-3.19,7.1-3.16,9.35,0.09l15.74,22.55
				c19.08,27.33,59.95,26.08,77.31-2.37l4.03-6.59c10.63-17.4,19.94-35.6,27.86-54.4l135.5-321.02
				C961.77,170.75,941.44,154.03,925.37,164.85z M547.46,462.92c-1.18,4.49-2.72,8.89-4.63,13.15c-4.12,9.21-16.28,11.23-23.16,3.87
				l-5.6-5.98l-2.31-2.72c-11.59-13.59-21.15-28.77-28.37-45.11l-8.35-18.94l-0.71-3.46c-4.84-23.43,13.57-43.61,35.36-43.61
				c4.31,0,8.73,0.79,13.14,2.49c0.16,0.06,0.32,0.13,0.47,0.19c5.6,2.41,10.41,6.34,14.14,11.16l9.93,12.85
				c4.04,5.23,6.37,11.63,6.35,18.24c0,0.62-0.02,1.24-0.08,1.86l-3.8,42.26C549.43,453.83,548.62,458.42,547.46,462.92z
				 M579.12,468.74c0.89,2.81,1.29,5.63,1.29,8.39c0,14.58-11.58,27.43-27.13,27.89c-0.93,0.03-1.63-0.86-1.4-1.76l6.28-23.68
				c1.34-5.06,2.25-10.21,2.73-15.42l3.33-35.83c0.12-1.27,1.93-1.34,2.15-0.09L579.12,468.74z"/>
			<g>
				<path class="st0" d="M189,745.11c-1.48,0-2.9-0.12-4.28-0.35c-1.38-0.24-2.68-0.59-3.91-1.06c-1.22-0.47-2.32-1.05-3.29-1.74
					c-0.41-0.28-0.7-0.63-0.87-1.04c-0.17-0.41-0.22-0.81-0.14-1.2c0.08-0.39,0.25-0.73,0.52-1.01s0.59-0.46,0.96-0.52
					c0.38-0.06,0.78,0.06,1.22,0.38c1.44,0.97,2.96,1.68,4.54,2.12c1.58,0.44,3.33,0.66,5.25,0.66c2.76,0,4.79-0.5,6.1-1.51
					c1.3-1,1.95-2.32,1.95-3.95c0-1.35-0.47-2.41-1.41-3.18s-2.53-1.37-4.75-1.81l-4.99-1.04c-2.95-0.63-5.15-1.66-6.61-3.11
					c-1.46-1.44-2.19-3.37-2.19-5.79c0-1.47,0.3-2.82,0.89-4.02c0.6-1.21,1.44-2.25,2.54-3.13c1.1-0.88,2.39-1.55,3.88-2.02
					c1.49-0.47,3.15-0.71,4.97-0.71c1.95,0,3.77,0.27,5.48,0.8c1.71,0.53,3.25,1.32,4.64,2.35c0.38,0.28,0.63,0.62,0.75,1.01
					c0.13,0.39,0.15,0.78,0.07,1.15c-0.08,0.38-0.25,0.69-0.52,0.94c-0.27,0.25-0.6,0.39-0.99,0.42c-0.39,0.03-0.82-0.11-1.29-0.42
					c-1.26-0.88-2.54-1.51-3.86-1.91c-1.32-0.39-2.76-0.59-4.33-0.59c-1.6,0-2.99,0.25-4.17,0.75s-2.09,1.2-2.73,2.09
					c-0.64,0.89-0.96,1.94-0.96,3.13c0,1.44,0.44,2.57,1.32,3.39c0.88,0.82,2.35,1.44,4.42,1.88l4.94,0.99
					c3.14,0.66,5.47,1.67,6.99,3.04c1.52,1.36,2.28,3.19,2.28,5.48c0,1.44-0.29,2.75-0.87,3.91c-0.58,1.16-1.4,2.16-2.47,2.99
					c-1.07,0.83-2.37,1.47-3.91,1.93C192.64,744.88,190.92,745.11,189,745.11z"/>
				<path class="st0" d="M217.9,745.01c-0.66,0-1.18-0.19-1.55-0.56s-0.56-0.92-0.56-1.65v-29.46c0-0.72,0.19-1.26,0.56-1.62
					c0.38-0.36,0.89-0.54,1.55-0.54c0.69,0,1.22,0.18,1.6,0.54c0.38,0.36,0.56,0.9,0.56,1.62v13.42h-0.61
					c0.66-1.79,1.73-3.14,3.22-4.05c1.49-0.91,3.19-1.36,5.11-1.36c1.85,0,3.37,0.34,4.57,1.01c1.19,0.67,2.09,1.69,2.68,3.04
					c0.6,1.35,0.89,3.04,0.89,5.08v12.33c0,0.72-0.18,1.27-0.54,1.65c-0.36,0.38-0.89,0.56-1.58,0.56c-0.69,0-1.22-0.19-1.6-0.56
					s-0.56-0.92-0.56-1.65v-12.1c0-2.04-0.39-3.53-1.18-4.47c-0.79-0.94-2.04-1.41-3.77-1.41c-2.01,0-3.62,0.62-4.82,1.86
					c-1.21,1.24-1.81,2.91-1.81,5.01v11.11C220.07,744.27,219.35,745.01,217.9,745.01z"/>
				<path class="st0" d="M259.14,745.11c-1.57,0-2.99-0.31-4.26-0.94c-1.27-0.63-2.26-1.47-2.96-2.54
					c-0.71-1.07-1.06-2.26-1.06-3.58c0-1.69,0.42-3.03,1.27-4c0.85-0.97,2.27-1.67,4.28-2.09c2.01-0.42,4.71-0.63,8.1-0.63h2.21
					v2.73h-2.12c-2.42,0-4.32,0.11-5.72,0.33c-1.4,0.22-2.38,0.6-2.94,1.15c-0.56,0.55-0.85,1.31-0.85,2.28
					c0,1.22,0.43,2.23,1.29,3.01c0.86,0.78,2.05,1.18,3.55,1.18c1.19,0,2.24-0.29,3.15-0.87c0.91-0.58,1.63-1.37,2.17-2.35
					c0.53-0.99,0.8-2.13,0.8-3.41v-5.41c0-1.85-0.38-3.19-1.13-4.02c-0.75-0.83-2.02-1.25-3.81-1.25c-1.04,0-2.1,0.14-3.2,0.42
					c-1.1,0.28-2.24,0.72-3.44,1.32c-0.47,0.22-0.88,0.29-1.22,0.21c-0.35-0.08-0.62-0.27-0.82-0.56c-0.2-0.3-0.31-0.63-0.33-0.99
					c-0.02-0.36,0.06-0.71,0.24-1.06c0.17-0.34,0.48-0.6,0.92-0.75c1.38-0.69,2.75-1.18,4.12-1.48c1.37-0.3,2.64-0.45,3.84-0.45
					c2.04,0,3.72,0.32,5.04,0.96c1.32,0.64,2.31,1.63,2.97,2.96c0.66,1.33,0.99,3.04,0.99,5.11v12.43c0,0.72-0.17,1.27-0.52,1.65
					c-0.35,0.38-0.85,0.56-1.51,0.56c-0.63,0-1.12-0.19-1.48-0.56c-0.36-0.38-0.54-0.92-0.54-1.65v-3.34h0.42
					c-0.25,1.16-0.72,2.17-1.41,3.01c-0.69,0.85-1.55,1.5-2.57,1.95C261.58,744.88,260.42,745.11,259.14,745.11z"/>
				<path class="st0" d="M288.18,753.48c-0.66,0-1.18-0.19-1.55-0.56c-0.38-0.38-0.56-0.91-0.56-1.6v-27.72
					c0-0.72,0.19-1.26,0.56-1.62c0.38-0.36,0.89-0.54,1.55-0.54c0.69,0,1.22,0.18,1.58,0.54c0.36,0.36,0.54,0.9,0.54,1.62v4.28
					l-0.52-0.85c0.5-1.73,1.49-3.11,2.97-4.14c1.47-1.04,3.25-1.55,5.32-1.55c2.04,0,3.81,0.48,5.32,1.44
					c1.51,0.96,2.68,2.32,3.53,4.09c0.85,1.77,1.27,3.88,1.27,6.33c0,2.42-0.42,4.53-1.25,6.33c-0.83,1.8-2.01,3.19-3.53,4.14
					c-1.52,0.96-3.3,1.44-5.34,1.44c-2.04,0-3.8-0.52-5.27-1.55c-1.48-1.04-2.46-2.4-2.97-4.09h0.52v11.86
					c0,0.69-0.19,1.22-0.56,1.6C289.4,753.29,288.87,753.48,288.18,753.48z M297.07,741.72c1.35,0,2.53-0.33,3.55-0.99
					c1.02-0.66,1.81-1.62,2.38-2.87c0.56-1.25,0.85-2.81,0.85-4.66c0-2.76-0.61-4.86-1.84-6.31c-1.22-1.44-2.87-2.17-4.94-2.17
					c-1.38,0-2.58,0.32-3.6,0.96c-1.02,0.64-1.8,1.59-2.35,2.85c-0.55,1.26-0.82,2.81-0.82,4.66c0,2.76,0.61,4.87,1.84,6.33
					S295,741.72,297.07,741.72z"/>
				<path class="st0" d="M324.94,716.44c-0.85,0-1.51-0.23-2-0.68c-0.49-0.45-0.73-1.06-0.73-1.81c0-0.82,0.24-1.44,0.73-1.86
					c0.49-0.42,1.15-0.64,2-0.64c0.91,0,1.59,0.21,2.05,0.64c0.45,0.42,0.68,1.04,0.68,1.86c0,0.75-0.23,1.36-0.68,1.81
					C326.53,716.21,325.85,716.44,324.94,716.44z M324.94,744.92c-0.66,0-1.18-0.2-1.55-0.61c-0.38-0.41-0.56-0.97-0.56-1.69v-18.78
					c0-0.75,0.19-1.33,0.56-1.72c0.38-0.39,0.89-0.59,1.55-0.59c0.69,0,1.22,0.2,1.6,0.59c0.38,0.39,0.56,0.96,0.56,1.72v18.78
					c0,0.72-0.18,1.29-0.54,1.69C326.2,744.71,325.66,744.92,324.94,744.92z"/>
				<path class="st0" d="M345.22,745.01c-0.66,0-1.18-0.19-1.55-0.56s-0.56-0.92-0.56-1.65v-19.2c0-0.72,0.19-1.26,0.56-1.62
					c0.38-0.36,0.89-0.54,1.55-0.54c0.66,0,1.17,0.18,1.53,0.54c0.36,0.36,0.54,0.9,0.54,1.62v3.86l-0.52-0.71
					c0.66-1.79,1.73-3.14,3.22-4.05c1.49-0.91,3.19-1.36,5.11-1.36c1.85,0,3.37,0.33,4.57,0.99c1.19,0.66,2.09,1.66,2.68,3.01
					c0.6,1.35,0.89,3.06,0.89,5.13v12.33c0,0.72-0.18,1.27-0.54,1.65c-0.36,0.38-0.89,0.56-1.58,0.56c-0.69,0-1.22-0.19-1.6-0.56
					s-0.56-0.92-0.56-1.65v-12.1c0-2.04-0.39-3.53-1.18-4.47c-0.79-0.94-2.04-1.41-3.77-1.41c-2.01,0-3.62,0.62-4.82,1.86
					c-1.21,1.24-1.81,2.91-1.81,5.01v11.11C347.39,744.27,346.67,745.01,345.22,745.01z"/>
				<path class="st0" d="M389.47,753.58c-1.69,0-3.33-0.19-4.92-0.56c-1.58-0.38-3.02-0.96-4.31-1.74
					c-0.41-0.25-0.68-0.54-0.82-0.87s-0.17-0.67-0.09-1.01c0.08-0.35,0.24-0.65,0.47-0.92s0.52-0.44,0.85-0.52
					c0.33-0.08,0.67-0.01,1.01,0.21c1.38,0.78,2.7,1.32,3.95,1.6c1.25,0.28,2.45,0.42,3.58,0.42c2.23,0,3.9-0.57,5.01-1.72
					c1.11-1.15,1.67-2.82,1.67-5.01v-5.08h0.42c-0.44,1.76-1.42,3.15-2.94,4.19s-3.29,1.55-5.29,1.55c-2.07,0-3.88-0.48-5.41-1.44
					c-1.54-0.96-2.73-2.29-3.58-4s-1.27-3.7-1.27-5.95c0-1.73,0.24-3.29,0.73-4.68c0.49-1.4,1.18-2.59,2.07-3.58
					s1.97-1.76,3.22-2.31c1.25-0.55,2.67-0.82,4.24-0.82c2.04,0,3.81,0.52,5.32,1.55c1.51,1.04,2.48,2.43,2.92,4.19l-0.52,0.66
					v-4.14c0-0.72,0.19-1.26,0.56-1.62c0.38-0.36,0.91-0.54,1.6-0.54c0.66,0,1.18,0.18,1.55,0.54c0.38,0.36,0.56,0.9,0.56,1.62v19.3
					c0,3.55-0.9,6.21-2.71,8C395.55,752.68,392.92,753.58,389.47,753.58z M389,740.73c1.41,0,2.63-0.32,3.65-0.96
					c1.02-0.64,1.8-1.57,2.35-2.78c0.55-1.21,0.82-2.63,0.82-4.26c0-2.48-0.61-4.43-1.84-5.86c-1.22-1.43-2.89-2.14-4.99-2.14
					c-1.41,0-2.63,0.32-3.65,0.96c-1.02,0.64-1.81,1.56-2.38,2.75s-0.85,2.62-0.85,4.28c0,2.45,0.62,4.39,1.86,5.84
					C385.22,740.01,386.89,740.73,389,740.73z"/>
				<path class="st0" d="M440.21,745.01c-0.69,0-1.22-0.2-1.6-0.59c-0.38-0.39-0.56-0.95-0.56-1.67v-29.32
					c0-0.75,0.19-1.32,0.56-1.69c0.38-0.38,0.91-0.56,1.6-0.56c0.72,0,1.27,0.19,1.65,0.56c0.38,0.38,0.56,0.94,0.56,1.69v29.32
					c0,0.72-0.18,1.28-0.54,1.67C441.52,744.81,440.96,745.01,440.21,745.01z"/>
				<path class="st0" d="M467.69,745.11c-2.01,0-3.77-0.48-5.3-1.44c-1.52-0.96-2.71-2.34-3.55-4.14c-0.85-1.8-1.27-3.91-1.27-6.33
					c0-2.45,0.42-4.56,1.25-6.33c0.83-1.77,2.01-3.14,3.53-4.09c1.52-0.96,3.3-1.44,5.34-1.44c2.04,0,3.8,0.51,5.27,1.53
					c1.47,1.02,2.46,2.38,2.97,4.07h-0.52v-13.6c0-0.72,0.18-1.26,0.54-1.62c0.36-0.36,0.89-0.54,1.58-0.54
					c0.69,0,1.22,0.18,1.6,0.54c0.38,0.36,0.56,0.9,0.56,1.62v29.46c0,0.72-0.19,1.27-0.56,1.65s-0.91,0.56-1.6,0.56
					c-0.66,0-1.18-0.19-1.55-0.56c-0.38-0.38-0.56-0.92-0.56-1.65v-4.28l0.52,0.85c-0.47,1.76-1.45,3.15-2.94,4.19
					C471.5,744.59,469.73,745.11,467.69,745.11z M468.68,741.72c1.38,0,2.58-0.33,3.6-0.99c1.02-0.66,1.8-1.62,2.35-2.87
					c0.55-1.25,0.82-2.81,0.82-4.66c0-2.76-0.61-4.86-1.84-6.31c-1.22-1.44-2.87-2.17-4.94-2.17c-1.35,0-2.53,0.32-3.55,0.96
					c-1.02,0.64-1.81,1.59-2.38,2.85c-0.56,1.26-0.85,2.81-0.85,4.66c0,2.76,0.62,4.87,1.86,6.33
					C465,740.99,466.64,741.72,468.68,741.72z"/>
				<path class="st0" d="M506.29,745.11c-2.48,0-4.61-0.48-6.38-1.44c-1.77-0.96-3.15-2.32-4.12-4.09
					c-0.97-1.77-1.46-3.87-1.46-6.28c0-2.38,0.48-4.47,1.44-6.26c0.96-1.79,2.27-3.18,3.95-4.19c1.68-1,3.6-1.51,5.77-1.51
					c1.54,0,2.93,0.26,4.17,0.78c1.24,0.52,2.3,1.26,3.18,2.24c0.88,0.97,1.55,2.16,2,3.55c0.45,1.4,0.68,2.97,0.68,4.73
					c0,0.5-0.15,0.89-0.45,1.15c-0.3,0.27-0.73,0.4-1.29,0.4h-16.1v-2.73h15.01l-0.8,0.66c0-1.63-0.24-3.02-0.73-4.17
					c-0.49-1.15-1.19-2.02-2.12-2.61c-0.93-0.6-2.08-0.89-3.46-0.89c-1.51,0-2.79,0.35-3.86,1.06c-1.07,0.71-1.88,1.69-2.45,2.97
					c-0.56,1.27-0.85,2.74-0.85,4.4v0.28c0,2.82,0.67,4.96,2.02,6.4c1.35,1.44,3.29,2.17,5.84,2.17c1,0,2.03-0.13,3.08-0.38
					c1.05-0.25,2.06-0.71,3.04-1.37c0.47-0.28,0.9-0.42,1.29-0.4c0.39,0.02,0.71,0.14,0.96,0.38c0.25,0.24,0.41,0.52,0.47,0.85
					c0.06,0.33,0.02,0.68-0.14,1.06c-0.16,0.38-0.46,0.71-0.89,0.99c-1.04,0.72-2.27,1.28-3.69,1.67
					C508.98,744.91,507.61,745.11,506.29,745.11z"/>
				<path class="st0" d="M537.26,745.11c-1.57,0-2.99-0.31-4.26-0.94c-1.27-0.63-2.26-1.47-2.96-2.54
					c-0.71-1.07-1.06-2.26-1.06-3.58c0-1.69,0.42-3.03,1.27-4c0.85-0.97,2.27-1.67,4.28-2.09c2.01-0.42,4.71-0.63,8.1-0.63h2.21
					v2.73h-2.12c-2.42,0-4.32,0.11-5.72,0.33c-1.4,0.22-2.38,0.6-2.94,1.15c-0.56,0.55-0.85,1.31-0.85,2.28
					c0,1.22,0.43,2.23,1.29,3.01c0.86,0.78,2.05,1.18,3.55,1.18c1.19,0,2.24-0.29,3.15-0.87c0.91-0.58,1.63-1.37,2.17-2.35
					c0.53-0.99,0.8-2.13,0.8-3.41v-5.41c0-1.85-0.38-3.19-1.13-4.02c-0.75-0.83-2.02-1.25-3.81-1.25c-1.04,0-2.1,0.14-3.2,0.42
					c-1.1,0.28-2.24,0.72-3.44,1.32c-0.47,0.22-0.88,0.29-1.22,0.21c-0.35-0.08-0.62-0.27-0.82-0.56c-0.2-0.3-0.31-0.63-0.33-0.99
					c-0.02-0.36,0.06-0.71,0.24-1.06c0.17-0.34,0.48-0.6,0.92-0.75c1.38-0.69,2.75-1.18,4.12-1.48c1.37-0.3,2.64-0.45,3.84-0.45
					c2.04,0,3.72,0.32,5.04,0.96c1.32,0.64,2.31,1.63,2.97,2.96c0.66,1.33,0.99,3.04,0.99,5.11v12.43c0,0.72-0.17,1.27-0.52,1.65
					c-0.35,0.38-0.85,0.56-1.51,0.56c-0.63,0-1.12-0.19-1.48-0.56c-0.36-0.38-0.54-0.92-0.54-1.65v-3.34h0.42
					c-0.25,1.16-0.72,2.17-1.41,3.01c-0.69,0.85-1.55,1.5-2.57,1.95C539.7,744.88,538.55,745.11,537.26,745.11z"/>
				<path class="st0" d="M572.09,745.11c-1.41,0-2.83-0.17-4.26-0.49c-1.43-0.33-2.77-0.9-4.02-1.72c-0.35-0.22-0.59-0.49-0.73-0.82
					c-0.14-0.33-0.19-0.66-0.14-0.99c0.05-0.33,0.18-0.62,0.4-0.87c0.22-0.25,0.49-0.4,0.82-0.45c0.33-0.05,0.68,0.04,1.06,0.26
					c1.22,0.69,2.41,1.18,3.55,1.46c1.14,0.28,2.28,0.42,3.41,0.42c1.73,0,3.03-0.31,3.91-0.94c0.88-0.63,1.32-1.46,1.32-2.49
					c0-0.88-0.29-1.56-0.87-2.05c-0.58-0.49-1.48-0.85-2.71-1.11l-4.38-0.89c-1.95-0.44-3.41-1.17-4.4-2.19s-1.48-2.33-1.48-3.93
					c0-1.41,0.38-2.64,1.15-3.7c0.77-1.05,1.84-1.86,3.22-2.42c1.38-0.56,2.97-0.85,4.75-0.85c1.38,0,2.69,0.18,3.93,0.54
					c1.24,0.36,2.36,0.9,3.37,1.62c0.38,0.22,0.62,0.49,0.73,0.82c0.11,0.33,0.13,0.66,0.05,0.99c-0.08,0.33-0.23,0.61-0.45,0.82
					c-0.22,0.22-0.5,0.35-0.85,0.4c-0.35,0.05-0.72-0.04-1.13-0.26c-0.91-0.63-1.84-1.08-2.8-1.34s-1.91-0.4-2.85-0.4
					c-1.69,0-2.97,0.33-3.84,0.99c-0.86,0.66-1.29,1.52-1.29,2.59c0,0.82,0.26,1.49,0.78,2.02c0.52,0.53,1.34,0.93,2.47,1.18
					l4.38,0.89c2.04,0.44,3.58,1.14,4.61,2.09c1.04,0.96,1.55,2.25,1.55,3.88c0,2.13-0.84,3.82-2.52,5.06
					C577.17,744.49,574.92,745.11,572.09,745.11z"/>
				<path class="st0" d="M619.58,716.44c-0.85,0-1.51-0.23-2-0.68c-0.49-0.45-0.73-1.06-0.73-1.81c0-0.82,0.24-1.44,0.73-1.86
					c0.49-0.42,1.15-0.64,2-0.64c0.91,0,1.59,0.21,2.05,0.64c0.45,0.42,0.68,1.04,0.68,1.86c0,0.75-0.23,1.36-0.68,1.81
					C621.17,716.21,620.49,716.44,619.58,716.44z M619.58,744.92c-0.66,0-1.18-0.2-1.55-0.61c-0.38-0.41-0.57-0.97-0.57-1.69v-18.78
					c0-0.75,0.19-1.33,0.57-1.72c0.38-0.39,0.89-0.59,1.55-0.59c0.69,0,1.22,0.2,1.6,0.59c0.38,0.39,0.56,0.96,0.56,1.72v18.78
					c0,0.72-0.18,1.29-0.54,1.69C620.84,744.71,620.3,744.92,619.58,744.92z"/>
				<path class="st0" d="M639.87,745.01c-0.66,0-1.18-0.19-1.55-0.56c-0.38-0.38-0.57-0.92-0.57-1.65v-19.2
					c0-0.72,0.19-1.26,0.57-1.62c0.38-0.36,0.89-0.54,1.55-0.54c0.66,0,1.17,0.18,1.53,0.54c0.36,0.36,0.54,0.9,0.54,1.62v3.86
					l-0.52-0.71c0.66-1.79,1.73-3.14,3.22-4.05c1.49-0.91,3.19-1.36,5.11-1.36c1.85,0,3.37,0.33,4.57,0.99s2.09,1.66,2.68,3.01
					c0.6,1.35,0.89,3.06,0.89,5.13v12.33c0,0.72-0.18,1.27-0.54,1.65c-0.36,0.38-0.89,0.56-1.58,0.56s-1.22-0.19-1.6-0.56
					c-0.38-0.38-0.57-0.92-0.57-1.65v-12.1c0-2.04-0.39-3.53-1.18-4.47s-2.04-1.41-3.77-1.41c-2.01,0-3.62,0.62-4.82,1.86
					c-1.21,1.24-1.81,2.91-1.81,5.01v11.11C642.03,744.27,641.31,745.01,639.87,745.01z"/>
				<path class="st0" d="M683.31,745.11c-1.85,0-3.4-0.33-4.64-0.99c-1.24-0.66-2.17-1.62-2.78-2.87c-0.61-1.25-0.92-2.79-0.92-4.61
					v-11.58h-3.01c-0.57,0-1-0.15-1.32-0.45c-0.31-0.3-0.47-0.7-0.47-1.2c0-0.53,0.16-0.94,0.47-1.22s0.75-0.42,1.32-0.42h3.01
					v-5.13c0-0.72,0.19-1.26,0.57-1.62c0.38-0.36,0.91-0.54,1.6-0.54c0.69,0,1.21,0.18,1.58,0.54c0.36,0.36,0.54,0.9,0.54,1.62v5.13
					h5.7c0.6,0,1.05,0.14,1.37,0.42s0.47,0.69,0.47,1.22c0,0.5-0.16,0.9-0.47,1.2c-0.31,0.3-0.77,0.45-1.37,0.45h-5.7v11.2
					c0,1.73,0.36,3.03,1.08,3.91c0.72,0.88,1.91,1.32,3.58,1.32c0.6,0,1.1-0.05,1.51-0.17c0.41-0.11,0.77-0.17,1.08-0.17
					c0.28-0.03,0.53,0.06,0.73,0.28c0.2,0.22,0.31,0.63,0.31,1.22c0,0.44-0.07,0.84-0.21,1.2c-0.14,0.36-0.42,0.6-0.82,0.73
					c-0.38,0.13-0.88,0.24-1.51,0.35C684.38,745.05,683.81,745.11,683.31,745.11z"/>
				<path class="st0" d="M709.29,745.11c-2.26,0-4.22-0.49-5.88-1.46c-1.66-0.97-2.95-2.35-3.86-4.14
					c-0.91-1.79-1.36-3.89-1.36-6.31c0-1.82,0.26-3.46,0.78-4.92s1.26-2.71,2.24-3.74c0.97-1.04,2.14-1.83,3.51-2.38
					c1.37-0.55,2.89-0.82,4.59-0.82c2.26,0,4.22,0.49,5.88,1.46s2.95,2.35,3.86,4.12c0.91,1.77,1.37,3.87,1.37,6.28
					c0,1.82-0.26,3.47-0.78,4.94c-0.52,1.48-1.26,2.73-2.24,3.77c-0.97,1.04-2.14,1.83-3.51,2.38
					C712.52,744.83,710.99,745.11,709.29,745.11z M709.29,741.72c1.38,0,2.58-0.33,3.6-0.99c1.02-0.66,1.8-1.62,2.35-2.87
					c0.55-1.25,0.82-2.81,0.82-4.66c0-2.76-0.61-4.86-1.84-6.31c-1.22-1.44-2.87-2.17-4.94-2.17c-1.35,0-2.53,0.32-3.55,0.96
					c-1.02,0.64-1.81,1.59-2.38,2.85c-0.57,1.26-0.85,2.81-0.85,4.66c0,2.76,0.62,4.87,1.86,6.33
					C705.62,740.99,707.25,741.72,709.29,741.72z"/>
				<path class="st0" d="M767.89,745.11c-1.48,0-2.9-0.12-4.28-0.35c-1.38-0.24-2.68-0.59-3.91-1.06s-2.32-1.05-3.29-1.74
					c-0.41-0.28-0.7-0.63-0.87-1.04c-0.17-0.41-0.22-0.81-0.14-1.2c0.08-0.39,0.25-0.73,0.52-1.01s0.59-0.46,0.96-0.52
					c0.38-0.06,0.78,0.06,1.22,0.38c1.44,0.97,2.96,1.68,4.54,2.12c1.58,0.44,3.33,0.66,5.25,0.66c2.76,0,4.79-0.5,6.09-1.51
					s1.95-2.32,1.95-3.95c0-1.35-0.47-2.41-1.41-3.18s-2.53-1.37-4.75-1.81l-4.99-1.04c-2.95-0.63-5.15-1.66-6.61-3.11
					s-2.19-3.37-2.19-5.79c0-1.47,0.3-2.82,0.89-4.02c0.6-1.21,1.44-2.25,2.54-3.13c1.1-0.88,2.39-1.55,3.88-2.02
					c1.49-0.47,3.15-0.71,4.97-0.71c1.95,0,3.77,0.27,5.48,0.8c1.71,0.53,3.25,1.32,4.64,2.35c0.38,0.28,0.63,0.62,0.75,1.01
					c0.13,0.39,0.15,0.78,0.07,1.15s-0.25,0.69-0.52,0.94s-0.6,0.39-0.99,0.42c-0.39,0.03-0.82-0.11-1.29-0.42
					c-1.25-0.88-2.54-1.51-3.86-1.91c-1.32-0.39-2.76-0.59-4.33-0.59c-1.6,0-2.99,0.25-4.17,0.75c-1.18,0.5-2.09,1.2-2.73,2.09
					c-0.64,0.89-0.96,1.94-0.96,3.13c0,1.44,0.44,2.57,1.32,3.39c0.88,0.82,2.35,1.44,4.42,1.88l4.94,0.99
					c3.14,0.66,5.47,1.67,6.99,3.04c1.52,1.36,2.28,3.19,2.28,5.48c0,1.44-0.29,2.75-0.87,3.91c-0.58,1.16-1.4,2.16-2.47,2.99
					c-1.07,0.83-2.37,1.47-3.91,1.93C771.53,744.88,769.81,745.11,767.89,745.11z"/>
				<path class="st0" d="M796.79,753.48c-0.66,0-1.18-0.19-1.55-0.56c-0.38-0.38-0.57-0.91-0.57-1.6v-27.72
					c0-0.72,0.19-1.26,0.57-1.62c0.38-0.36,0.89-0.54,1.55-0.54c0.69,0,1.22,0.18,1.58,0.54c0.36,0.36,0.54,0.9,0.54,1.62v4.28
					l-0.52-0.85c0.5-1.73,1.49-3.11,2.97-4.14c1.47-1.04,3.25-1.55,5.32-1.55c2.04,0,3.81,0.48,5.32,1.44
					c1.51,0.96,2.68,2.32,3.53,4.09c0.85,1.77,1.27,3.88,1.27,6.33c0,2.42-0.42,4.53-1.25,6.33c-0.83,1.8-2.01,3.19-3.53,4.14
					c-1.52,0.96-3.3,1.44-5.34,1.44c-2.04,0-3.8-0.52-5.27-1.55c-1.48-1.04-2.46-2.4-2.97-4.09h0.52v11.86
					c0,0.69-0.19,1.22-0.56,1.6C798.02,753.29,797.48,753.48,796.79,753.48z M805.69,741.72c1.35,0,2.53-0.33,3.55-0.99
					c1.02-0.66,1.81-1.62,2.38-2.87c0.56-1.25,0.85-2.81,0.85-4.66c0-2.76-0.61-4.86-1.83-6.31c-1.22-1.44-2.87-2.17-4.94-2.17
					c-1.38,0-2.58,0.32-3.6,0.96c-1.02,0.64-1.8,1.59-2.35,2.85c-0.55,1.26-0.82,2.81-0.82,4.66c0,2.76,0.61,4.87,1.84,6.33
					S803.62,741.72,805.69,741.72z"/>
				<path class="st0" d="M838.73,745.11c-1.57,0-2.99-0.31-4.26-0.94c-1.27-0.63-2.26-1.47-2.96-2.54
					c-0.71-1.07-1.06-2.26-1.06-3.58c0-1.69,0.42-3.03,1.27-4c0.85-0.97,2.27-1.67,4.28-2.09c2.01-0.42,4.71-0.63,8.1-0.63h2.21
					v2.73h-2.12c-2.42,0-4.32,0.11-5.72,0.33c-1.4,0.22-2.38,0.6-2.94,1.15c-0.57,0.55-0.85,1.31-0.85,2.28
					c0,1.22,0.43,2.23,1.29,3.01c0.86,0.78,2.05,1.18,3.55,1.18c1.19,0,2.24-0.29,3.15-0.87c0.91-0.58,1.63-1.37,2.17-2.35
					c0.53-0.99,0.8-2.13,0.8-3.41v-5.41c0-1.85-0.38-3.19-1.13-4.02c-0.75-0.83-2.02-1.25-3.81-1.25c-1.04,0-2.1,0.14-3.2,0.42
					c-1.1,0.28-2.24,0.72-3.44,1.32c-0.47,0.22-0.88,0.29-1.22,0.21c-0.35-0.08-0.62-0.27-0.82-0.56s-0.31-0.63-0.33-0.99
					c-0.02-0.36,0.06-0.71,0.24-1.06c0.17-0.34,0.48-0.6,0.92-0.75c1.38-0.69,2.75-1.18,4.12-1.48c1.36-0.3,2.64-0.45,3.84-0.45
					c2.04,0,3.72,0.32,5.04,0.96c1.32,0.64,2.31,1.63,2.97,2.96c0.66,1.33,0.99,3.04,0.99,5.11v12.43c0,0.72-0.17,1.27-0.52,1.65
					c-0.35,0.38-0.85,0.56-1.51,0.56c-0.63,0-1.12-0.19-1.48-0.56c-0.36-0.38-0.54-0.92-0.54-1.65v-3.34h0.42
					c-0.25,1.16-0.72,2.17-1.41,3.01c-0.69,0.85-1.55,1.5-2.57,1.95C841.17,744.88,840.02,745.11,838.73,745.11z"/>
				<path class="st0" d="M875.58,745.11c-2.32,0-4.33-0.49-6.02-1.48c-1.69-0.99-3-2.38-3.91-4.19c-0.91-1.8-1.36-3.93-1.36-6.38
					c0-1.82,0.26-3.45,0.78-4.9c0.52-1.44,1.26-2.67,2.24-3.69s2.16-1.8,3.55-2.33c1.4-0.53,2.97-0.8,4.73-0.8
					c1.1,0,2.26,0.17,3.48,0.52c1.22,0.35,2.35,0.91,3.39,1.69c0.34,0.25,0.57,0.54,0.66,0.87c0.09,0.33,0.1,0.67,0.02,1.01
					c-0.08,0.35-0.24,0.64-0.47,0.87s-0.53,0.37-0.89,0.4c-0.36,0.03-0.75-0.08-1.15-0.33c-0.75-0.56-1.55-0.97-2.38-1.22
					s-1.62-0.38-2.38-0.38c-1.16,0-2.19,0.19-3.08,0.57c-0.89,0.38-1.65,0.92-2.26,1.62s-1.08,1.57-1.39,2.59
					c-0.31,1.02-0.47,2.21-0.47,3.55c0,2.67,0.63,4.76,1.88,6.28c1.25,1.52,3.03,2.28,5.32,2.28c0.75,0,1.54-0.12,2.35-0.35
					s1.62-0.64,2.4-1.2c0.41-0.25,0.78-0.35,1.13-0.31c0.34,0.05,0.64,0.19,0.87,0.42s0.38,0.52,0.45,0.85
					c0.06,0.33,0.04,0.67-0.07,1.01c-0.11,0.35-0.34,0.63-0.68,0.85c-1,0.75-2.1,1.3-3.29,1.65
					C877.83,744.93,876.68,745.11,875.58,745.11z"/>
				<path class="st0" d="M906.79,745.11c-2.48,0-4.61-0.48-6.38-1.44c-1.77-0.96-3.15-2.32-4.12-4.09
					c-0.97-1.77-1.46-3.87-1.46-6.28c0-2.38,0.48-4.47,1.44-6.26c0.96-1.79,2.27-3.18,3.95-4.19c1.68-1,3.6-1.51,5.77-1.51
					c1.54,0,2.92,0.26,4.17,0.78c1.24,0.52,2.3,1.26,3.18,2.24c0.88,0.97,1.54,2.16,2,3.55c0.45,1.4,0.68,2.97,0.68,4.73
					c0,0.5-0.15,0.89-0.45,1.15c-0.3,0.27-0.73,0.4-1.29,0.4h-16.1v-2.73h15.01l-0.8,0.66c0-1.63-0.24-3.02-0.73-4.17
					c-0.49-1.15-1.19-2.02-2.12-2.61c-0.93-0.6-2.08-0.89-3.46-0.89c-1.51,0-2.79,0.35-3.86,1.06c-1.07,0.71-1.88,1.69-2.45,2.97
					c-0.57,1.27-0.85,2.74-0.85,4.4v0.28c0,2.82,0.67,4.96,2.02,6.4c1.35,1.44,3.29,2.17,5.84,2.17c1,0,2.03-0.13,3.08-0.38
					c1.05-0.25,2.06-0.71,3.04-1.37c0.47-0.28,0.9-0.42,1.29-0.4s0.71,0.14,0.96,0.38s0.41,0.52,0.47,0.85
					c0.06,0.33,0.02,0.68-0.14,1.06c-0.16,0.38-0.46,0.71-0.89,0.99c-1.04,0.72-2.27,1.28-3.7,1.67
					C909.48,744.91,908.11,745.11,906.79,745.11z"/>
				<path class="st0" d="M938.38,745.11c-1.41,0-2.83-0.17-4.26-0.49c-1.43-0.33-2.77-0.9-4.02-1.72c-0.35-0.22-0.59-0.49-0.73-0.82
					c-0.14-0.33-0.19-0.66-0.14-0.99c0.05-0.33,0.18-0.62,0.4-0.87c0.22-0.25,0.49-0.4,0.82-0.45c0.33-0.05,0.68,0.04,1.06,0.26
					c1.22,0.69,2.41,1.18,3.55,1.46c1.14,0.28,2.28,0.42,3.41,0.42c1.73,0,3.03-0.31,3.91-0.94c0.88-0.63,1.32-1.46,1.32-2.49
					c0-0.88-0.29-1.56-0.87-2.05c-0.58-0.49-1.48-0.85-2.71-1.11l-4.38-0.89c-1.95-0.44-3.41-1.17-4.4-2.19s-1.48-2.33-1.48-3.93
					c0-1.41,0.38-2.64,1.15-3.7c0.77-1.05,1.84-1.86,3.22-2.42c1.38-0.56,2.97-0.85,4.75-0.85c1.38,0,2.69,0.18,3.93,0.54
					c1.24,0.36,2.36,0.9,3.37,1.62c0.38,0.22,0.62,0.49,0.73,0.82c0.11,0.33,0.13,0.66,0.05,0.99c-0.08,0.33-0.23,0.61-0.45,0.82
					c-0.22,0.22-0.5,0.35-0.85,0.4c-0.35,0.05-0.72-0.04-1.13-0.26c-0.91-0.63-1.84-1.08-2.8-1.34s-1.91-0.4-2.85-0.4
					c-1.69,0-2.97,0.33-3.84,0.99c-0.86,0.66-1.29,1.52-1.29,2.59c0,0.82,0.26,1.49,0.78,2.02c0.52,0.53,1.34,0.93,2.47,1.18
					l4.38,0.89c2.04,0.44,3.58,1.14,4.61,2.09c1.04,0.96,1.55,2.25,1.55,3.88c0,2.13-0.84,3.82-2.52,5.06
					C943.45,744.49,941.2,745.11,938.38,745.11z"/>
				<path class="st0" d="M192.72,826.41c-3.29,0-6.12-0.69-8.47-2.07c-2.35-1.38-4.17-3.35-5.44-5.91
					c-1.27-2.56-1.91-5.58-1.91-9.06c0-2.6,0.36-4.95,1.08-7.04c0.72-2.09,1.76-3.88,3.11-5.37c1.35-1.49,3-2.63,4.97-3.41
					c1.96-0.78,4.18-1.18,6.66-1.18c1.88,0,3.69,0.27,5.44,0.8c1.74,0.53,3.24,1.29,4.5,2.26c0.5,0.35,0.83,0.74,0.99,1.18
					c0.16,0.44,0.18,0.86,0.07,1.25c-0.11,0.39-0.31,0.72-0.61,0.99c-0.3,0.27-0.67,0.41-1.11,0.42c-0.44,0.02-0.91-0.15-1.41-0.5
					c-1.1-0.85-2.3-1.47-3.6-1.86c-1.3-0.39-2.69-0.59-4.17-0.59c-2.42,0-4.46,0.51-6.14,1.53c-1.68,1.02-2.95,2.49-3.81,4.42
					c-0.86,1.93-1.29,4.29-1.29,7.08c0,2.76,0.43,5.12,1.29,7.08c0.86,1.96,2.13,3.45,3.81,4.47c1.68,1.02,3.73,1.53,6.14,1.53
					c1.47,0,2.88-0.2,4.21-0.61c1.33-0.41,2.56-1.04,3.69-1.88c0.5-0.35,0.96-0.5,1.39-0.47c0.42,0.03,0.78,0.16,1.06,0.4
					c0.28,0.24,0.48,0.55,0.59,0.94c0.11,0.39,0.1,0.79-0.02,1.2c-0.13,0.41-0.41,0.77-0.85,1.08c-1.29,1.1-2.82,1.92-4.59,2.47
					C196.53,826.13,194.67,826.41,192.72,826.41z"/>
				<path class="st0" d="M223.98,826.31c-0.72,0-1.27-0.19-1.65-0.56s-0.56-0.92-0.56-1.65v-19.2c0-0.72,0.19-1.26,0.56-1.62
					c0.38-0.36,0.89-0.54,1.55-0.54c0.66,0,1.17,0.18,1.53,0.54c0.36,0.36,0.54,0.9,0.54,1.62v3.62h-0.47
					c0.5-1.88,1.44-3.31,2.82-4.28c1.38-0.97,3.12-1.52,5.22-1.65c0.5-0.03,0.91,0.09,1.22,0.35c0.31,0.27,0.49,0.71,0.52,1.34
					c0.03,0.6-0.11,1.08-0.42,1.44c-0.31,0.36-0.8,0.57-1.46,0.63l-0.85,0.05c-2.07,0.22-3.66,0.89-4.78,2.02s-1.67,2.68-1.67,4.66
					v11.01c0,0.72-0.18,1.27-0.54,1.65C225.19,826.12,224.67,826.31,223.98,826.31z"/>
				<path class="st0" d="M261.73,826.41c-2.48,0-4.61-0.48-6.38-1.44c-1.77-0.96-3.15-2.32-4.12-4.09
					c-0.97-1.77-1.46-3.87-1.46-6.28c0-2.38,0.48-4.47,1.44-6.26c0.96-1.79,2.27-3.18,3.95-4.19c1.68-1,3.6-1.51,5.77-1.51
					c1.54,0,2.93,0.26,4.17,0.78c1.24,0.52,2.3,1.26,3.18,2.24c0.88,0.97,1.55,2.16,2,3.55c0.45,1.4,0.68,2.97,0.68,4.73
					c0,0.5-0.15,0.89-0.45,1.15c-0.3,0.27-0.73,0.4-1.29,0.4h-16.1v-2.73h15.01l-0.8,0.66c0-1.63-0.24-3.02-0.73-4.17
					c-0.49-1.15-1.19-2.02-2.12-2.61c-0.93-0.6-2.08-0.89-3.46-0.89c-1.51,0-2.79,0.35-3.86,1.06c-1.07,0.71-1.88,1.69-2.45,2.97
					c-0.56,1.27-0.85,2.74-0.85,4.4v0.28c0,2.82,0.67,4.96,2.02,6.4c1.35,1.44,3.29,2.17,5.84,2.17c1,0,2.03-0.13,3.08-0.38
					c1.05-0.25,2.06-0.71,3.04-1.37c0.47-0.28,0.9-0.42,1.29-0.4c0.39,0.02,0.71,0.14,0.96,0.38c0.25,0.24,0.41,0.52,0.47,0.85
					c0.06,0.33,0.02,0.68-0.14,1.06c-0.16,0.38-0.46,0.71-0.89,0.99c-1.04,0.72-2.27,1.28-3.69,1.67
					C264.42,826.21,263.04,826.41,261.73,826.41z"/>
				<path class="st0" d="M295.99,826.41c-1.57,0-2.99-0.31-4.26-0.94c-1.27-0.63-2.26-1.47-2.96-2.54
					c-0.71-1.07-1.06-2.26-1.06-3.58c0-1.69,0.42-3.03,1.27-4c0.85-0.97,2.27-1.67,4.28-2.09c2.01-0.42,4.71-0.63,8.1-0.63h2.21
					v2.73h-2.12c-2.42,0-4.32,0.11-5.72,0.33c-1.4,0.22-2.38,0.6-2.94,1.15c-0.56,0.55-0.85,1.31-0.85,2.28
					c0,1.22,0.43,2.23,1.29,3.01c0.86,0.78,2.05,1.18,3.55,1.18c1.19,0,2.24-0.29,3.15-0.87c0.91-0.58,1.63-1.37,2.17-2.35
					c0.53-0.99,0.8-2.13,0.8-3.41v-5.41c0-1.85-0.38-3.19-1.13-4.02c-0.75-0.83-2.02-1.25-3.81-1.25c-1.04,0-2.1,0.14-3.2,0.42
					c-1.1,0.28-2.24,0.72-3.44,1.32c-0.47,0.22-0.88,0.29-1.22,0.21c-0.35-0.08-0.62-0.27-0.82-0.56c-0.2-0.3-0.31-0.63-0.33-0.99
					c-0.02-0.36,0.06-0.71,0.24-1.06c0.17-0.34,0.48-0.6,0.92-0.75c1.38-0.69,2.75-1.18,4.12-1.48c1.37-0.3,2.64-0.45,3.84-0.45
					c2.04,0,3.72,0.32,5.04,0.96c1.32,0.64,2.31,1.63,2.97,2.96c0.66,1.33,0.99,3.04,0.99,5.11v12.43c0,0.72-0.17,1.27-0.52,1.65
					c-0.35,0.38-0.85,0.56-1.51,0.56c-0.63,0-1.12-0.19-1.48-0.56c-0.36-0.38-0.54-0.92-0.54-1.65v-3.34h0.42
					c-0.25,1.16-0.72,2.17-1.41,3.01c-0.69,0.85-1.55,1.5-2.57,1.95C298.43,826.18,297.28,826.41,295.99,826.41z"/>
				<path class="st0" d="M335.72,826.41c-1.85,0-3.4-0.33-4.64-0.99c-1.24-0.66-2.17-1.62-2.78-2.87c-0.61-1.25-0.92-2.79-0.92-4.61
					v-11.58h-3.01c-0.56,0-1-0.15-1.32-0.45c-0.31-0.3-0.47-0.7-0.47-1.2c0-0.53,0.16-0.94,0.47-1.22c0.31-0.28,0.75-0.42,1.32-0.42
					h3.01v-5.13c0-0.72,0.19-1.26,0.56-1.62c0.38-0.36,0.91-0.54,1.6-0.54c0.69,0,1.22,0.18,1.58,0.54c0.36,0.36,0.54,0.9,0.54,1.62
					v5.13h5.7c0.6,0,1.05,0.14,1.36,0.42c0.31,0.28,0.47,0.69,0.47,1.22c0,0.5-0.16,0.9-0.47,1.2c-0.31,0.3-0.77,0.45-1.36,0.45
					h-5.7v11.2c0,1.73,0.36,3.03,1.08,3.91c0.72,0.88,1.91,1.32,3.58,1.32c0.6,0,1.1-0.05,1.51-0.17c0.41-0.11,0.77-0.17,1.08-0.17
					c0.28-0.03,0.52,0.06,0.73,0.28c0.2,0.22,0.31,0.63,0.31,1.22c0,0.44-0.07,0.84-0.21,1.2s-0.42,0.6-0.82,0.73
					c-0.38,0.13-0.88,0.24-1.51,0.35C336.78,826.35,336.22,826.41,335.72,826.41z"/>
				<path class="st0" d="M365.84,826.41c-2.48,0-4.61-0.48-6.38-1.44c-1.77-0.96-3.15-2.32-4.12-4.09
					c-0.97-1.77-1.46-3.87-1.46-6.28c0-2.38,0.48-4.47,1.44-6.26c0.96-1.79,2.27-3.18,3.95-4.19c1.68-1,3.6-1.51,5.77-1.51
					c1.54,0,2.93,0.26,4.17,0.78c1.24,0.52,2.3,1.26,3.18,2.24c0.88,0.97,1.55,2.16,2,3.55c0.45,1.4,0.68,2.97,0.68,4.73
					c0,0.5-0.15,0.89-0.45,1.15c-0.3,0.27-0.73,0.4-1.29,0.4h-16.1v-2.73h15.01l-0.8,0.66c0-1.63-0.24-3.02-0.73-4.17
					c-0.49-1.15-1.19-2.02-2.12-2.61c-0.93-0.6-2.08-0.89-3.46-0.89c-1.51,0-2.79,0.35-3.86,1.06c-1.07,0.71-1.88,1.69-2.45,2.97
					c-0.56,1.27-0.85,2.74-0.85,4.4v0.28c0,2.82,0.67,4.96,2.02,6.4c1.35,1.44,3.29,2.17,5.84,2.17c1,0,2.03-0.13,3.08-0.38
					c1.05-0.25,2.06-0.71,3.04-1.37c0.47-0.28,0.9-0.42,1.29-0.4c0.39,0.02,0.71,0.14,0.96,0.38c0.25,0.24,0.41,0.52,0.47,0.85
					c0.06,0.33,0.02,0.68-0.14,1.06c-0.16,0.38-0.46,0.71-0.89,0.99c-1.04,0.72-2.27,1.28-3.69,1.67
					C368.53,826.21,367.16,826.41,365.84,826.41z"/>
				<path class="st0" d="M426.42,821.84c-1.54,0-2.95-0.37-4.24-1.11c-1.29-0.74-2.32-1.73-3.11-2.99
					c-0.78-1.25-1.18-2.67-1.18-4.24c0-1.44,0.37-2.8,1.11-4.07c0.74-1.27,1.75-2.31,3.04-3.11c1.29-0.8,2.75-1.2,4.38-1.2
					c1.51,0,2.91,0.36,4.21,1.08c1.3,0.72,2.35,1.72,3.13,2.99c0.78,1.27,1.18,2.71,1.18,4.31c0,1.54-0.38,2.93-1.15,4.19
					c-0.77,1.26-1.8,2.26-3.08,3.01C429.41,821.46,427.99,821.84,426.42,821.84z"/>
				<path class="st0" d="M482.24,825.98c-0.75,0-1.33-0.2-1.74-0.61c-0.41-0.41-0.61-0.99-0.61-1.74v-28.48
					c0-0.75,0.2-1.33,0.61-1.74c0.41-0.41,0.99-0.61,1.74-0.61h9.08c5.43,0,9.61,1.42,12.54,4.26c2.93,2.84,4.4,6.94,4.4,12.31
					c0,2.67-0.38,5.04-1.13,7.11s-1.85,3.8-3.29,5.2s-3.21,2.46-5.29,3.2c-2.09,0.74-4.5,1.11-7.23,1.11H482.24z M484.26,822.26
					h6.78c2.13,0,3.98-0.27,5.55-0.8c1.57-0.53,2.88-1.33,3.93-2.4c1.05-1.07,1.84-2.41,2.38-4.02c0.53-1.62,0.8-3.51,0.8-5.67
					c0-4.3-1.06-7.51-3.18-9.65c-2.12-2.13-5.28-3.2-9.48-3.2h-6.78V822.26z"/>
				<path class="st0" d="M537.5,826.41c-2.48,0-4.61-0.48-6.38-1.44c-1.77-0.96-3.15-2.32-4.12-4.09c-0.97-1.77-1.46-3.87-1.46-6.28
					c0-2.38,0.48-4.47,1.44-6.26c0.96-1.79,2.27-3.18,3.95-4.19c1.68-1,3.6-1.51,5.77-1.51c1.54,0,2.93,0.26,4.17,0.78
					s2.3,1.26,3.18,2.24c0.88,0.97,1.55,2.16,2,3.55c0.45,1.4,0.68,2.97,0.68,4.73c0,0.5-0.15,0.89-0.45,1.15
					c-0.3,0.27-0.73,0.4-1.29,0.4h-16.1v-2.73h15.02l-0.8,0.66c0-1.63-0.24-3.02-0.73-4.17s-1.19-2.02-2.12-2.61
					s-2.08-0.89-3.46-0.89c-1.51,0-2.79,0.35-3.86,1.06c-1.07,0.71-1.88,1.69-2.45,2.97c-0.56,1.27-0.85,2.74-0.85,4.4v0.28
					c0,2.82,0.67,4.96,2.02,6.4c1.35,1.44,3.29,2.17,5.84,2.17c1,0,2.03-0.13,3.08-0.38c1.05-0.25,2.06-0.71,3.04-1.37
					c0.47-0.28,0.9-0.42,1.29-0.4c0.39,0.02,0.71,0.14,0.96,0.38s0.41,0.52,0.47,0.85c0.06,0.33,0.02,0.68-0.14,1.06
					c-0.16,0.38-0.46,0.71-0.89,0.99c-1.04,0.72-2.27,1.28-3.7,1.67C540.19,826.21,538.81,826.41,537.5,826.41z"/>
				<path class="st0" d="M572.37,826.41c-1.41,0-2.83-0.17-4.26-0.49c-1.43-0.33-2.77-0.9-4.02-1.72c-0.35-0.22-0.59-0.49-0.73-0.82
					c-0.14-0.33-0.19-0.66-0.14-0.99c0.05-0.33,0.18-0.62,0.4-0.87c0.22-0.25,0.49-0.4,0.82-0.45c0.33-0.05,0.68,0.04,1.06,0.26
					c1.22,0.69,2.41,1.18,3.55,1.46c1.14,0.28,2.28,0.42,3.41,0.42c1.73,0,3.03-0.31,3.91-0.94c0.88-0.63,1.32-1.46,1.32-2.49
					c0-0.88-0.29-1.56-0.87-2.05c-0.58-0.49-1.48-0.85-2.71-1.11l-4.38-0.89c-1.95-0.44-3.41-1.17-4.4-2.19s-1.48-2.33-1.48-3.93
					c0-1.41,0.38-2.64,1.15-3.7c0.77-1.05,1.84-1.86,3.22-2.42c1.38-0.56,2.97-0.85,4.75-0.85c1.38,0,2.69,0.18,3.93,0.54
					c1.24,0.36,2.36,0.9,3.37,1.62c0.38,0.22,0.62,0.49,0.73,0.82c0.11,0.33,0.13,0.66,0.05,0.99c-0.08,0.33-0.23,0.61-0.45,0.82
					c-0.22,0.22-0.5,0.35-0.85,0.4c-0.35,0.05-0.72-0.04-1.13-0.26c-0.91-0.63-1.84-1.08-2.8-1.34s-1.91-0.4-2.85-0.4
					c-1.69,0-2.97,0.33-3.84,0.99c-0.86,0.66-1.29,1.52-1.29,2.59c0,0.82,0.26,1.49,0.78,2.02c0.52,0.53,1.34,0.93,2.47,1.18
					l4.38,0.89c2.04,0.44,3.58,1.14,4.61,2.09c1.04,0.96,1.55,2.25,1.55,3.88c0,2.13-0.84,3.82-2.52,5.06
					C577.45,825.79,575.2,826.41,572.37,826.41z"/>
				<path class="st0" d="M601.74,797.74c-0.85,0-1.51-0.23-2-0.68c-0.49-0.45-0.73-1.06-0.73-1.81c0-0.82,0.24-1.44,0.73-1.86
					c0.49-0.42,1.15-0.64,2-0.64c0.91,0,1.59,0.21,2.05,0.64c0.45,0.42,0.68,1.04,0.68,1.86c0,0.75-0.23,1.36-0.68,1.81
					C603.34,797.51,602.65,797.74,601.74,797.74z M601.74,826.22c-0.66,0-1.18-0.2-1.55-0.61c-0.38-0.41-0.57-0.97-0.57-1.69v-18.78
					c0-0.75,0.19-1.33,0.57-1.72c0.38-0.39,0.89-0.59,1.55-0.59c0.69,0,1.22,0.2,1.6,0.59c0.38,0.39,0.56,0.96,0.56,1.72v18.78
					c0,0.72-0.18,1.29-0.54,1.69C603.01,826.01,602.47,826.22,601.74,826.22z"/>
				<path class="st0" d="M633.52,834.88c-1.69,0-3.33-0.19-4.92-0.56c-1.58-0.38-3.02-0.96-4.31-1.74
					c-0.41-0.25-0.68-0.54-0.82-0.87c-0.14-0.33-0.17-0.67-0.09-1.01c0.08-0.35,0.24-0.65,0.47-0.92s0.52-0.44,0.85-0.52
					c0.33-0.08,0.67-0.01,1.01,0.21c1.38,0.78,2.7,1.32,3.95,1.6c1.25,0.28,2.45,0.42,3.58,0.42c2.23,0,3.9-0.57,5.01-1.72
					c1.11-1.15,1.67-2.82,1.67-5.01v-5.08h0.42c-0.44,1.76-1.42,3.15-2.94,4.19c-1.52,1.04-3.29,1.55-5.29,1.55
					c-2.07,0-3.88-0.48-5.41-1.44c-1.54-0.96-2.73-2.29-3.58-4c-0.85-1.71-1.27-3.7-1.27-5.95c0-1.73,0.24-3.29,0.73-4.68
					c0.49-1.4,1.18-2.59,2.07-3.58c0.89-0.99,1.97-1.76,3.22-2.31c1.25-0.55,2.67-0.82,4.24-0.82c2.04,0,3.81,0.52,5.32,1.55
					c1.51,1.04,2.48,2.43,2.92,4.19l-0.52,0.66v-4.14c0-0.72,0.19-1.26,0.57-1.62c0.38-0.36,0.91-0.54,1.6-0.54
					c0.66,0,1.18,0.18,1.55,0.54c0.38,0.36,0.56,0.9,0.56,1.62v19.3c0,3.55-0.9,6.21-2.71,8
					C639.59,833.98,636.97,834.88,633.52,834.88z M633.04,822.03c1.41,0,2.63-0.32,3.65-0.96c1.02-0.64,1.8-1.57,2.35-2.78
					s0.82-2.63,0.82-4.26c0-2.48-0.61-4.43-1.84-5.86c-1.22-1.43-2.89-2.14-4.99-2.14c-1.41,0-2.63,0.32-3.65,0.96
					c-1.02,0.64-1.81,1.56-2.38,2.75c-0.57,1.19-0.85,2.62-0.85,4.28c0,2.45,0.62,4.39,1.86,5.84
					C629.27,821.31,630.94,822.03,633.04,822.03z"/>
				<path class="st0" d="M665.52,826.31c-0.66,0-1.18-0.19-1.55-0.56c-0.38-0.38-0.57-0.92-0.57-1.65v-19.2
					c0-0.72,0.19-1.26,0.57-1.62c0.38-0.36,0.89-0.54,1.55-0.54c0.66,0,1.17,0.18,1.53,0.54c0.36,0.36,0.54,0.9,0.54,1.62v3.86
					l-0.52-0.71c0.66-1.79,1.73-3.14,3.22-4.05c1.49-0.91,3.19-1.36,5.11-1.36c1.85,0,3.37,0.33,4.57,0.99s2.09,1.66,2.68,3.01
					c0.6,1.35,0.89,3.06,0.89,5.13v12.33c0,0.72-0.18,1.27-0.54,1.65c-0.36,0.38-0.89,0.56-1.58,0.56s-1.22-0.19-1.6-0.56
					c-0.38-0.38-0.57-0.92-0.57-1.65V812c0-2.04-0.39-3.53-1.18-4.47s-2.04-1.41-3.77-1.41c-2.01,0-3.62,0.62-4.82,1.86
					c-1.21,1.24-1.81,2.91-1.81,5.01v11.11C667.69,825.57,666.96,826.31,665.52,826.31z"/>
				<path class="st0" d="M736.36,821.84c-1.54,0-2.95-0.37-4.24-1.11c-1.29-0.74-2.32-1.73-3.11-2.99
					c-0.79-1.25-1.18-2.67-1.18-4.24c0-1.44,0.37-2.8,1.11-4.07c0.74-1.27,1.75-2.31,3.04-3.11c1.29-0.8,2.75-1.2,4.38-1.2
					c1.51,0,2.91,0.36,4.21,1.08c1.3,0.72,2.34,1.72,3.13,2.99c0.78,1.27,1.18,2.71,1.18,4.31c0,1.54-0.38,2.93-1.15,4.19
					c-0.77,1.26-1.8,2.26-3.08,3.01C739.35,821.46,737.93,821.84,736.36,821.84z"/>
				<path class="st0" d="M792.18,825.98c-0.75,0-1.33-0.2-1.74-0.61c-0.41-0.41-0.61-0.99-0.61-1.74v-28.48
					c0-0.75,0.2-1.33,0.61-1.74c0.41-0.41,0.99-0.61,1.74-0.61h11.16c2.29,0,4.24,0.35,5.86,1.04s2.85,1.68,3.7,2.96
					c0.85,1.29,1.27,2.84,1.27,4.66c0,2.04-0.6,3.75-1.79,5.13c-1.19,1.38-2.82,2.31-4.9,2.78v-0.71c2.32,0.28,4.15,1.14,5.48,2.57
					s2,3.29,2,5.58c0,2.95-0.96,5.22-2.9,6.8c-1.93,1.58-4.65,2.38-8.17,2.38H792.18z M794.06,807.44h8.61
					c2.38,0,4.18-0.48,5.39-1.44c1.21-0.96,1.81-2.35,1.81-4.17c0-1.82-0.6-3.21-1.81-4.17c-1.21-0.96-3.01-1.44-5.39-1.44h-8.61
					V807.44z M794.06,822.55h9.37c2.45,0,4.27-0.48,5.46-1.44c1.19-0.96,1.79-2.42,1.79-4.4s-0.6-3.44-1.79-4.38
					s-3.01-1.41-5.46-1.41h-9.37V822.55z"/>
				<path class="st0" d="M841.84,826.41c-1.85,0-3.4-0.35-4.64-1.04c-1.24-0.69-2.16-1.71-2.75-3.06c-0.6-1.35-0.89-3.04-0.89-5.08
					v-12.33c0-0.72,0.18-1.26,0.54-1.62c0.36-0.36,0.89-0.54,1.58-0.54c0.69,0,1.22,0.18,1.6,0.54c0.38,0.36,0.56,0.9,0.56,1.62
					v12.33c0,1.95,0.39,3.38,1.18,4.31c0.78,0.93,2.02,1.39,3.72,1.39c1.88,0,3.41-0.63,4.59-1.88c1.18-1.25,1.76-2.92,1.76-4.99
					v-11.16c0-0.72,0.18-1.26,0.54-1.62c0.36-0.36,0.89-0.54,1.58-0.54s1.22,0.18,1.6,0.54c0.38,0.36,0.56,0.9,0.56,1.62v19.2
					c0,1.48-0.69,2.21-2.07,2.21c-0.69,0-1.22-0.19-1.58-0.56c-0.36-0.38-0.54-0.92-0.54-1.65V820l0.61,0.8
					c-0.63,1.82-1.64,3.21-3.04,4.17C845.36,825.93,843.72,826.41,841.84,826.41z"/>
				<path class="st0" d="M874.78,797.74c-0.85,0-1.51-0.23-2-0.68c-0.49-0.45-0.73-1.06-0.73-1.81c0-0.82,0.24-1.44,0.73-1.86
					c0.49-0.42,1.15-0.64,2-0.64c0.91,0,1.59,0.21,2.05,0.64c0.45,0.42,0.68,1.04,0.68,1.86c0,0.75-0.23,1.36-0.68,1.81
					C876.38,797.51,875.69,797.74,874.78,797.74z M874.78,826.22c-0.66,0-1.18-0.2-1.55-0.61c-0.38-0.41-0.57-0.97-0.57-1.69v-18.78
					c0-0.75,0.19-1.33,0.57-1.72c0.38-0.39,0.89-0.59,1.55-0.59c0.69,0,1.22,0.2,1.6,0.59c0.38,0.39,0.56,0.96,0.56,1.72v18.78
					c0,0.72-0.18,1.29-0.54,1.69C876.05,826.01,875.51,826.22,874.78,826.22z"/>
				<path class="st0" d="M903.45,826.41c-2.35,0-4.14-0.7-5.37-2.09c-1.22-1.4-1.84-3.41-1.84-6.05v-23.63
					c0-0.72,0.19-1.26,0.57-1.62c0.38-0.36,0.89-0.54,1.55-0.54c0.69,0,1.22,0.18,1.6,0.54c0.38,0.36,0.56,0.9,0.56,1.62v23.3
					c0,1.63,0.34,2.85,1.01,3.65c0.67,0.8,1.64,1.2,2.89,1.2c0.28,0,0.53-0.01,0.75-0.02c0.22-0.01,0.44-0.04,0.66-0.07
					c0.34-0.03,0.6,0.06,0.75,0.28c0.16,0.22,0.24,0.66,0.24,1.32c0,0.6-0.13,1.06-0.4,1.39c-0.27,0.33-0.7,0.54-1.29,0.63
					c-0.28,0.03-0.56,0.05-0.85,0.07C904.01,826.4,903.73,826.41,903.45,826.41z"/>
				<path class="st0" d="M931.36,826.41c-2.01,0-3.77-0.48-5.29-1.44c-1.52-0.96-2.71-2.34-3.55-4.14c-0.85-1.8-1.27-3.91-1.27-6.33
					c0-2.45,0.42-4.56,1.25-6.33c0.83-1.77,2.01-3.14,3.53-4.09c1.52-0.96,3.3-1.44,5.34-1.44s3.8,0.51,5.27,1.53
					c1.47,1.02,2.46,2.38,2.96,4.07h-0.52v-13.6c0-0.72,0.18-1.26,0.54-1.62c0.36-0.36,0.89-0.54,1.58-0.54
					c0.69,0,1.22,0.18,1.6,0.54c0.38,0.36,0.57,0.9,0.57,1.62v29.46c0,0.72-0.19,1.27-0.57,1.65c-0.38,0.38-0.91,0.56-1.6,0.56
					c-0.66,0-1.18-0.19-1.55-0.56c-0.38-0.38-0.56-0.92-0.56-1.65v-4.28l0.52,0.85c-0.47,1.76-1.45,3.15-2.94,4.19
					C935.17,825.89,933.4,826.41,931.36,826.41z M932.35,823.02c1.38,0,2.58-0.33,3.6-0.99c1.02-0.66,1.8-1.62,2.35-2.87
					c0.55-1.25,0.82-2.81,0.82-4.66c0-2.76-0.61-4.86-1.84-6.31c-1.22-1.44-2.87-2.17-4.94-2.17c-1.35,0-2.53,0.32-3.55,0.96
					c-1.02,0.64-1.81,1.59-2.38,2.85c-0.57,1.26-0.85,2.81-0.85,4.66c0,2.76,0.62,4.87,1.86,6.33
					C928.67,822.29,930.31,823.02,932.35,823.02z"/>
			</g>
		</g>
	</g>
</g>
<g id="Layer_1" class="st1">
	<path class="st2" d="M540.51,1080.85L540.51,1080.85c-298.23,0-540-241.77-540-540v0c0-298.23,241.77-540,540-540h0
		c298.23,0,540,241.77,540,540v0C1080.51,839.08,838.74,1080.85,540.51,1080.85z"/>
	<g class="st3">
		<rect x="16.27" y="503.99" class="st0" width="54.64" height="54.64"/>
		<rect x="16.27" y="564.81" class="st4" width="54.64" height="54.64"/>
		<rect x="16.27" y="627.7" class="st5" width="54.64" height="54.64"/>
		<rect x="16.27" y="689.55" class="st6" width="54.64" height="54.64"/>
		<rect x="16.27" y="753.47" class="st7" width="54.64" height="54.64"/>
	</g>
</g>
</svg>
