<?xml version="1.0" encoding="utf-8"?>
<!-- Generator: Adobe Illustrator 24.1.3, SVG Export Plug-In . SVG Version: 6.00 Build 0)  -->
<svg version="1.1" id="Layer_1" xmlns="http://www.w3.org/2000/svg" xmlns:xlink="http://www.w3.org/1999/xlink" x="0px" y="0px"
	 viewBox="0 0 1080 1080" style="enable-background:new 0 0 1080 1080;" xml:space="preserve">
<style type="text/css">
	.st0{fill:#FFFFFF;}
	.st1{display:none;}
	.st2{display:inline;fill:#FFFFFF;}
	.st3{display:inline;opacity:0.47;fill:#231F20;stroke:#231F20;stroke-miterlimit:10;enable-background:new    ;}
	.st4{display:inline;}
	.st5{fill:#553F2F;}
	.st6{fill:#C8AF9E;}
	.st7{fill:#F1E3D3;}
	.st8{fill:#F1E8D9;}
	.st9{fill:#94A4B5;}
</style>
<g id="Layer_2_1_">
	<g>
		<g>
			<path class="st0" d="M992.4,165.5L814.4,293c-3,2.1-7.2,0.3-7.6-3.4l-4.2-34.4c-0.8-7-8.9-10.6-14.7-6.5l-32.8,23.4
				c-1.9,1.4-0.2,4.3,1.9,3.3l28.2-12.7c3-1.4,6.4,0.9,6.3,4.1l-0.3,32c1.1,11.8,14.5,18.1,24.3,11.5l184.4-125.9
				c3.7-2.4,8.3,1.4,6.6,5.5l-155,373.7c-10.1,24.4-23.2,47.5-38.8,68.7c-7.3,9.9-18.4,14.9-29.6,14.9c-10.5,0-21.1-4.5-28.5-13.5
				l-25.4-31.2c-11-9.6-27.9-7.1-35.6,5.3c-0.7,1.1-1.8,1.7-3,1.7c-1.5,0-2.9-0.9-3.4-2.5l-63.5-207.6c-4-13.2-10.5-25.5-19.1-36.3
				l-0.7-0.9c-16-20.2-48.4-9.7-49.6,15.9c-0.5,11-1,20.6-1.2,26.6c-0.1,2.9-3.4,4.4-5.7,2.8l-16-11.5
				c-39.6-28.4-94.1,3.7-88.4,52.1l0.1,1c1,8.6,3.7,16.6,7.8,23.9c9.3,16.1,26.3,45.8,34.3,59.7c1.5,2.6-1,5.7-3.9,4.7L430,519.5
				c-17.4-6-36.7-3.1-51.5,7.9l-107.7,79.5c-6.8,5-16-1.6-13.5-9.6l51.9-167.4c4.1-13.3-1.5-27.7-13.5-34.7l-162.9-95.1
				c-10.4-6.1-23.4,2.1-22.4,14.1l32.8,404c0.3,3.5,3.2,6.3,6.8,6.3c3.8,0,6.8-3.1,6.8-6.8l-0.9-177.9c0-8.8,8.7-15.1,17-12.1
				l37.3,13.1c2.6,0.9,4.3-2.6,2.1-4.1l-48.5-33.4c-12.1-8.3-19.9-21.5-21.3-36.1l-12.8-133.2c-0.5-4.8,4.7-8.2,8.9-5.9l137.2,75.5
				c11.9,6.5,17.3,20.8,12.7,33.5l-75.8,210.3c-4.8,13.3,10.9,24.6,22,15.7L382,544.9c14.2-11.4,33.7-13.8,50.2-6.2l91.4,42
				c28.5,13.1,62-2.3,70.6-32.5c2.3-8,3.4-16.2,3.4-24.4c0-13-2.8-26-8.5-37.9c-4.7-10-9.8-20.8-13.9-29.5
				c-5.4-11.4-7.7-24-6.7-36.7l1.9-23.7c0.9-11,13.5-16.9,22.5-10.3c4.3,3.1,7.9,6.9,10.9,11.2c3,4.3,5.2,9,6.7,14.1
				c15.1,53.3,63.5,224.2,63.5,224.2c2.6,9.2,14.6,11.7,20.6,4.2l11.9-16.5c2.8-3.8,8.4-3.8,11.1,0.1l18.7,26.8
				c22.7,32.4,71.2,31,91.8-2.8l4.8-7.8c12.6-20.7,23.7-42.3,33.1-64.6l160.8-381C1035.6,172.5,1011.5,152.6,992.4,165.5z
				 M543.9,519.3c-1.4,5.3-3.2,10.5-5.5,15.6c-4.9,10.9-19.3,13.3-27.5,4.6l-6.6-7.1l-2.8-3.2c-13.8-16.1-25.1-34.1-33.7-53.5
				l-9.9-22.5L457,449c-5.8-27.8,16.1-51.8,42-51.8c5.1,0,10.4,0.9,15.6,3c0.2,0.1,0.4,0.1,0.6,0.2c6.7,2.9,12.4,7.5,16.8,13.2
				l11.8,15.3c4.8,6.2,7.6,13.8,7.5,21.7c0,0.7,0,1.5-0.1,2.2l-4.5,50.2C546.2,508.5,545.2,514,543.9,519.3z M581.5,526.2
				c1,3.3,1.5,6.7,1.5,10c0,17.3-13.7,32.6-32.2,33.1c-1.1,0-1.9-1-1.7-2.1l7.5-28.1c1.6-6,2.7-12.1,3.3-18.3l4-42.5
				c0.1-1.5,2.3-1.6,2.6-0.1L581.5,526.2z"/>
			<g class="st1">
				<path class="st2" d="M118.4,854.2c-1.8,0-3.4-0.1-5.1-0.4c-1.6-0.3-3.2-0.7-4.6-1.3c-1.4-0.6-2.8-1.3-3.9-2.1
					c-0.5-0.3-0.8-0.8-1-1.2c-0.2-0.5-0.3-1-0.2-1.4c0.1-0.5,0.3-0.9,0.6-1.2c0.3-0.3,0.7-0.5,1.2-0.6c0.4-0.1,0.9,0.1,1.4,0.5
					c1.7,1.2,3.5,2,5.4,2.5s4,0.8,6.2,0.8c3.3,0,5.7-0.6,7.2-1.8s2.3-2.8,2.3-4.7c0-1.6-0.6-2.9-1.7-3.8c-1.1-0.9-3-1.6-5.6-2.2
					l-5.9-1.2c-3.5-0.8-6.1-2-7.8-3.7c-1.7-1.7-2.6-4-2.6-6.9c0-1.8,0.3-3.3,1.1-4.8c0.7-1.4,1.7-2.7,3-3.7c1.3-1,2.8-1.8,4.6-2.4
					c1.8-0.6,3.7-0.8,5.9-0.8c2.3,0,4.5,0.3,6.5,1s3.9,1.6,5.5,2.8c0.4,0.3,0.7,0.7,0.9,1.2c0.1,0.5,0.2,0.9,0.1,1.4
					c-0.1,0.5-0.3,0.8-0.6,1.1c-0.3,0.3-0.7,0.5-1.2,0.5c-0.5,0-1-0.1-1.5-0.5c-1.5-1-3-1.8-4.6-2.3c-1.6-0.5-3.3-0.7-5.1-0.7
					c-1.9,0-3.6,0.3-4.9,0.9c-1.4,0.6-2.5,1.4-3.2,2.5c-0.8,1.1-1.2,2.3-1.2,3.7c0,1.7,0.5,3,1.6,4c1,1,2.8,1.7,5.3,2.2l5.9,1.2
					c3.7,0.8,6.5,2,8.3,3.6s2.7,3.8,2.7,6.5c0,1.7-0.3,3.3-1,4.6s-1.7,2.6-2.9,3.5c-1.3,1-2.8,1.8-4.6,2.3
					C122.7,854,120.7,854.2,118.4,854.2z"/>
				<path class="st2" d="M152.7,854.1c-0.8,0-1.4-0.2-1.8-0.7c-0.4-0.5-0.7-1.1-0.7-2v-35c0-0.9,0.2-1.5,0.7-1.9s1.1-0.6,1.8-0.6
					c0.8,0,1.4,0.2,1.9,0.6s0.7,1.1,0.7,1.9v15.9h-0.7c0.8-2.1,2.1-3.7,3.8-4.8s3.8-1.6,6.1-1.6c2.2,0,4,0.4,5.4,1.2s2.5,2,3.2,3.6
					c0.7,1.6,1.1,3.6,1.1,6v14.6c0,0.9-0.2,1.5-0.6,2s-1.1,0.7-1.9,0.7c-0.8,0-1.4-0.2-1.9-0.7s-0.7-1.1-0.7-2v-14.4
					c0-2.4-0.5-4.2-1.4-5.3s-2.4-1.7-4.5-1.7c-2.4,0-4.3,0.7-5.7,2.2c-1.4,1.5-2.1,3.5-2.1,6v13.2
					C155.3,853.3,154.4,854.1,152.7,854.1z"/>
				<path class="st2" d="M201.6,854.2c-1.9,0-3.6-0.4-5.1-1.1s-2.7-1.8-3.5-3c-0.8-1.3-1.3-2.7-1.3-4.3c0-2,0.5-3.6,1.5-4.8
					c1-1.2,2.7-2,5.1-2.5c2.4-0.5,5.6-0.8,9.6-0.8h2.6v3.2h-2.5c-2.9,0-5.1,0.1-6.8,0.4c-1.7,0.3-2.8,0.7-3.5,1.4s-1,1.6-1,2.7
					c0,1.5,0.5,2.7,1.5,3.6c1,0.9,2.4,1.4,4.2,1.4c1.4,0,2.7-0.3,3.7-1s1.9-1.6,2.6-2.8s0.9-2.5,0.9-4v-6.4c0-2.2-0.4-3.8-1.3-4.8
					c-0.9-1-2.4-1.5-4.5-1.5c-1.2,0-2.5,0.2-3.8,0.5s-2.7,0.9-4.1,1.6c-0.6,0.3-1,0.3-1.4,0.3s-0.7-0.3-1-0.7
					c-0.2-0.3-0.4-0.8-0.4-1.2c0-0.4,0.1-0.8,0.3-1.3c0.2-0.4,0.6-0.7,1.1-0.9c1.6-0.8,3.3-1.4,4.9-1.8c1.6-0.3,3.1-0.5,4.6-0.5
					c2.4,0,4.4,0.4,6,1.2s2.7,1.9,3.5,3.5s1.2,3.6,1.2,6.1v14.8c0,0.9-0.2,1.5-0.6,2c-0.4,0.5-1,0.7-1.8,0.7c-0.8,0-1.3-0.2-1.8-0.7
					s-0.6-1.1-0.6-2v-4h0.5c-0.3,1.4-0.9,2.6-1.7,3.6c-0.8,1-1.8,1.8-3,2.3C204.5,854,203.2,854.2,201.6,854.2z"/>
				<path class="st2" d="M236.1,864.2c-0.8,0-1.4-0.2-1.8-0.7c-0.4-0.5-0.7-1.1-0.7-1.9v-32.9c0-0.9,0.2-1.5,0.7-1.9
					s1.1-0.6,1.8-0.6c0.8,0,1.4,0.2,1.9,0.6s0.6,1.1,0.6,1.9v5.1l-0.6-1c0.6-2,1.8-3.7,3.5-4.9s3.9-1.8,6.3-1.8
					c2.4,0,4.5,0.6,6.3,1.7c1.8,1.1,3.2,2.8,4.2,4.9s1.5,4.6,1.5,7.5c0,2.9-0.5,5.4-1.5,7.5c-1,2.1-2.4,3.8-4.2,4.9
					c-1.8,1.1-3.9,1.7-6.3,1.7s-4.5-0.6-6.3-1.8c-1.8-1.2-2.9-2.8-3.5-4.9h0.6v14.1c0,0.8-0.2,1.5-0.7,1.9
					C237.6,864,236.9,864.2,236.1,864.2z M246.7,850.2c1.6,0,3-0.4,4.2-1.2c1.2-0.8,2.1-1.9,2.8-3.4s1-3.3,1-5.5
					c0-3.3-0.7-5.8-2.2-7.5s-3.4-2.6-5.9-2.6c-1.6,0-3.1,0.4-4.3,1.2c-1.2,0.8-2.1,1.9-2.8,3.4s-1,3.3-1,5.5c0,3.3,0.7,5.8,2.2,7.5
					C242.3,849.3,244.2,850.2,246.7,850.2z"/>
				<path class="st2" d="M279.7,820.2c-1,0-1.8-0.3-2.4-0.8c-0.6-0.5-0.9-1.3-0.9-2.2c0-1,0.3-1.7,0.9-2.2c0.6-0.5,1.4-0.8,2.4-0.8
					c1.1,0,1.9,0.3,2.4,0.8c0.5,0.5,0.8,1.2,0.8,2.2c0,0.9-0.3,1.6-0.8,2.2C281.6,819.9,280.8,820.2,279.7,820.2z M279.7,854
					c-0.8,0-1.4-0.2-1.8-0.7c-0.5-0.5-0.7-1.2-0.7-2V829c0-0.9,0.2-1.6,0.7-2s1.1-0.7,1.8-0.7c0.8,0,1.5,0.2,1.9,0.7
					c0.5,0.5,0.7,1.2,0.7,2v22.3c0,0.9-0.2,1.5-0.6,2C281.2,853.8,280.6,854,279.7,854z"/>
				<path class="st2" d="M303.8,854.1c-0.8,0-1.4-0.2-1.8-0.7c-0.5-0.5-0.7-1.1-0.7-2v-22.8c0-0.9,0.2-1.5,0.7-1.9s1.1-0.6,1.8-0.6
					s1.4,0.2,1.8,0.6s0.6,1.1,0.6,1.9v4.6l-0.6-0.8c0.8-2.1,2.1-3.7,3.8-4.8s3.8-1.6,6.1-1.6c2.2,0,4,0.4,5.4,1.2
					c1.4,0.8,2.5,2,3.2,3.6c0.7,1.6,1.1,3.6,1.1,6.1v14.6c0,0.9-0.2,1.5-0.6,2c-0.4,0.5-1,0.7-1.9,0.7s-1.5-0.2-1.9-0.7
					s-0.7-1.1-0.7-2v-14.4c0-2.4-0.5-4.2-1.4-5.3s-2.4-1.7-4.5-1.7c-2.4,0-4.3,0.7-5.7,2.2c-1.4,1.5-2.1,3.5-2.1,6v13.2
					C306.4,853.3,305.5,854.1,303.8,854.1z"/>
				<path class="st2" d="M356.3,864.3c-2,0-4-0.2-5.8-0.7s-3.6-1.1-5.1-2.1c-0.5-0.3-0.8-0.6-1-1s-0.2-0.8-0.1-1.2
					c0.1-0.4,0.3-0.8,0.6-1.1s0.6-0.5,1-0.6c0.4-0.1,0.8,0,1.2,0.3c1.6,0.9,3.2,1.6,4.7,1.9c1.5,0.3,2.9,0.5,4.3,0.5
					c2.6,0,4.6-0.7,6-2s2-3.3,2-6v-6h0.5c-0.5,2.1-1.7,3.7-3.5,5c-1.8,1.2-3.9,1.8-6.3,1.8c-2.5,0-4.6-0.6-6.4-1.7
					c-1.8-1.1-3.2-2.7-4.3-4.8s-1.5-4.4-1.5-7.1c0-2,0.3-3.9,0.9-5.6s1.4-3.1,2.5-4.3c1.1-1.2,2.3-2.1,3.8-2.7c1.5-0.7,3.2-1,5-1
					c2.4,0,4.5,0.6,6.3,1.8c1.8,1.2,2.9,2.9,3.5,5l-0.6,0.8v-4.9c0-0.9,0.2-1.5,0.7-1.9s1.1-0.6,1.9-0.6c0.8,0,1.4,0.2,1.8,0.6
					c0.5,0.4,0.7,1.1,0.7,1.9v22.9c0,4.2-1.1,7.4-3.2,9.5C363.5,863.2,360.4,864.3,356.3,864.3z M355.8,849c1.7,0,3.1-0.4,4.3-1.1
					s2.1-1.9,2.8-3.3c0.6-1.4,1-3.1,1-5.1c0-2.9-0.7-5.3-2.2-7c-1.5-1.7-3.4-2.5-5.9-2.5c-1.7,0-3.1,0.4-4.3,1.2
					c-1.2,0.8-2.1,1.8-2.8,3.3c-0.7,1.4-1,3.1-1,5.1c0,2.9,0.7,5.2,2.2,6.9C351.3,848.2,353.3,849,355.8,849z"/>
				<path class="st2" d="M416.6,854.1c-0.8,0-1.5-0.2-1.9-0.7c-0.5-0.5-0.7-1.1-0.7-2v-34.8c0-0.9,0.2-1.6,0.7-2s1.1-0.7,1.9-0.7
					c0.9,0,1.5,0.2,2,0.7c0.5,0.5,0.7,1.1,0.7,2v34.8c0,0.9-0.2,1.5-0.6,2C418.1,853.9,417.5,854.1,416.6,854.1z"/>
				<path class="st2" d="M449.2,854.2c-2.4,0-4.5-0.6-6.3-1.7c-1.8-1.1-3.2-2.8-4.2-4.9c-1-2.1-1.5-4.7-1.5-7.5
					c0-2.9,0.5-5.4,1.5-7.5c1-2.1,2.4-3.7,4.2-4.9s3.9-1.7,6.3-1.7c2.4,0,4.5,0.6,6.3,1.8s2.9,2.8,3.5,4.8h-0.6v-16.2
					c0-0.9,0.2-1.5,0.6-1.9c0.4-0.4,1-0.6,1.9-0.6s1.5,0.2,1.9,0.6c0.5,0.4,0.7,1.1,0.7,1.9v35c0,0.9-0.2,1.5-0.7,2
					s-1.1,0.7-1.9,0.7c-0.8,0-1.4-0.2-1.8-0.7c-0.5-0.5-0.7-1.1-0.7-2v-5.1l0.6,1c-0.6,2.1-1.7,3.7-3.5,5
					C453.7,853.6,451.6,854.2,449.2,854.2z M450.4,850.2c1.6,0,3.1-0.4,4.3-1.2c1.2-0.8,2.1-1.9,2.8-3.4s1-3.3,1-5.5
					c0-3.3-0.7-5.8-2.2-7.5c-1.5-1.7-3.4-2.6-5.9-2.6c-1.6,0-3,0.4-4.2,1.2c-1.2,0.8-2.1,1.9-2.8,3.4s-1,3.3-1,5.5
					c0,3.3,0.7,5.8,2.2,7.5C446,849.3,447.9,850.2,450.4,850.2z"/>
				<path class="st2" d="M495,854.2c-2.9,0-5.5-0.6-7.6-1.7c-2.1-1.1-3.7-2.8-4.9-4.9c-1.1-2.1-1.7-4.6-1.7-7.5
					c0-2.8,0.6-5.3,1.7-7.4c1.1-2.1,2.7-3.8,4.7-5c2-1.2,4.3-1.8,6.8-1.8c1.8,0,3.5,0.3,4.9,0.9s2.7,1.5,3.8,2.7
					c1,1.2,1.8,2.6,2.4,4.2s0.8,3.5,0.8,5.6c0,0.6-0.2,1-0.5,1.4s-0.9,0.5-1.5,0.5h-19.1V838h17.8l-1,0.8c0-1.9-0.3-3.6-0.9-4.9
					s-1.4-2.4-2.5-3.1c-1.1-0.7-2.5-1.1-4.1-1.1c-1.8,0-3.3,0.4-4.6,1.3c-1.3,0.8-2.2,2-2.9,3.5c-0.7,1.5-1,3.3-1,5.2v0.3
					c0,3.3,0.8,5.9,2.4,7.6c1.6,1.7,3.9,2.6,6.9,2.6c1.2,0,2.4-0.2,3.7-0.5s2.5-0.8,3.6-1.6c0.6-0.3,1.1-0.5,1.5-0.5
					s0.9,0.2,1.1,0.5s0.5,0.6,0.6,1c0.1,0.4,0,0.8-0.2,1.3s-0.5,0.8-1.1,1.2c-1.2,0.9-2.7,1.5-4.4,2
					C498.2,854,496.6,854.2,495,854.2z"/>
				<path class="st2" d="M531.8,854.2c-1.9,0-3.5-0.4-5.1-1.1s-2.7-1.8-3.5-3s-1.3-2.7-1.3-4.3c0-2,0.5-3.6,1.5-4.8
					c1-1.2,2.7-2,5.1-2.5c2.4-0.5,5.6-0.8,9.6-0.8h2.6v3.2h-2.5c-2.9,0-5.1,0.1-6.8,0.4s-2.8,0.7-3.5,1.4s-1,1.6-1,2.7
					c0,1.5,0.5,2.7,1.5,3.6c1,0.9,2.4,1.4,4.2,1.4c1.4,0,2.7-0.3,3.7-1s1.9-1.6,2.6-2.8s1-2.5,1-4v-6.4c0-2.2-0.5-3.8-1.3-4.8
					c-0.9-1-2.4-1.5-4.5-1.5c-1.2,0-2.5,0.2-3.8,0.5s-2.7,0.9-4.1,1.6c-0.6,0.3-1,0.3-1.5,0.3c-0.4-0.1-0.7-0.3-1-0.7
					s-0.4-0.8-0.4-1.2c0-0.4,0.1-0.8,0.3-1.3c0.2-0.4,0.6-0.7,1.1-0.9c1.6-0.8,3.3-1.4,4.9-1.8c1.6-0.3,3.1-0.5,4.5-0.5
					c2.4,0,4.4,0.4,6,1.2c1.6,0.8,2.7,1.9,3.5,3.5s1.2,3.6,1.2,6.1v14.8c0,0.9-0.2,1.5-0.6,2c-0.4,0.5-1,0.7-1.8,0.7
					c-0.8,0-1.3-0.2-1.8-0.7s-0.6-1.1-0.6-2v-4h0.5c-0.3,1.4-0.9,2.6-1.7,3.6s-1.8,1.8-3,2.3C534.7,854,533.3,854.2,531.8,854.2z"/>
				<path class="st2" d="M573.1,854.2c-1.7,0-3.4-0.2-5.1-0.6s-3.3-1.1-4.8-2c-0.4-0.3-0.7-0.6-0.9-1c-0.2-0.4-0.2-0.8-0.2-1.2
					c0.1-0.4,0.2-0.7,0.5-1c0.3-0.3,0.6-0.5,1-0.5c0.4-0.1,0.8,0,1.3,0.3c1.5,0.8,2.9,1.4,4.2,1.7c1.4,0.3,2.7,0.5,4,0.5
					c2,0,3.6-0.4,4.6-1.1c1-0.7,1.6-1.7,1.6-3c0-1-0.3-1.8-1-2.4s-1.8-1-3.2-1.3l-5.2-1.1c-2.3-0.5-4-1.4-5.2-2.6
					c-1.2-1.2-1.8-2.8-1.8-4.7c0-1.7,0.5-3.1,1.4-4.4s2.2-2.2,3.8-2.9s3.5-1,5.6-1c1.6,0,3.2,0.2,4.7,0.6c1.5,0.4,2.8,1.1,4,1.9
					c0.5,0.3,0.7,0.6,0.9,1c0.1,0.4,0.2,0.8,0.1,1.2c-0.1,0.4-0.3,0.7-0.5,1s-0.6,0.4-1,0.5c-0.4,0.1-0.9,0-1.3-0.3
					c-1.1-0.8-2.2-1.3-3.3-1.6s-2.3-0.5-3.4-0.5c-2,0-3.5,0.4-4.5,1.2c-1,0.8-1.5,1.8-1.5,3.1c0,1,0.3,1.8,0.9,2.4
					c0.6,0.6,1.6,1.1,2.9,1.4l5.2,1.1c2.4,0.5,4.3,1.3,5.5,2.5s1.8,2.7,1.8,4.6c0,2.5-1,4.5-3,6
					C579.1,853.5,576.5,854.2,573.1,854.2z"/>
				<path class="st2" d="M629.5,820.2c-1,0-1.8-0.3-2.4-0.8s-0.9-1.3-0.9-2.2c0-1,0.3-1.7,0.9-2.2s1.4-0.8,2.4-0.8
					c1.1,0,1.9,0.3,2.4,0.8s0.8,1.2,0.8,2.2c0,0.9-0.3,1.6-0.8,2.2S630.5,820.2,629.5,820.2z M629.5,854c-0.8,0-1.4-0.2-1.8-0.7
					c-0.5-0.5-0.7-1.2-0.7-2V829c0-0.9,0.2-1.6,0.7-2s1.1-0.7,1.8-0.7c0.8,0,1.5,0.2,1.9,0.7s0.7,1.2,0.7,2v22.3
					c0,0.9-0.2,1.5-0.6,2C631,853.8,630.3,854,629.5,854z"/>
				<path class="st2" d="M653.5,854.1c-0.8,0-1.4-0.2-1.8-0.7s-0.7-1.1-0.7-2v-22.8c0-0.9,0.2-1.5,0.7-1.9s1.1-0.6,1.8-0.6
					s1.4,0.2,1.8,0.6s0.6,1.1,0.6,1.9v4.6l-0.6-0.8c0.8-2.1,2.1-3.7,3.8-4.8s3.8-1.6,6.1-1.6c2.2,0,4,0.4,5.4,1.2
					c1.4,0.8,2.5,2,3.2,3.6c0.7,1.6,1.1,3.6,1.1,6.1v14.6c0,0.9-0.2,1.5-0.6,2s-1,0.7-1.9,0.7s-1.5-0.2-1.9-0.7s-0.7-1.1-0.7-2
					v-14.4c0-2.4-0.5-4.2-1.4-5.3c-0.9-1.1-2.4-1.7-4.5-1.7c-2.4,0-4.3,0.7-5.7,2.2c-1.4,1.5-2.2,3.5-2.2,6v13.2
					C656.1,853.3,655.3,854.1,653.5,854.1z"/>
				<path class="st2" d="M705.1,854.2c-2.2,0-4-0.4-5.5-1.2c-1.5-0.8-2.6-1.9-3.3-3.4s-1.1-3.3-1.1-5.5v-13.7h-3.6
					c-0.7,0-1.2-0.2-1.6-0.5c-0.4-0.3-0.6-0.8-0.6-1.4c0-0.6,0.2-1.1,0.6-1.5c0.4-0.3,0.9-0.5,1.6-0.5h3.6v-6.1
					c0-0.9,0.2-1.5,0.7-1.9s1.1-0.6,1.9-0.6s1.4,0.2,1.9,0.6s0.6,1.1,0.6,1.9v6.1h6.8c0.7,0,1.3,0.2,1.6,0.5s0.6,0.8,0.6,1.5
					c0,0.6-0.2,1.1-0.6,1.4s-0.9,0.5-1.6,0.5h-6.8v13.3c0,2,0.4,3.6,1.3,4.6c0.9,1,2.3,1.6,4.3,1.6c0.7,0,1.3-0.1,1.8-0.2
					c0.5-0.1,0.9-0.2,1.3-0.2c0.3,0,0.6,0.1,0.9,0.3c0.2,0.3,0.4,0.8,0.4,1.5c0,0.5-0.1,1-0.3,1.4c-0.2,0.4-0.5,0.7-1,0.9
					c-0.5,0.2-1,0.3-1.8,0.4C706.4,854.2,705.7,854.2,705.1,854.2z"/>
				<path class="st2" d="M736,854.2c-2.7,0-5-0.6-7-1.7c-2-1.2-3.5-2.8-4.6-4.9s-1.6-4.6-1.6-7.5c0-2.2,0.3-4.1,0.9-5.8
					c0.6-1.7,1.5-3.2,2.7-4.4s2.5-2.2,4.2-2.8s3.4-1,5.5-1c2.7,0,5,0.6,7,1.7c2,1.2,3.5,2.8,4.6,4.9c1.1,2.1,1.6,4.6,1.6,7.5
					c0,2.2-0.3,4.1-0.9,5.9s-1.5,3.2-2.7,4.5c-1.2,1.2-2.5,2.2-4.2,2.8S738,854.2,736,854.2z M736,850.2c1.6,0,3.1-0.4,4.3-1.2
					c1.2-0.8,2.1-1.9,2.8-3.4c0.7-1.5,1-3.3,1-5.5c0-3.3-0.7-5.8-2.2-7.5c-1.5-1.7-3.4-2.6-5.9-2.6c-1.6,0-3,0.4-4.2,1.2
					c-1.2,0.8-2.2,1.9-2.8,3.4s-1,3.3-1,5.5c0,3.3,0.7,5.8,2.2,7.5C731.6,849.3,733.5,850.2,736,850.2z"/>
				<path class="st2" d="M805.5,854.2c-1.8,0-3.5-0.1-5.1-0.4c-1.6-0.3-3.2-0.7-4.6-1.3c-1.5-0.6-2.8-1.3-3.9-2.1
					c-0.5-0.3-0.8-0.8-1-1.2c-0.2-0.5-0.3-1-0.2-1.4c0.1-0.5,0.3-0.9,0.6-1.2c0.3-0.3,0.7-0.5,1.2-0.6s0.9,0.1,1.5,0.5
					c1.7,1.2,3.5,2,5.4,2.5s4,0.8,6.2,0.8c3.3,0,5.7-0.6,7.2-1.8c1.5-1.2,2.3-2.8,2.3-4.7c0-1.6-0.6-2.9-1.7-3.8
					c-1.1-0.9-3-1.6-5.6-2.2l-5.9-1.2c-3.5-0.8-6.1-2-7.8-3.7c-1.7-1.7-2.6-4-2.6-6.9c0-1.8,0.3-3.3,1.1-4.8c0.7-1.4,1.7-2.7,3-3.7
					c1.3-1,2.8-1.8,4.6-2.4c1.8-0.6,3.7-0.8,5.9-0.8c2.3,0,4.5,0.3,6.5,1s3.9,1.6,5.5,2.8c0.5,0.3,0.8,0.7,0.9,1.2
					c0.2,0.5,0.2,0.9,0.1,1.4s-0.3,0.8-0.6,1.1c-0.3,0.3-0.7,0.5-1.2,0.5c-0.5,0-1-0.1-1.5-0.5c-1.5-1-3-1.8-4.6-2.3
					s-3.3-0.7-5.1-0.7c-1.9,0-3.5,0.3-4.9,0.9c-1.4,0.6-2.5,1.4-3.2,2.5c-0.8,1.1-1.2,2.3-1.2,3.7c0,1.7,0.5,3,1.6,4
					c1,1,2.8,1.7,5.3,2.2l5.9,1.2c3.7,0.8,6.5,2,8.3,3.6s2.7,3.8,2.7,6.5c0,1.7-0.3,3.3-1,4.6s-1.7,2.6-2.9,3.5
					c-1.3,1-2.8,1.8-4.6,2.3C809.8,854,807.8,854.2,805.5,854.2z"/>
				<path class="st2" d="M839.8,864.2c-0.8,0-1.4-0.2-1.8-0.7c-0.5-0.5-0.7-1.1-0.7-1.9v-32.9c0-0.9,0.2-1.5,0.7-1.9
					s1.1-0.6,1.8-0.6c0.8,0,1.4,0.2,1.9,0.6s0.6,1.1,0.6,1.9v5.1l-0.6-1c0.6-2,1.8-3.7,3.5-4.9s3.9-1.8,6.3-1.8
					c2.4,0,4.5,0.6,6.3,1.7c1.8,1.1,3.2,2.8,4.2,4.9s1.5,4.6,1.5,7.5c0,2.9-0.5,5.4-1.5,7.5s-2.4,3.8-4.2,4.9
					c-1.8,1.1-3.9,1.7-6.3,1.7c-2.4,0-4.5-0.6-6.3-1.8s-2.9-2.8-3.5-4.9h0.6v14.1c0,0.8-0.2,1.5-0.7,1.9
					C841.3,864,840.6,864.2,839.8,864.2z M850.4,850.2c1.6,0,3-0.4,4.2-1.2c1.2-0.8,2.2-1.9,2.8-3.4s1-3.3,1-5.5
					c0-3.3-0.7-5.8-2.2-7.5c-1.5-1.7-3.4-2.6-5.9-2.6c-1.6,0-3.1,0.4-4.3,1.2c-1.2,0.8-2.1,1.9-2.8,3.4c-0.7,1.5-1,3.3-1,5.5
					c0,3.3,0.7,5.8,2.2,7.5C846,849.3,847.9,850.2,850.4,850.2z"/>
				<path class="st2" d="M889.6,854.2c-1.9,0-3.5-0.4-5.1-1.1s-2.7-1.8-3.5-3s-1.3-2.7-1.3-4.3c0-2,0.5-3.6,1.5-4.8
					c1-1.2,2.7-2,5.1-2.5c2.4-0.5,5.6-0.8,9.6-0.8h2.6v3.2h-2.5c-2.9,0-5.1,0.1-6.8,0.4s-2.8,0.7-3.5,1.4s-1,1.6-1,2.7
					c0,1.5,0.5,2.7,1.5,3.6c1,0.9,2.4,1.4,4.2,1.4c1.4,0,2.7-0.3,3.7-1s1.9-1.6,2.6-2.8s1-2.5,1-4v-6.4c0-2.2-0.5-3.8-1.3-4.8
					c-0.9-1-2.4-1.5-4.5-1.5c-1.2,0-2.5,0.2-3.8,0.5s-2.7,0.9-4.1,1.6c-0.6,0.3-1,0.3-1.5,0.3c-0.4-0.1-0.7-0.3-1-0.7
					s-0.4-0.8-0.4-1.2c0-0.4,0.1-0.8,0.3-1.3c0.2-0.4,0.6-0.7,1.1-0.9c1.6-0.8,3.3-1.4,4.9-1.8c1.6-0.3,3.1-0.5,4.5-0.5
					c2.4,0,4.4,0.4,6,1.2c1.6,0.8,2.7,1.9,3.5,3.5s1.2,3.6,1.2,6.1v14.8c0,0.9-0.2,1.5-0.6,2c-0.4,0.5-1,0.7-1.8,0.7
					c-0.8,0-1.3-0.2-1.8-0.7s-0.6-1.1-0.6-2v-4h0.5c-0.3,1.4-0.9,2.6-1.7,3.6s-1.8,1.8-3,2.3C892.5,854,891.1,854.2,889.6,854.2z"/>
				<path class="st2" d="M933.3,854.2c-2.8,0-5.1-0.6-7.2-1.8s-3.6-2.8-4.6-5c-1.1-2.1-1.6-4.7-1.6-7.6c0-2.2,0.3-4.1,0.9-5.8
					s1.5-3.2,2.7-4.4c1.2-1.2,2.6-2.1,4.2-2.8s3.5-1,5.6-1c1.3,0,2.7,0.2,4.1,0.6c1.5,0.4,2.8,1.1,4,2c0.4,0.3,0.7,0.6,0.8,1
					c0.1,0.4,0.1,0.8,0,1.2c-0.1,0.4-0.3,0.8-0.6,1s-0.6,0.4-1.1,0.5c-0.4,0-0.9-0.1-1.4-0.4c-0.9-0.7-1.8-1.2-2.8-1.5
					s-1.9-0.5-2.8-0.5c-1.4,0-2.6,0.2-3.7,0.7s-2,1.1-2.7,1.9c-0.7,0.8-1.3,1.9-1.7,3.1s-0.6,2.6-0.6,4.2c0,3.2,0.7,5.7,2.2,7.5
					s3.6,2.7,6.3,2.7c0.9,0,1.8-0.1,2.8-0.4c1-0.3,1.9-0.8,2.8-1.4c0.5-0.3,0.9-0.4,1.3-0.4c0.4,0.1,0.8,0.2,1,0.5s0.5,0.6,0.5,1
					s0,0.8-0.1,1.2c-0.1,0.4-0.4,0.8-0.8,1c-1.2,0.9-2.5,1.5-3.9,2C936,854,934.6,854.2,933.3,854.2z"/>
				<path class="st2" d="M970.4,854.2c-2.9,0-5.5-0.6-7.6-1.7c-2.1-1.1-3.7-2.8-4.9-4.9c-1.2-2.1-1.7-4.6-1.7-7.5
					c0-2.8,0.6-5.3,1.7-7.4c1.1-2.1,2.7-3.8,4.7-5c2-1.2,4.3-1.8,6.8-1.8c1.8,0,3.5,0.3,4.9,0.9c1.5,0.6,2.7,1.5,3.8,2.7
					c1,1.2,1.8,2.6,2.4,4.2s0.8,3.5,0.8,5.6c0,0.6-0.2,1-0.5,1.4c-0.3,0.3-0.9,0.5-1.5,0.5h-19.1V838H978l-1,0.8
					c0-1.9-0.3-3.6-0.9-4.9s-1.4-2.4-2.5-3.1c-1.1-0.7-2.5-1.1-4.1-1.1c-1.8,0-3.3,0.4-4.6,1.3c-1.3,0.8-2.2,2-2.9,3.5
					c-0.7,1.5-1,3.3-1,5.2v0.3c0,3.3,0.8,5.9,2.4,7.6c1.6,1.7,3.9,2.6,6.9,2.6c1.2,0,2.4-0.2,3.7-0.5s2.5-0.8,3.6-1.6
					c0.6-0.3,1.1-0.5,1.5-0.5s0.8,0.2,1.2,0.5c0.3,0.3,0.5,0.6,0.6,1c0.1,0.4,0,0.8-0.2,1.3s-0.5,0.8-1.1,1.2
					c-1.2,0.9-2.7,1.5-4.4,2C973.6,854,972,854.2,970.4,854.2z"/>
				<path class="st2" d="M1007.9,854.2c-1.7,0-3.4-0.2-5.1-0.6s-3.3-1.1-4.8-2c-0.4-0.3-0.7-0.6-0.9-1c-0.2-0.4-0.2-0.8-0.2-1.2
					c0.1-0.4,0.2-0.7,0.5-1c0.3-0.3,0.6-0.5,1-0.5c0.4-0.1,0.8,0,1.3,0.3c1.5,0.8,2.9,1.4,4.2,1.7c1.4,0.3,2.7,0.5,4,0.5
					c2,0,3.6-0.4,4.6-1.1c1-0.7,1.6-1.7,1.6-3c0-1-0.3-1.8-1-2.4s-1.8-1-3.2-1.3l-5.2-1.1c-2.3-0.5-4-1.4-5.2-2.6
					c-1.2-1.2-1.8-2.8-1.8-4.7c0-1.7,0.5-3.1,1.4-4.4s2.2-2.2,3.8-2.9s3.5-1,5.6-1c1.6,0,3.2,0.2,4.7,0.6c1.5,0.4,2.8,1.1,4,1.9
					c0.5,0.3,0.7,0.6,0.9,1c0.1,0.4,0.2,0.8,0.1,1.2c-0.1,0.4-0.3,0.7-0.5,1s-0.6,0.4-1,0.5c-0.4,0.1-0.9,0-1.3-0.3
					c-1.1-0.8-2.2-1.3-3.3-1.6s-2.3-0.5-3.4-0.5c-2,0-3.5,0.4-4.5,1.2c-1,0.8-1.5,1.8-1.5,3.1c0,1,0.3,1.8,0.9,2.4
					c0.6,0.6,1.6,1.1,2.9,1.4l5.2,1.1c2.4,0.5,4.3,1.3,5.5,2.5s1.8,2.7,1.8,4.6c0,2.5-1,4.5-3,6
					C1013.9,853.5,1011.2,854.2,1007.9,854.2z"/>
				<path class="st2" d="M122.8,950.7c-3.9,0-7.3-0.8-10.1-2.5s-4.9-4-6.4-7c-1.5-3-2.3-6.6-2.3-10.8c0-3.1,0.4-5.9,1.3-8.3
					c0.9-2.5,2.1-4.6,3.7-6.4c1.6-1.8,3.6-3.1,5.9-4c2.3-0.9,5-1.4,7.9-1.4c2.2,0,4.4,0.3,6.4,1c2.1,0.6,3.9,1.5,5.3,2.7
					c0.6,0.4,1,0.9,1.2,1.4c0.2,0.5,0.2,1,0.1,1.5c-0.1,0.5-0.4,0.9-0.7,1.2c-0.4,0.3-0.8,0.5-1.3,0.5s-1.1-0.2-1.7-0.6
					c-1.3-1-2.7-1.7-4.3-2.2c-1.6-0.5-3.2-0.7-4.9-0.7c-2.9,0-5.3,0.6-7.3,1.8s-3.5,3-4.5,5.3c-1,2.3-1.5,5.1-1.5,8.4
					c0,3.3,0.5,6.1,1.5,8.4c1,2.3,2.5,4.1,4.5,5.3c2,1.2,4.4,1.8,7.3,1.8c1.8,0,3.4-0.2,5-0.7c1.6-0.5,3-1.2,4.4-2.2
					c0.6-0.4,1.1-0.6,1.6-0.6c0.5,0,0.9,0.2,1.3,0.5c0.3,0.3,0.6,0.7,0.7,1.1c0.1,0.5,0.1,0.9,0,1.4s-0.5,0.9-1,1.3
					c-1.5,1.3-3.3,2.3-5.4,2.9C127.3,950.4,125.1,950.7,122.8,950.7z"/>
				<path class="st2" d="M159.9,950.6c-0.9,0-1.5-0.2-2-0.7c-0.4-0.5-0.7-1.1-0.7-2v-22.8c0-0.9,0.2-1.5,0.7-1.9s1.1-0.6,1.8-0.6
					s1.4,0.2,1.8,0.6c0.4,0.4,0.6,1.1,0.6,1.9v4.3h-0.6c0.6-2.2,1.7-3.9,3.4-5.1s3.7-1.8,6.2-2c0.6,0,1.1,0.1,1.4,0.4
					s0.6,0.8,0.6,1.6c0,0.7-0.1,1.3-0.5,1.7c-0.4,0.4-0.9,0.7-1.7,0.8l-1,0.1c-2.5,0.3-4.4,1.1-5.7,2.4c-1.3,1.3-2,3.2-2,5.5V948
					c0,0.9-0.2,1.5-0.6,2C161.3,950.4,160.7,950.6,159.9,950.6z"/>
				<path class="st2" d="M204.7,950.7c-2.9,0-5.5-0.6-7.6-1.7c-2.1-1.1-3.7-2.8-4.9-4.9c-1.1-2.1-1.7-4.6-1.7-7.5
					c0-2.8,0.6-5.3,1.7-7.4c1.1-2.1,2.7-3.8,4.7-5c2-1.2,4.3-1.8,6.8-1.8c1.8,0,3.5,0.3,4.9,0.9s2.7,1.5,3.8,2.7
					c1,1.2,1.8,2.6,2.4,4.2s0.8,3.5,0.8,5.6c0,0.6-0.2,1-0.5,1.4s-0.9,0.5-1.5,0.5h-19.1v-3.2h17.8l-0.9,0.8c0-1.9-0.3-3.6-0.9-4.9
					s-1.4-2.4-2.5-3.1c-1.1-0.7-2.5-1.1-4.1-1.1c-1.8,0-3.3,0.4-4.6,1.3c-1.3,0.8-2.2,2-2.9,3.5s-1,3.3-1,5.2v0.3
					c0,3.3,0.8,5.9,2.4,7.6c1.6,1.7,3.9,2.6,6.9,2.6c1.2,0,2.4-0.2,3.7-0.5s2.4-0.8,3.6-1.6c0.6-0.3,1.1-0.5,1.5-0.5
					c0.5,0,0.9,0.2,1.1,0.5c0.3,0.3,0.5,0.6,0.6,1c0.1,0.4,0,0.8-0.2,1.3s-0.5,0.8-1.1,1.2c-1.2,0.9-2.7,1.5-4.4,2
					C207.9,950.5,206.3,950.7,204.7,950.7z"/>
				<path class="st2" d="M245.4,950.7c-1.9,0-3.6-0.4-5.1-1.1s-2.7-1.8-3.5-3c-0.8-1.3-1.3-2.7-1.3-4.3c0-2,0.5-3.6,1.5-4.8
					c1-1.2,2.7-2,5.1-2.5c2.4-0.5,5.6-0.8,9.6-0.8h2.6v3.2h-2.5c-2.9,0-5.1,0.1-6.8,0.4c-1.7,0.3-2.8,0.7-3.5,1.4s-1,1.6-1,2.7
					c0,1.5,0.5,2.7,1.5,3.6c1,0.9,2.4,1.4,4.2,1.4c1.4,0,2.7-0.3,3.7-1s1.9-1.6,2.6-2.8s0.9-2.5,0.9-4v-6.4c0-2.2-0.4-3.8-1.3-4.8
					c-0.9-1-2.4-1.5-4.5-1.5c-1.2,0-2.5,0.2-3.8,0.5s-2.7,0.9-4.1,1.6c-0.6,0.3-1,0.3-1.4,0.3s-0.7-0.3-1-0.7
					c-0.2-0.3-0.4-0.8-0.4-1.2c0-0.4,0.1-0.8,0.3-1.3c0.2-0.4,0.6-0.7,1.1-0.9c1.6-0.8,3.3-1.4,4.9-1.8c1.6-0.3,3.1-0.5,4.6-0.5
					c2.4,0,4.4,0.4,6,1.2s2.7,1.9,3.5,3.5s1.2,3.6,1.2,6.1V948c0,0.9-0.2,1.5-0.6,2c-0.4,0.5-1,0.7-1.8,0.7c-0.8,0-1.3-0.2-1.8-0.7
					s-0.6-1.1-0.6-2v-4h0.5c-0.3,1.4-0.9,2.6-1.7,3.6c-0.8,1-1.8,1.8-3,2.3C248.3,950.5,246.9,950.7,245.4,950.7z"/>
				<path class="st2" d="M292.5,950.7c-2.2,0-4-0.4-5.5-1.2c-1.5-0.8-2.6-1.9-3.3-3.4c-0.7-1.5-1.1-3.3-1.1-5.5v-13.7h-3.6
					c-0.7,0-1.2-0.2-1.6-0.5c-0.4-0.3-0.6-0.8-0.6-1.4c0-0.6,0.2-1.1,0.6-1.5c0.4-0.3,0.9-0.5,1.6-0.5h3.6V917
					c0-0.9,0.2-1.5,0.7-1.9s1.1-0.6,1.9-0.6s1.4,0.2,1.9,0.6s0.6,1.1,0.6,1.9v6.1h6.8c0.7,0,1.3,0.2,1.6,0.5s0.6,0.8,0.6,1.5
					c0,0.6-0.2,1.1-0.6,1.4s-0.9,0.5-1.6,0.5h-6.8v13.3c0,2,0.4,3.6,1.3,4.6c0.9,1,2.3,1.6,4.3,1.6c0.7,0,1.3-0.1,1.8-0.2
					c0.5-0.1,0.9-0.2,1.3-0.2c0.3,0,0.6,0.1,0.9,0.3c0.2,0.3,0.4,0.8,0.4,1.5c0,0.5-0.1,1-0.3,1.4c-0.2,0.4-0.5,0.7-1,0.9
					c-0.5,0.2-1,0.3-1.8,0.4C293.8,950.7,293.1,950.7,292.5,950.7z"/>
				<path class="st2" d="M328.3,950.7c-2.9,0-5.5-0.6-7.6-1.7c-2.1-1.1-3.7-2.8-4.9-4.9c-1.1-2.1-1.7-4.6-1.7-7.5
					c0-2.8,0.6-5.3,1.7-7.4c1.1-2.1,2.7-3.8,4.7-5c2-1.2,4.3-1.8,6.8-1.8c1.8,0,3.5,0.3,4.9,0.9s2.7,1.5,3.8,2.7
					c1,1.2,1.8,2.6,2.4,4.2s0.8,3.5,0.8,5.6c0,0.6-0.2,1-0.5,1.4s-0.9,0.5-1.5,0.5H318v-3.2h17.8l-1,0.8c0-1.9-0.3-3.6-0.9-4.9
					s-1.4-2.4-2.5-3.1c-1.1-0.7-2.5-1.1-4.1-1.1c-1.8,0-3.3,0.4-4.6,1.3c-1.3,0.8-2.2,2-2.9,3.5c-0.7,1.5-1,3.3-1,5.2v0.3
					c0,3.3,0.8,5.9,2.4,7.6c1.6,1.7,3.9,2.6,6.9,2.6c1.2,0,2.4-0.2,3.7-0.5s2.5-0.8,3.6-1.6c0.6-0.3,1.1-0.5,1.5-0.5
					s0.9,0.2,1.1,0.5s0.5,0.6,0.6,1c0.1,0.4,0,0.8-0.2,1.3s-0.5,0.8-1.1,1.2c-1.2,0.9-2.7,1.5-4.4,2
					C331.5,950.5,329.9,950.7,328.3,950.7z"/>
				<path class="st2" d="M400.2,945.3c-1.8,0-3.5-0.4-5-1.3c-1.5-0.9-2.8-2.1-3.7-3.5s-1.4-3.2-1.4-5c0-1.7,0.4-3.3,1.3-4.8
					s2.1-2.7,3.6-3.7c1.5-1,3.3-1.4,5.2-1.4c1.8,0,3.5,0.4,5,1.3s2.8,2,3.7,3.5c0.9,1.5,1.4,3.2,1.4,5.1c0,1.8-0.5,3.5-1.4,5
					s-2.1,2.7-3.7,3.6C403.8,944.9,402,945.3,400.2,945.3z"/>
				<path class="st2" d="M466.5,950.2c-0.9,0-1.6-0.2-2.1-0.7c-0.5-0.5-0.7-1.2-0.7-2.1v-33.8c0-0.9,0.2-1.6,0.7-2.1
					c0.5-0.5,1.2-0.7,2.1-0.7h10.8c6.4,0,11.4,1.7,14.9,5.1s5.2,8.2,5.2,14.6c0,3.2-0.5,6-1.3,8.4c-0.9,2.5-2.2,4.5-3.9,6.2
					c-1.7,1.7-3.8,2.9-6.3,3.8s-5.3,1.3-8.6,1.3L466.5,950.2L466.5,950.2z M468.9,945.8h8c2.5,0,4.7-0.3,6.6-1s3.4-1.6,4.7-2.8
					c1.3-1.3,2.2-2.9,2.8-4.8c0.6-1.9,1-4.2,1-6.7c0-5.1-1.3-8.9-3.8-11.5c-2.5-2.5-6.3-3.8-11.3-3.8h-8L468.9,945.8L468.9,945.8z"
					/>
				<path class="st2" d="M532,950.7c-2.9,0-5.5-0.6-7.6-1.7c-2.1-1.1-3.7-2.8-4.9-4.9c-1.2-2.1-1.7-4.6-1.7-7.5
					c0-2.8,0.6-5.3,1.7-7.4c1.1-2.1,2.7-3.8,4.7-5c2-1.2,4.3-1.8,6.8-1.8c1.8,0,3.5,0.3,4.9,0.9c1.5,0.6,2.7,1.5,3.8,2.7
					c1,1.2,1.8,2.6,2.4,4.2s0.8,3.5,0.8,5.6c0,0.6-0.2,1-0.5,1.4s-0.9,0.5-1.5,0.5h-19.1v-3.2h17.8l-1,0.8c0-1.9-0.3-3.6-0.9-4.9
					s-1.4-2.4-2.5-3.1c-1.1-0.7-2.5-1.1-4.1-1.1c-1.8,0-3.3,0.4-4.6,1.3c-1.3,0.8-2.2,2-2.9,3.5c-0.7,1.5-1,3.3-1,5.2v0.3
					c0,3.3,0.8,5.9,2.4,7.6c1.6,1.7,3.9,2.6,6.9,2.6c1.2,0,2.4-0.2,3.7-0.5s2.5-0.8,3.6-1.6c0.6-0.3,1.1-0.5,1.5-0.5
					s0.8,0.2,1.2,0.5s0.5,0.6,0.6,1c0.1,0.4,0,0.8-0.2,1.3s-0.5,0.8-1.1,1.2c-1.2,0.9-2.7,1.5-4.4,2
					C535.2,950.5,533.6,950.7,532,950.7z"/>
				<path class="st2" d="M573.4,950.7c-1.7,0-3.4-0.2-5.1-0.6s-3.3-1.1-4.8-2c-0.4-0.3-0.7-0.6-0.9-1c-0.2-0.4-0.2-0.8-0.2-1.2
					c0.1-0.4,0.2-0.7,0.5-1c0.3-0.3,0.6-0.5,1-0.5c0.4-0.1,0.8,0,1.3,0.3c1.5,0.8,2.9,1.4,4.2,1.7c1.4,0.3,2.7,0.5,4,0.5
					c2,0,3.6-0.4,4.6-1.1c1-0.7,1.6-1.7,1.6-3c0-1-0.3-1.8-1-2.4s-1.8-1-3.2-1.3l-5.2-1.1c-2.3-0.5-4-1.4-5.2-2.6
					c-1.2-1.2-1.8-2.8-1.8-4.7c0-1.7,0.5-3.1,1.4-4.4s2.2-2.2,3.8-2.9s3.5-1,5.6-1c1.6,0,3.2,0.2,4.7,0.6c1.5,0.4,2.8,1.1,4,1.9
					c0.5,0.3,0.7,0.6,0.9,1c0.1,0.4,0.2,0.8,0.1,1.2c-0.1,0.4-0.3,0.7-0.5,1s-0.6,0.4-1,0.5c-0.4,0.1-0.9,0-1.3-0.3
					c-1.1-0.8-2.2-1.3-3.3-1.6s-2.3-0.5-3.4-0.5c-2,0-3.5,0.4-4.5,1.2c-1,0.8-1.5,1.8-1.5,3.1c0,1,0.3,1.8,0.9,2.4
					c0.6,0.6,1.6,1.1,2.9,1.4l5.2,1.1c2.4,0.5,4.3,1.3,5.5,2.5s1.8,2.7,1.8,4.6c0,2.5-1,4.5-3,6C579.5,950,576.8,950.7,573.4,950.7z
					"/>
				<path class="st2" d="M608.3,916.7c-1,0-1.8-0.3-2.4-0.8s-0.9-1.3-0.9-2.2c0-1,0.3-1.7,0.9-2.2s1.4-0.8,2.4-0.8
					c1.1,0,1.9,0.3,2.4,0.8s0.8,1.2,0.8,2.2c0,0.9-0.3,1.6-0.8,2.2S609.4,916.7,608.3,916.7z M608.3,950.5c-0.8,0-1.4-0.2-1.8-0.7
					c-0.5-0.5-0.7-1.2-0.7-2v-22.3c0-0.9,0.2-1.6,0.7-2s1.1-0.7,1.8-0.7c0.8,0,1.5,0.2,1.9,0.7s0.7,1.2,0.7,2v22.3
					c0,0.9-0.2,1.5-0.6,2C609.8,950.3,609.2,950.5,608.3,950.5z"/>
				<path class="st2" d="M646,960.8c-2,0-4-0.2-5.8-0.7s-3.6-1.1-5.1-2.1c-0.5-0.3-0.8-0.6-1-1s-0.2-0.8-0.1-1.2
					c0.1-0.4,0.3-0.8,0.6-1.1s0.6-0.5,1-0.6c0.4-0.1,0.8,0,1.2,0.3c1.6,0.9,3.2,1.6,4.7,1.9c1.5,0.3,2.9,0.5,4.3,0.5
					c2.6,0,4.6-0.7,6-2s2-3.3,2-6v-6h0.5c-0.5,2.1-1.7,3.7-3.5,5c-1.8,1.2-3.9,1.8-6.3,1.8c-2.5,0-4.6-0.6-6.4-1.7
					c-1.8-1.1-3.2-2.7-4.3-4.8s-1.5-4.4-1.5-7.1c0-2,0.3-3.9,0.9-5.6s1.4-3.1,2.5-4.3c1.1-1.2,2.3-2.1,3.8-2.7c1.5-0.7,3.2-1,5-1
					c2.4,0,4.5,0.6,6.3,1.8c1.8,1.2,2.9,2.9,3.5,5l-0.6,0.8v-4.9c0-0.9,0.2-1.5,0.7-1.9s1.1-0.6,1.9-0.6c0.8,0,1.4,0.2,1.8,0.6
					c0.5,0.4,0.7,1.1,0.7,1.9v22.9c0,4.2-1.1,7.4-3.2,9.5C653.2,959.7,650.1,960.8,646,960.8z M645.5,945.5c1.7,0,3.1-0.4,4.3-1.1
					s2.1-1.9,2.8-3.3c0.7-1.4,1-3.1,1-5.1c0-2.9-0.7-5.3-2.2-7c-1.5-1.7-3.4-2.5-5.9-2.5c-1.7,0-3.1,0.4-4.3,1.2
					c-1.2,0.8-2.2,1.8-2.8,3.3c-0.7,1.4-1,3.1-1,5.1c0,2.9,0.7,5.2,2.2,6.9S643,945.5,645.5,945.5z"/>
				<path class="st2" d="M684,950.6c-0.8,0-1.4-0.2-1.8-0.7s-0.7-1.1-0.7-2v-22.8c0-0.9,0.2-1.5,0.7-1.9s1.1-0.6,1.8-0.6
					s1.4,0.2,1.8,0.6s0.6,1.1,0.6,1.9v4.6l-0.6-0.8c0.8-2.1,2.1-3.7,3.8-4.8s3.8-1.6,6.1-1.6c2.2,0,4,0.4,5.4,1.2
					c1.4,0.8,2.5,2,3.2,3.6c0.7,1.6,1.1,3.6,1.1,6.1V948c0,0.9-0.2,1.5-0.6,2s-1,0.7-1.9,0.7s-1.5-0.2-1.9-0.7s-0.7-1.1-0.7-2v-14.4
					c0-2.4-0.5-4.2-1.4-5.3c-0.9-1.1-2.4-1.7-4.5-1.7c-2.4,0-4.3,0.7-5.7,2.2c-1.4,1.5-2.2,3.5-2.2,6V948
					C686.6,949.8,685.7,950.6,684,950.6z"/>
				<path class="st2" d="M768.1,945.3c-1.8,0-3.5-0.4-5-1.3c-1.5-0.9-2.8-2.1-3.7-3.5s-1.4-3.2-1.4-5c0-1.7,0.4-3.3,1.3-4.8
					c0.9-1.5,2.1-2.7,3.6-3.7c1.5-1,3.3-1.4,5.2-1.4c1.8,0,3.5,0.4,5,1.3c1.5,0.9,2.8,2,3.7,3.5c0.9,1.5,1.4,3.2,1.4,5.1
					c0,1.8-0.5,3.5-1.4,5s-2.1,2.7-3.7,3.6C771.6,944.9,770,945.3,768.1,945.3z"/>
				<path class="st2" d="M834.3,950.2c-0.9,0-1.6-0.2-2.1-0.7c-0.5-0.5-0.7-1.2-0.7-2.1v-33.8c0-0.9,0.2-1.6,0.7-2.1
					c0.5-0.5,1.2-0.7,2.1-0.7h13.2c2.7,0,5,0.4,7,1.2c1.9,0.8,3.4,2,4.4,3.5c1,1.5,1.5,3.4,1.5,5.5c0,2.4-0.7,4.5-2.1,6.1
					c-1.4,1.6-3.3,2.7-5.8,3.3v-0.8c2.8,0.3,4.9,1.3,6.5,3c1.6,1.7,2.4,3.9,2.4,6.6c0,3.5-1.2,6.2-3.4,8.1s-5.5,2.8-9.7,2.8
					L834.3,950.2L834.3,950.2z M836.6,928.2h10.2c2.8,0,5-0.6,6.4-1.7c1.4-1.1,2.2-2.8,2.2-4.9s-0.7-3.8-2.2-4.9
					c-1.4-1.1-3.6-1.7-6.4-1.7h-10.2V928.2z M836.6,946.2h11.1c2.9,0,5.1-0.6,6.5-1.7c1.4-1.1,2.1-2.9,2.1-5.2
					c0-2.3-0.7-4.1-2.1-5.2c-1.4-1.1-3.6-1.7-6.5-1.7h-11.1V946.2z"/>
				<path class="st2" d="M893.3,950.7c-2.2,0-4-0.4-5.5-1.2s-2.6-2-3.3-3.6s-1.1-3.6-1.1-6v-14.6c0-0.9,0.2-1.5,0.6-1.9
					s1-0.6,1.9-0.6s1.5,0.2,1.9,0.6s0.7,1.1,0.7,1.9v14.6c0,2.3,0.5,4,1.4,5.1c0.9,1.1,2.4,1.7,4.4,1.7c2.2,0,4-0.7,5.5-2.2
					s2.1-3.5,2.1-5.9v-13.2c0-0.9,0.2-1.5,0.6-1.9s1-0.6,1.9-0.6s1.5,0.2,1.9,0.6s0.7,1.1,0.7,1.9V948c0,1.8-0.8,2.6-2.5,2.6
					c-0.8,0-1.4-0.2-1.9-0.7s-0.6-1.1-0.6-2v-4.9l0.7,1c-0.8,2.2-2,3.8-3.6,4.9C897.5,950.2,895.5,950.7,893.3,950.7z"/>
				<path class="st2" d="M932.4,916.7c-1,0-1.8-0.3-2.4-0.8s-0.9-1.3-0.9-2.2c0-1,0.3-1.7,0.9-2.2s1.4-0.8,2.4-0.8
					c1.1,0,1.9,0.3,2.4,0.8s0.8,1.2,0.8,2.2c0,0.9-0.3,1.6-0.8,2.2S933.5,916.7,932.4,916.7z M932.4,950.5c-0.8,0-1.4-0.2-1.8-0.7
					c-0.5-0.5-0.7-1.2-0.7-2v-22.3c0-0.9,0.2-1.6,0.7-2s1.1-0.7,1.8-0.7c0.8,0,1.5,0.2,1.9,0.7s0.7,1.2,0.7,2v22.3
					c0,0.9-0.2,1.5-0.6,2C933.9,950.3,933.3,950.5,932.4,950.5z"/>
				<path class="st2" d="M966.4,950.7c-2.8,0-4.9-0.8-6.4-2.5s-2.2-4-2.2-7.2v-28c0-0.9,0.2-1.5,0.7-1.9s1.1-0.6,1.8-0.6
					c0.8,0,1.5,0.2,1.9,0.6s0.7,1.1,0.7,1.9v27.7c0,1.9,0.4,3.4,1.2,4.3s2,1.4,3.4,1.4c0.3,0,0.6,0,0.9,0s0.5,0,0.8-0.1
					c0.4,0,0.7,0.1,0.9,0.3s0.3,0.8,0.3,1.6c0,0.7-0.2,1.3-0.5,1.7s-0.8,0.6-1.5,0.8c-0.3,0-0.7,0.1-1,0.1S966.8,950.7,966.4,950.7z
					"/>
				<path class="st2" d="M999.5,950.7c-2.4,0-4.5-0.6-6.3-1.7c-1.8-1.1-3.2-2.8-4.2-4.9s-1.5-4.7-1.5-7.5c0-2.9,0.5-5.4,1.5-7.5
					c1-2.1,2.4-3.7,4.2-4.9s3.9-1.7,6.3-1.7s4.5,0.6,6.3,1.8s2.9,2.8,3.5,4.8h-0.6V913c0-0.9,0.2-1.5,0.6-1.9s1-0.6,1.9-0.6
					s1.5,0.2,1.9,0.6s0.7,1.1,0.7,1.9v35c0,0.9-0.2,1.5-0.7,2s-1.1,0.7-1.9,0.7c-0.8,0-1.4-0.2-1.8-0.7c-0.5-0.5-0.7-1.1-0.7-2v-5.1
					l0.6,1c-0.6,2.1-1.7,3.7-3.5,5C1004.1,950.1,1002,950.7,999.5,950.7z M1000.7,946.7c1.6,0,3.1-0.4,4.3-1.2
					c1.2-0.8,2.1-1.9,2.8-3.4c0.7-1.5,1-3.3,1-5.5c0-3.3-0.7-5.8-2.2-7.5c-1.5-1.7-3.4-2.6-5.9-2.6c-1.6,0-3,0.4-4.2,1.2
					c-1.2,0.8-2.2,1.9-2.8,3.4s-1,3.3-1,5.5c0,3.3,0.7,5.8,2.2,7.5C996.3,945.8,998.3,946.7,1000.7,946.7z"/>
			</g>
		</g>
	</g>
</g>
<g id="Layer_1_1_" class="st1">
	<path class="st3" d="M540.5,1080.8L540.5,1080.8c-298.2,0-540-241.8-540-540l0,0c0-298.2,241.8-540,540-540l0,0
		c298.2,0,540,241.8,540,540l0,0C1080.5,839.1,838.7,1080.8,540.5,1080.8z"/>
	<g class="st4">
		<rect x="16.3" y="504" class="st5" width="54.6" height="54.6"/>
		<rect x="16.3" y="564.8" class="st6" width="54.6" height="54.6"/>
		<rect x="16.3" y="627.7" class="st7" width="54.6" height="54.6"/>
		<rect x="16.3" y="689.5" class="st8" width="54.6" height="54.6"/>
		<rect x="16.3" y="753.5" class="st9" width="54.6" height="54.6"/>
	</g>
</g>
</svg>
