<?xml version="1.0" encoding="utf-8"?>
<!-- Generator: Adobe Illustrator 24.1.3, SVG Export Plug-In . SVG Version: 6.00 Build 0)  -->
<svg version="1.1" xmlns="http://www.w3.org/2000/svg" xmlns:xlink="http://www.w3.org/1999/xlink" x="0px" y="0px"
	 viewBox="0 0 1080 1080" style="enable-background:new 0 0 1080 1080;" xml:space="preserve">
<style type="text/css">
	.st0{fill:#553F2F;}
	.st1{display:none;}
	.st2{display:inline;fill:#553F2F;}
	.st3{opacity:0.47;fill:#231F20;stroke:#231F20;stroke-miterlimit:10;}
	.st4{display:inline;}
	.st5{fill:#C8AF9E;}
	.st6{fill:#F1E3D3;}
	.st7{fill:#F1E8D9;}
	.st8{fill:#94A4B5;}
</style>
<g id="Layer_2">
	<g>
		<g>
			<path class="st0" d="M992.44,165.49L814.4,292.95c-2.99,2.14-7.17,0.29-7.61-3.35l-4.18-34.41c-0.85-7.03-8.91-10.58-14.68-6.47
				l-32.82,23.36c-1.9,1.36-0.21,4.3,1.92,3.33l28.2-12.74c3-1.36,6.39,0.85,6.35,4.14l-0.33,32.03
				c1.09,11.83,14.49,18.15,24.29,11.45l184.4-125.94c3.7-2.45,8.34,1.36,6.63,5.46L851.54,563.49
				c-10.12,24.4-23.15,47.46-38.81,68.74c-7.32,9.93-18.44,14.94-29.58,14.94c-10.55,0-21.1-4.49-28.47-13.54l-25.38-31.18
				c-10.96-9.6-27.92-7.1-35.6,5.27c-0.71,1.14-1.85,1.67-2.99,1.67c-1.45,0-2.9-0.88-3.4-2.5l-63.45-207.63
				c-4.04-13.17-10.5-25.48-19.08-36.28l-0.71-0.9c-16.02-20.17-48.38-9.7-49.59,15.94c-0.5,10.95-0.97,20.56-1.24,26.57
				c-0.14,2.85-3.37,4.4-5.66,2.75l-15.99-11.48c-39.61-28.4-94.1,3.71-88.4,52.11l0.12,1.02c1,8.62,3.66,16.64,7.84,23.91
				c9.29,16.13,26.31,45.76,34.31,59.65c1.5,2.61-1.05,5.7-3.9,4.71l-51.57-17.78c-17.4-6.01-36.66-3.06-51.45,7.87L270.81,606.9
				c-6.79,5.01-16.02-1.57-13.54-9.62l51.9-167.43c4.13-13.29-1.47-27.66-13.48-34.69l-162.89-95.1
				c-10.45-6.09-23.43,2.07-22.45,14.12l32.77,404.01c0.28,3.54,3.23,6.25,6.77,6.25c3.76,0,6.82-3.06,6.79-6.82l-0.88-177.86
				c-0.03-8.84,8.68-15.06,17.01-12.12l37.31,13.07c2.56,0.92,4.33-2.57,2.09-4.11l-48.54-33.41
				c-12.07-8.32-19.86-21.53-21.25-36.12l-12.81-133.16c-0.47-4.83,4.68-8.22,8.93-5.87l137.2,75.45
				c11.91,6.54,17.28,20.77,12.67,33.55L212.59,647.3c-4.8,13.35,10.95,24.6,22.01,15.73l147.38-118.08
				c14.23-11.4,33.67-13.8,50.23-6.2l91.36,41.96c28.51,13.09,61.97-2.3,70.58-32.46c2.28-7.99,3.42-16.21,3.42-24.4
				c0-13-2.85-25.95-8.48-37.88c-4.71-9.98-9.77-20.77-13.86-29.47c-5.39-11.43-7.68-24.05-6.68-36.66l1.86-23.67
				c0.86-11.05,13.52-16.87,22.46-10.33c4.26,3.11,7.94,6.89,10.93,11.17c2.97,4.26,5.23,9.03,6.66,14.12
				c15.06,53.27,63.49,224.18,63.49,224.18c2.61,9.22,14.56,11.67,20.58,4.21l11.91-16.45c2.75-3.78,8.43-3.75,11.1,0.1l18.68,26.76
				c22.65,32.44,71.15,30.96,91.77-2.81l4.78-7.82c12.62-20.65,23.67-42.25,33.06-64.58l160.83-381.05
				C1035.64,172.5,1011.51,152.64,992.44,165.49z M543.86,519.29c-1.4,5.34-3.23,10.55-5.49,15.61
				c-4.89,10.93-19.32,13.33-27.49,4.59l-6.65-7.1l-2.75-3.23c-13.76-16.13-25.1-34.15-33.67-53.54l-9.91-22.48l-0.85-4.11
				c-5.75-27.82,16.11-51.76,41.97-51.76c5.11,0,10.36,0.93,15.59,2.95c0.19,0.07,0.38,0.15,0.56,0.23
				c6.65,2.86,12.36,7.52,16.78,13.24l11.79,15.25c4.8,6.21,7.56,13.81,7.53,21.66c0,0.73-0.03,1.47-0.09,2.21l-4.51,50.16
				C546.21,508.5,545.24,513.95,543.86,519.29z M581.45,526.2c1.05,3.33,1.54,6.68,1.54,9.96c0,17.3-13.74,32.56-32.2,33.1
				c-1.11,0.03-1.93-1.02-1.66-2.09l7.46-28.11c1.59-6.01,2.68-12.12,3.25-18.3l3.95-42.53c0.14-1.5,2.3-1.59,2.56-0.1L581.45,526.2
				z"/>
			<g class="st1">
				<path class="st2" d="M118.39,854.24c-1.75,0-3.45-0.14-5.08-0.42c-1.64-0.28-3.18-0.7-4.64-1.26c-1.45-0.56-2.76-1.25-3.91-2.07
					c-0.48-0.33-0.83-0.75-1.03-1.23c-0.21-0.48-0.26-0.96-0.17-1.42c0.09-0.46,0.3-0.87,0.61-1.2c0.32-0.33,0.7-0.54,1.15-0.61
					c0.45-0.07,0.93,0.08,1.45,0.45c1.71,1.15,3.51,1.99,5.39,2.51c1.88,0.52,3.96,0.78,6.23,0.78c3.28,0,5.69-0.6,7.23-1.79
					c1.54-1.19,2.32-2.76,2.32-4.69c0-1.6-0.56-2.86-1.68-3.77c-1.12-0.91-3-1.63-5.64-2.15l-5.92-1.23
					c-3.5-0.75-6.12-1.97-7.85-3.69c-1.73-1.71-2.6-4-2.6-6.87c0-1.75,0.35-3.34,1.06-4.78c0.71-1.43,1.71-2.67,3.02-3.72
					c1.3-1.04,2.84-1.84,4.61-2.4c1.77-0.56,3.73-0.84,5.89-0.84c2.31,0,4.48,0.32,6.51,0.95c2.03,0.63,3.86,1.56,5.5,2.79
					c0.45,0.34,0.74,0.74,0.89,1.2c0.15,0.47,0.18,0.92,0.08,1.37c-0.09,0.45-0.3,0.82-0.61,1.12c-0.32,0.3-0.71,0.47-1.17,0.5
					c-0.47,0.04-0.98-0.13-1.54-0.5c-1.49-1.04-3.02-1.8-4.58-2.26c-1.56-0.46-3.28-0.7-5.14-0.7c-1.9,0-3.55,0.3-4.94,0.89
					c-1.4,0.6-2.48,1.42-3.24,2.49c-0.76,1.06-1.15,2.3-1.15,3.72c0,1.71,0.52,3.05,1.56,4.02c1.04,0.97,2.79,1.71,5.25,2.23
					l5.87,1.17c3.72,0.78,6.49,1.98,8.3,3.6c1.81,1.62,2.71,3.79,2.71,6.51c0,1.71-0.34,3.26-1.03,4.64
					c-0.69,1.38-1.67,2.56-2.93,3.55c-1.27,0.99-2.81,1.75-4.64,2.29C122.71,853.97,120.66,854.24,118.39,854.24z"/>
				<path class="st2" d="M152.69,854.12c-0.78,0-1.4-0.22-1.84-0.67c-0.45-0.45-0.67-1.1-0.67-1.96v-34.97
					c0-0.86,0.22-1.5,0.67-1.93c0.45-0.43,1.06-0.64,1.84-0.64c0.82,0,1.45,0.21,1.9,0.64c0.45,0.43,0.67,1.07,0.67,1.93v15.92
					h-0.73c0.78-2.12,2.06-3.72,3.83-4.8c1.77-1.08,3.79-1.62,6.06-1.62c2.2,0,4,0.4,5.42,1.2c1.42,0.8,2.48,2,3.18,3.6
					c0.71,1.6,1.06,3.61,1.06,6.03v14.64c0,0.86-0.21,1.51-0.64,1.96c-0.43,0.45-1.05,0.67-1.87,0.67c-0.82,0-1.45-0.22-1.9-0.67
					s-0.67-1.1-0.67-1.96v-14.36c0-2.42-0.47-4.19-1.4-5.31c-0.93-1.12-2.42-1.68-4.47-1.68c-2.38,0-4.29,0.74-5.73,2.21
					c-1.43,1.47-2.15,3.46-2.15,5.95v13.19C155.26,853.25,154.41,854.12,152.69,854.12z"/>
				<path class="st2" d="M201.64,854.24c-1.86,0-3.55-0.37-5.06-1.12c-1.51-0.75-2.68-1.75-3.52-3.02
					c-0.84-1.27-1.26-2.68-1.26-4.25c0-2.01,0.5-3.59,1.51-4.75c1.01-1.15,2.7-1.98,5.08-2.49c2.38-0.5,5.59-0.75,9.61-0.75h2.63
					v3.24h-2.51c-2.87,0-5.13,0.13-6.79,0.39c-1.66,0.26-2.82,0.72-3.49,1.37s-1.01,1.56-1.01,2.71c0,1.45,0.51,2.65,1.54,3.58
					c1.02,0.93,2.43,1.4,4.22,1.4c1.42,0,2.66-0.34,3.74-1.03c1.08-0.69,1.94-1.62,2.57-2.79c0.63-1.17,0.95-2.52,0.95-4.05v-6.42
					c0-2.2-0.45-3.79-1.34-4.78c-0.89-0.99-2.4-1.48-4.53-1.48c-1.23,0-2.5,0.17-3.8,0.5c-1.3,0.33-2.66,0.86-4.08,1.56
					c-0.56,0.26-1.04,0.34-1.45,0.25c-0.41-0.09-0.74-0.32-0.98-0.67c-0.24-0.35-0.37-0.75-0.39-1.17
					c-0.02-0.43,0.07-0.85,0.28-1.26c0.2-0.41,0.57-0.71,1.09-0.89c1.64-0.82,3.27-1.41,4.89-1.76c1.62-0.35,3.14-0.53,4.55-0.53
					c2.42,0,4.41,0.38,5.98,1.15s2.74,1.94,3.52,3.52c0.78,1.58,1.17,3.6,1.17,6.06v14.75c0,0.86-0.21,1.51-0.61,1.96
					c-0.41,0.45-1.01,0.67-1.79,0.67c-0.75,0-1.33-0.22-1.76-0.67c-0.43-0.45-0.64-1.1-0.64-1.96v-3.97h0.5
					c-0.3,1.38-0.86,2.57-1.68,3.58c-0.82,1.01-1.83,1.78-3.04,2.32C204.53,853.97,203.16,854.24,201.64,854.24z"/>
				<path class="st2" d="M236.11,864.18c-0.78,0-1.4-0.22-1.84-0.67c-0.45-0.45-0.67-1.08-0.67-1.9V828.7c0-0.86,0.22-1.5,0.67-1.93
					c0.45-0.43,1.06-0.64,1.84-0.64c0.82,0,1.44,0.21,1.87,0.64c0.43,0.43,0.64,1.07,0.64,1.93v5.08l-0.61-1.01
					c0.6-2.05,1.77-3.69,3.52-4.92c1.75-1.23,3.85-1.84,6.31-1.84c2.42,0,4.53,0.57,6.31,1.7c1.79,1.14,3.18,2.76,4.19,4.86
					c1.01,2.1,1.51,4.61,1.51,7.51c0,2.87-0.49,5.37-1.48,7.51c-0.99,2.14-2.38,3.78-4.19,4.92c-1.81,1.14-3.92,1.7-6.34,1.7
					c-2.42,0-4.51-0.61-6.26-1.84c-1.75-1.23-2.92-2.85-3.52-4.86h0.61v14.08c0,0.82-0.22,1.45-0.67,1.9
					C237.56,863.96,236.92,864.18,236.11,864.18z M246.66,850.21c1.6,0,3.01-0.39,4.22-1.17c1.21-0.78,2.15-1.92,2.82-3.41
					s1.01-3.33,1.01-5.53c0-3.28-0.73-5.77-2.18-7.49s-3.41-2.57-5.87-2.57c-1.64,0-3.06,0.38-4.27,1.15
					c-1.21,0.76-2.14,1.89-2.79,3.38c-0.65,1.49-0.98,3.33-0.98,5.53c0,3.28,0.73,5.78,2.18,7.51
					C242.25,849.35,244.21,850.21,246.66,850.21z"/>
				<path class="st2" d="M279.74,820.21c-1.01,0-1.8-0.27-2.37-0.81c-0.58-0.54-0.87-1.26-0.87-2.15c0-0.97,0.29-1.7,0.87-2.21
					c0.58-0.5,1.37-0.75,2.37-0.75c1.08,0,1.89,0.25,2.43,0.75c0.54,0.5,0.81,1.24,0.81,2.21c0,0.89-0.27,1.61-0.81,2.15
					C281.63,819.94,280.82,820.21,279.74,820.21z M279.74,854.01c-0.78,0-1.4-0.24-1.84-0.73c-0.45-0.48-0.67-1.15-0.67-2.01v-22.29
					c0-0.89,0.22-1.57,0.67-2.04c0.45-0.47,1.06-0.7,1.84-0.7c0.82,0,1.45,0.23,1.9,0.7c0.45,0.47,0.67,1.15,0.67,2.04v22.29
					c0,0.86-0.21,1.53-0.64,2.01C281.24,853.77,280.59,854.01,279.74,854.01z"/>
				<path class="st2" d="M303.82,854.12c-0.78,0-1.4-0.22-1.84-0.67c-0.45-0.45-0.67-1.1-0.67-1.96V828.7c0-0.86,0.22-1.5,0.67-1.93
					c0.45-0.43,1.06-0.64,1.84-0.64c0.78,0,1.39,0.21,1.82,0.64c0.43,0.43,0.64,1.07,0.64,1.93v4.58l-0.61-0.84
					c0.78-2.12,2.06-3.72,3.83-4.8c1.77-1.08,3.79-1.62,6.06-1.62c2.2,0,4,0.39,5.42,1.17c1.42,0.78,2.48,1.97,3.18,3.58
					c0.71,1.6,1.06,3.63,1.06,6.09v14.64c0,0.86-0.21,1.51-0.64,1.96c-0.43,0.45-1.05,0.67-1.87,0.67c-0.82,0-1.45-0.22-1.9-0.67
					s-0.67-1.1-0.67-1.96v-14.36c0-2.42-0.47-4.19-1.4-5.31c-0.93-1.12-2.42-1.68-4.47-1.68c-2.38,0-4.29,0.74-5.73,2.21
					c-1.43,1.47-2.15,3.46-2.15,5.95v13.19C306.39,853.25,305.53,854.12,303.82,854.12z"/>
				<path class="st2" d="M356.33,864.29c-2.01,0-3.96-0.22-5.84-0.67c-1.88-0.45-3.59-1.14-5.11-2.07c-0.48-0.3-0.81-0.64-0.98-1.03
					s-0.21-0.79-0.11-1.2c0.09-0.41,0.28-0.77,0.56-1.09s0.61-0.52,1.01-0.61c0.39-0.09,0.79-0.01,1.2,0.25
					c1.64,0.93,3.2,1.56,4.69,1.9c1.49,0.33,2.91,0.5,4.25,0.5c2.64,0,4.63-0.68,5.95-2.04c1.32-1.36,1.98-3.34,1.98-5.95v-6.03h0.5
					c-0.52,2.09-1.69,3.74-3.49,4.97c-1.81,1.23-3.9,1.84-6.29,1.84c-2.46,0-4.6-0.57-6.42-1.7c-1.83-1.14-3.24-2.72-4.25-4.75
					c-1.01-2.03-1.51-4.39-1.51-7.07c0-2.05,0.29-3.9,0.87-5.56c0.58-1.66,1.4-3.07,2.46-4.25c1.06-1.17,2.34-2.08,3.83-2.74
					c1.49-0.65,3.17-0.98,5.03-0.98c2.42,0,4.53,0.61,6.31,1.84c1.79,1.23,2.94,2.89,3.46,4.97l-0.61,0.78v-4.92
					c0-0.86,0.22-1.5,0.67-1.93c0.45-0.43,1.08-0.64,1.9-0.64c0.78,0,1.4,0.21,1.84,0.64c0.45,0.43,0.67,1.07,0.67,1.93v22.91
					c0,4.21-1.07,7.38-3.21,9.5C363.55,863.23,360.43,864.29,356.33,864.29z M355.78,849.04c1.68,0,3.12-0.38,4.33-1.14
					c1.21-0.76,2.14-1.86,2.79-3.3c0.65-1.43,0.98-3.12,0.98-5.06c0-2.94-0.73-5.26-2.18-6.96c-1.45-1.69-3.43-2.54-5.92-2.54
					c-1.68,0-3.12,0.38-4.33,1.15c-1.21,0.76-2.15,1.85-2.82,3.27c-0.67,1.42-1.01,3.11-1.01,5.08c0,2.91,0.73,5.21,2.21,6.93
					C351.3,848.18,353.28,849.04,355.78,849.04z"/>
				<path class="st2" d="M416.56,854.12c-0.82,0-1.45-0.23-1.9-0.7c-0.45-0.46-0.67-1.13-0.67-1.98v-34.81
					c0-0.89,0.22-1.56,0.67-2.01c0.45-0.45,1.08-0.67,1.9-0.67c0.86,0,1.51,0.22,1.96,0.67c0.45,0.45,0.67,1.12,0.67,2.01v34.81
					c0,0.86-0.21,1.52-0.64,1.98C418.11,853.89,417.45,854.12,416.56,854.12z"/>
				<path class="st2" d="M449.19,854.24c-2.38,0-4.48-0.57-6.29-1.7c-1.81-1.14-3.21-2.77-4.22-4.92c-1.01-2.14-1.51-4.65-1.51-7.51
					c0-2.91,0.49-5.41,1.48-7.51c0.99-2.1,2.38-3.72,4.19-4.86c1.81-1.14,3.92-1.7,6.34-1.7c2.42,0,4.51,0.61,6.26,1.82
					c1.75,1.21,2.92,2.82,3.52,4.83h-0.61v-16.15c0-0.86,0.21-1.5,0.64-1.93c0.43-0.43,1.05-0.64,1.87-0.64
					c0.82,0,1.45,0.21,1.9,0.64c0.45,0.43,0.67,1.07,0.67,1.93v34.97c0,0.86-0.22,1.51-0.67,1.96c-0.45,0.45-1.08,0.67-1.9,0.67
					c-0.78,0-1.4-0.22-1.84-0.67c-0.45-0.45-0.67-1.1-0.67-1.96v-5.08l0.61,1c-0.56,2.09-1.72,3.74-3.49,4.97
					C453.7,853.62,451.61,854.24,449.19,854.24z M450.36,850.21c1.64,0,3.06-0.39,4.27-1.17c1.21-0.78,2.14-1.92,2.79-3.41
					c0.65-1.49,0.98-3.33,0.98-5.53c0-3.28-0.73-5.77-2.18-7.49c-1.45-1.71-3.41-2.57-5.87-2.57c-1.6,0-3.01,0.38-4.22,1.15
					c-1.21,0.76-2.15,1.89-2.82,3.38c-0.67,1.49-1.01,3.33-1.01,5.53c0,3.28,0.73,5.78,2.21,7.51
					C445.99,849.35,447.94,850.21,450.36,850.21z"/>
				<path class="st2" d="M495,854.24c-2.94,0-5.47-0.57-7.57-1.7c-2.1-1.14-3.73-2.76-4.89-4.86c-1.15-2.1-1.73-4.59-1.73-7.46
					c0-2.83,0.57-5.31,1.7-7.43c1.14-2.12,2.7-3.78,4.69-4.97c1.99-1.19,4.27-1.79,6.84-1.79c1.82,0,3.47,0.31,4.94,0.92
					c1.47,0.61,2.73,1.5,3.77,2.65c1.04,1.16,1.83,2.56,2.37,4.22c0.54,1.66,0.81,3.53,0.81,5.61c0,0.6-0.18,1.05-0.53,1.37
					c-0.35,0.32-0.87,0.47-1.54,0.47h-19.11v-3.24h17.82l-0.95,0.78c0-1.94-0.29-3.58-0.87-4.94c-0.58-1.36-1.42-2.39-2.51-3.1
					c-1.1-0.71-2.47-1.06-4.11-1.06c-1.79,0-3.32,0.42-4.58,1.26c-1.27,0.84-2.23,2.01-2.9,3.52c-0.67,1.51-1.01,3.25-1.01,5.22
					v0.34c0,3.35,0.8,5.88,2.4,7.6c1.6,1.71,3.91,2.57,6.93,2.57c1.19,0,2.41-0.15,3.66-0.45c1.25-0.3,2.45-0.84,3.6-1.62
					c0.56-0.33,1.07-0.49,1.54-0.47c0.47,0.02,0.85,0.17,1.15,0.45c0.3,0.28,0.48,0.62,0.56,1.01c0.07,0.39,0.02,0.81-0.17,1.26
					c-0.19,0.45-0.54,0.84-1.06,1.17c-1.23,0.86-2.69,1.52-4.39,1.98C498.19,854,496.56,854.24,495,854.24z"/>
				<path class="st2" d="M531.76,854.24c-1.86,0-3.55-0.37-5.06-1.12c-1.51-0.75-2.68-1.75-3.52-3.02
					c-0.84-1.27-1.26-2.68-1.26-4.25c0-2.01,0.5-3.59,1.51-4.75c1.01-1.15,2.7-1.98,5.08-2.49c2.38-0.5,5.59-0.75,9.61-0.75h2.63
					v3.24h-2.51c-2.87,0-5.13,0.13-6.79,0.39c-1.66,0.26-2.82,0.72-3.49,1.37s-1.01,1.56-1.01,2.71c0,1.45,0.51,2.65,1.54,3.58
					c1.02,0.93,2.43,1.4,4.22,1.4c1.42,0,2.66-0.34,3.74-1.03c1.08-0.69,1.94-1.62,2.57-2.79c0.63-1.17,0.95-2.52,0.95-4.05v-6.42
					c0-2.2-0.45-3.79-1.34-4.78c-0.89-0.99-2.4-1.48-4.53-1.48c-1.23,0-2.5,0.17-3.8,0.5c-1.3,0.33-2.66,0.86-4.08,1.56
					c-0.56,0.26-1.04,0.34-1.45,0.25c-0.41-0.09-0.74-0.32-0.98-0.67c-0.24-0.35-0.37-0.75-0.39-1.17
					c-0.02-0.43,0.07-0.85,0.28-1.26c0.2-0.41,0.57-0.71,1.09-0.89c1.64-0.82,3.27-1.41,4.89-1.76c1.62-0.35,3.14-0.53,4.55-0.53
					c2.42,0,4.41,0.38,5.98,1.15c1.56,0.76,2.74,1.94,3.52,3.52c0.78,1.58,1.17,3.6,1.17,6.06v14.75c0,0.86-0.21,1.51-0.61,1.96
					c-0.41,0.45-1.01,0.67-1.79,0.67c-0.75,0-1.33-0.22-1.76-0.67c-0.43-0.45-0.64-1.1-0.64-1.96v-3.97h0.5
					c-0.3,1.38-0.86,2.57-1.68,3.58c-0.82,1.01-1.83,1.78-3.04,2.32C534.66,853.97,533.29,854.24,531.76,854.24z"/>
				<path class="st2" d="M573.1,854.24c-1.68,0-3.36-0.2-5.06-0.59c-1.7-0.39-3.29-1.07-4.78-2.04c-0.41-0.26-0.7-0.59-0.87-0.98
					c-0.17-0.39-0.22-0.78-0.17-1.17c0.06-0.39,0.21-0.73,0.48-1.03c0.26-0.3,0.59-0.47,0.98-0.53c0.39-0.06,0.81,0.05,1.26,0.31
					c1.45,0.82,2.86,1.4,4.22,1.73c1.36,0.33,2.71,0.5,4.05,0.5c2.05,0,3.59-0.37,4.64-1.12c1.04-0.74,1.56-1.73,1.56-2.96
					c0-1.04-0.34-1.85-1.03-2.43c-0.69-0.58-1.76-1.01-3.21-1.31l-5.2-1.06c-2.31-0.52-4.05-1.39-5.22-2.6
					c-1.17-1.21-1.76-2.77-1.76-4.67c0-1.68,0.46-3.14,1.37-4.39c0.91-1.25,2.19-2.21,3.83-2.88c1.64-0.67,3.52-1.01,5.64-1.01
					c1.64,0,3.19,0.21,4.67,0.64c1.47,0.43,2.8,1.07,4,1.93c0.45,0.26,0.73,0.59,0.87,0.98c0.13,0.39,0.15,0.78,0.06,1.17
					c-0.09,0.39-0.27,0.72-0.53,0.98c-0.26,0.26-0.6,0.42-1.01,0.48c-0.41,0.06-0.86-0.05-1.34-0.31c-1.08-0.75-2.19-1.28-3.32-1.59
					s-2.26-0.48-3.38-0.48c-2.01,0-3.53,0.39-4.55,1.17c-1.03,0.78-1.54,1.81-1.54,3.07c0,0.97,0.31,1.77,0.92,2.4
					c0.62,0.63,1.59,1.1,2.93,1.4l5.2,1.06c2.42,0.52,4.25,1.35,5.48,2.49c1.23,1.14,1.84,2.67,1.84,4.61c0,2.53-1,4.54-2.99,6.01
					C579.13,853.5,576.46,854.24,573.1,854.24z"/>
				<path class="st2" d="M629.47,820.21c-1.01,0-1.8-0.27-2.38-0.81s-0.87-1.26-0.87-2.15c0-0.97,0.29-1.7,0.87-2.21
					s1.37-0.75,2.38-0.75c1.08,0,1.89,0.25,2.43,0.75s0.81,1.24,0.81,2.21c0,0.89-0.27,1.61-0.81,2.15S630.55,820.21,629.47,820.21z
					 M629.47,854.01c-0.78,0-1.4-0.24-1.84-0.73c-0.45-0.48-0.67-1.15-0.67-2.01v-22.29c0-0.89,0.22-1.57,0.67-2.04
					s1.06-0.7,1.84-0.7c0.82,0,1.45,0.23,1.9,0.7s0.67,1.15,0.67,2.04v22.29c0,0.86-0.21,1.53-0.64,2.01
					C630.97,853.77,630.33,854.01,629.47,854.01z"/>
				<path class="st2" d="M653.55,854.12c-0.78,0-1.4-0.22-1.84-0.67s-0.67-1.1-0.67-1.96V828.7c0-0.86,0.22-1.5,0.67-1.93
					c0.45-0.43,1.06-0.64,1.84-0.64s1.39,0.21,1.82,0.64c0.43,0.43,0.64,1.07,0.64,1.93v4.58l-0.61-0.84
					c0.78-2.12,2.06-3.72,3.83-4.8c1.77-1.08,3.79-1.62,6.06-1.62c2.2,0,4,0.39,5.42,1.17c1.42,0.78,2.48,1.97,3.18,3.58
					c0.71,1.6,1.06,3.63,1.06,6.09v14.64c0,0.86-0.21,1.51-0.64,1.96c-0.43,0.45-1.05,0.67-1.87,0.67c-0.82,0-1.45-0.22-1.9-0.67
					c-0.45-0.45-0.67-1.1-0.67-1.96v-14.36c0-2.42-0.47-4.19-1.4-5.31c-0.93-1.12-2.42-1.68-4.47-1.68c-2.38,0-4.29,0.74-5.73,2.21
					c-1.43,1.47-2.15,3.46-2.15,5.95v13.19C656.12,853.25,655.27,854.12,653.55,854.12z"/>
				<path class="st2" d="M705.12,854.24c-2.2,0-4.03-0.39-5.5-1.17c-1.47-0.78-2.57-1.92-3.3-3.41c-0.73-1.49-1.09-3.31-1.09-5.48
					v-13.74h-3.58c-0.67,0-1.19-0.18-1.56-0.53c-0.37-0.35-0.56-0.83-0.56-1.42c0-0.63,0.19-1.12,0.56-1.45
					c0.37-0.34,0.89-0.5,1.56-0.5h3.58v-6.09c0-0.86,0.22-1.5,0.67-1.93c0.45-0.43,1.08-0.64,1.9-0.64s1.44,0.21,1.87,0.64
					c0.43,0.43,0.64,1.07,0.64,1.93v6.09h6.76c0.71,0,1.25,0.17,1.62,0.5c0.37,0.33,0.56,0.82,0.56,1.45c0,0.6-0.19,1.07-0.56,1.42
					c-0.37,0.35-0.91,0.53-1.62,0.53h-6.76v13.3c0,2.05,0.43,3.6,1.28,4.64c0.86,1.04,2.27,1.56,4.25,1.56c0.71,0,1.3-0.06,1.79-0.2
					c0.48-0.13,0.91-0.2,1.29-0.2c0.33-0.04,0.62,0.08,0.87,0.34c0.24,0.26,0.36,0.75,0.36,1.45c0,0.52-0.08,1-0.25,1.42
					c-0.17,0.43-0.49,0.72-0.98,0.87c-0.45,0.15-1.04,0.29-1.79,0.42C706.38,854.17,705.71,854.24,705.12,854.24z"/>
				<path class="st2" d="M735.96,854.24c-2.68,0-5.01-0.58-6.98-1.73c-1.97-1.15-3.5-2.79-4.58-4.92s-1.62-4.62-1.62-7.49
					c0-2.16,0.31-4.11,0.92-5.84c0.61-1.73,1.5-3.21,2.65-4.44c1.15-1.23,2.54-2.17,4.16-2.82c1.62-0.65,3.44-0.98,5.45-0.98
					c2.68,0,5.01,0.58,6.98,1.73c1.97,1.16,3.5,2.79,4.58,4.89c1.08,2.11,1.62,4.59,1.62,7.46c0,2.16-0.31,4.12-0.92,5.87
					c-0.61,1.75-1.5,3.24-2.65,4.47c-1.16,1.23-2.54,2.17-4.16,2.82S737.97,854.24,735.96,854.24z M735.96,850.21
					c1.64,0,3.06-0.39,4.27-1.17c1.21-0.78,2.14-1.92,2.79-3.41c0.65-1.49,0.98-3.33,0.98-5.53c0-3.28-0.73-5.77-2.18-7.49
					c-1.45-1.71-3.41-2.57-5.87-2.57c-1.6,0-3.01,0.38-4.22,1.15c-1.21,0.76-2.15,1.89-2.82,3.38c-0.67,1.49-1,3.33-1,5.53
					c0,3.28,0.73,5.78,2.21,7.51C731.59,849.35,733.54,850.21,735.96,850.21z"/>
				<path class="st2" d="M805.51,854.24c-1.75,0-3.45-0.14-5.08-0.42c-1.64-0.28-3.18-0.7-4.64-1.26c-1.45-0.56-2.76-1.25-3.91-2.07
					c-0.48-0.33-0.83-0.75-1.03-1.23c-0.21-0.48-0.26-0.96-0.17-1.42c0.09-0.46,0.3-0.87,0.61-1.2c0.32-0.33,0.7-0.54,1.15-0.61
					c0.45-0.07,0.93,0.08,1.45,0.45c1.71,1.15,3.51,1.99,5.39,2.51c1.88,0.52,3.96,0.78,6.23,0.78c3.28,0,5.69-0.6,7.24-1.79
					c1.54-1.19,2.32-2.76,2.32-4.69c0-1.6-0.56-2.86-1.68-3.77c-1.12-0.91-3-1.63-5.64-2.15l-5.92-1.23
					c-3.5-0.75-6.12-1.97-7.85-3.69c-1.73-1.71-2.6-4-2.6-6.87c0-1.75,0.35-3.34,1.06-4.78c0.71-1.43,1.71-2.67,3.02-3.72
					c1.3-1.04,2.84-1.84,4.61-2.4c1.77-0.56,3.73-0.84,5.89-0.84c2.31,0,4.48,0.32,6.51,0.95c2.03,0.63,3.86,1.56,5.5,2.79
					c0.45,0.34,0.75,0.74,0.89,1.2c0.15,0.47,0.18,0.92,0.08,1.37s-0.3,0.82-0.61,1.12c-0.32,0.3-0.71,0.47-1.17,0.5
					c-0.47,0.04-0.98-0.13-1.54-0.5c-1.49-1.04-3.02-1.8-4.58-2.26c-1.56-0.46-3.28-0.7-5.14-0.7c-1.9,0-3.55,0.3-4.94,0.89
					c-1.4,0.6-2.48,1.42-3.24,2.49c-0.76,1.06-1.15,2.3-1.15,3.72c0,1.71,0.52,3.05,1.56,4.02c1.04,0.97,2.79,1.71,5.25,2.23
					l5.87,1.17c3.72,0.78,6.49,1.98,8.3,3.6c1.81,1.62,2.71,3.79,2.71,6.51c0,1.71-0.34,3.26-1.03,4.64s-1.67,2.56-2.93,3.55
					c-1.27,0.99-2.81,1.75-4.64,2.29C809.83,853.97,807.79,854.24,805.51,854.24z"/>
				<path class="st2" d="M839.82,864.18c-0.78,0-1.4-0.22-1.84-0.67c-0.45-0.45-0.67-1.08-0.67-1.9V828.7c0-0.86,0.22-1.5,0.67-1.93
					c0.45-0.43,1.06-0.64,1.84-0.64c0.82,0,1.44,0.21,1.87,0.64c0.43,0.43,0.64,1.07,0.64,1.93v5.08l-0.61-1.01
					c0.6-2.05,1.77-3.69,3.52-4.92c1.75-1.23,3.86-1.84,6.31-1.84c2.42,0,4.53,0.57,6.31,1.7c1.79,1.14,3.18,2.76,4.19,4.86
					c1.01,2.1,1.51,4.61,1.51,7.51c0,2.87-0.49,5.37-1.48,7.51c-0.99,2.14-2.38,3.78-4.19,4.92c-1.81,1.14-3.92,1.7-6.34,1.7
					c-2.42,0-4.51-0.61-6.26-1.84s-2.92-2.85-3.52-4.86h0.61v14.08c0,0.82-0.22,1.45-0.67,1.9
					C841.27,863.96,840.64,864.18,839.82,864.18z M850.38,850.21c1.6,0,3.01-0.39,4.22-1.17c1.21-0.78,2.15-1.92,2.82-3.41
					c0.67-1.49,1.01-3.33,1.01-5.53c0-3.28-0.73-5.77-2.18-7.49c-1.45-1.71-3.41-2.57-5.87-2.57c-1.64,0-3.06,0.38-4.27,1.15
					c-1.21,0.76-2.14,1.89-2.79,3.38c-0.65,1.49-0.98,3.33-0.98,5.53c0,3.28,0.73,5.78,2.18,7.51
					C845.96,849.35,847.92,850.21,850.38,850.21z"/>
				<path class="st2" d="M889.6,854.24c-1.86,0-3.55-0.37-5.06-1.12c-1.51-0.75-2.68-1.75-3.52-3.02c-0.84-1.27-1.26-2.68-1.26-4.25
					c0-2.01,0.5-3.59,1.51-4.75c1-1.15,2.7-1.98,5.08-2.49c2.38-0.5,5.59-0.75,9.61-0.75h2.63v3.24h-2.51
					c-2.87,0-5.13,0.13-6.79,0.39c-1.66,0.26-2.82,0.72-3.49,1.37c-0.67,0.65-1.01,1.56-1.01,2.71c0,1.45,0.51,2.65,1.54,3.58
					c1.02,0.93,2.43,1.4,4.22,1.4c1.42,0,2.66-0.34,3.74-1.03s1.94-1.62,2.57-2.79c0.63-1.17,0.95-2.52,0.95-4.05v-6.42
					c0-2.2-0.45-3.79-1.34-4.78c-0.89-0.99-2.4-1.48-4.53-1.48c-1.23,0-2.5,0.17-3.8,0.5c-1.3,0.33-2.66,0.86-4.08,1.56
					c-0.56,0.26-1.04,0.34-1.45,0.25c-0.41-0.09-0.74-0.32-0.98-0.67s-0.37-0.75-0.39-1.17c-0.02-0.43,0.07-0.85,0.28-1.26
					c0.2-0.41,0.57-0.71,1.09-0.89c1.64-0.82,3.27-1.41,4.89-1.76c1.62-0.35,3.14-0.53,4.55-0.53c2.42,0,4.41,0.38,5.98,1.15
					c1.56,0.76,2.74,1.94,3.52,3.52c0.78,1.58,1.17,3.6,1.17,6.06v14.75c0,0.86-0.21,1.51-0.61,1.96c-0.41,0.45-1.01,0.67-1.79,0.67
					c-0.75,0-1.33-0.22-1.76-0.67c-0.43-0.45-0.64-1.1-0.64-1.96v-3.97h0.5c-0.3,1.38-0.86,2.57-1.68,3.58
					c-0.82,1.01-1.83,1.78-3.04,2.32C892.49,853.97,891.12,854.24,889.6,854.24z"/>
				<path class="st2" d="M933.34,854.24c-2.76,0-5.14-0.59-7.15-1.76c-2.01-1.17-3.56-2.83-4.64-4.97
					c-1.08-2.14-1.62-4.67-1.62-7.57c0-2.16,0.31-4.1,0.92-5.81c0.61-1.71,1.5-3.17,2.65-4.39c1.15-1.21,2.56-2.13,4.22-2.76
					c1.66-0.63,3.53-0.95,5.62-0.95c1.3,0,2.68,0.21,4.13,0.61c1.45,0.41,2.79,1.08,4.02,2.01c0.41,0.3,0.67,0.64,0.78,1.03
					c0.11,0.39,0.12,0.79,0.03,1.2c-0.09,0.41-0.28,0.75-0.56,1.03s-0.63,0.44-1.06,0.47c-0.43,0.04-0.89-0.09-1.37-0.39
					c-0.89-0.67-1.83-1.15-2.82-1.45c-0.99-0.3-1.93-0.45-2.82-0.45c-1.38,0-2.6,0.22-3.66,0.67c-1.06,0.45-1.96,1.09-2.68,1.93
					c-0.73,0.84-1.28,1.86-1.65,3.07c-0.37,1.21-0.56,2.62-0.56,4.22c0,3.17,0.74,5.65,2.23,7.46c1.49,1.81,3.59,2.71,6.31,2.71
					c0.89,0,1.82-0.14,2.79-0.42c0.97-0.28,1.92-0.75,2.85-1.42c0.48-0.3,0.93-0.42,1.34-0.36c0.41,0.06,0.75,0.22,1.03,0.5
					s0.46,0.61,0.53,1c0.07,0.39,0.05,0.79-0.08,1.2c-0.13,0.41-0.4,0.75-0.81,1.01c-1.19,0.89-2.5,1.55-3.91,1.96
					C936,854.03,934.64,854.24,933.34,854.24z"/>
				<path class="st2" d="M970.38,854.24c-2.94,0-5.47-0.57-7.57-1.7c-2.11-1.14-3.74-2.76-4.89-4.86c-1.16-2.1-1.73-4.59-1.73-7.46
					c0-2.83,0.57-5.31,1.7-7.43c1.14-2.12,2.7-3.78,4.69-4.97c1.99-1.19,4.27-1.79,6.84-1.79c1.82,0,3.47,0.31,4.94,0.92
					c1.47,0.61,2.73,1.5,3.77,2.65c1.04,1.16,1.83,2.56,2.37,4.22s0.81,3.53,0.81,5.61c0,0.6-0.18,1.05-0.53,1.37
					c-0.35,0.32-0.87,0.47-1.54,0.47h-19.11v-3.24h17.82l-0.95,0.78c0-1.94-0.29-3.58-0.87-4.94c-0.58-1.36-1.42-2.39-2.51-3.1
					c-1.1-0.71-2.47-1.06-4.11-1.06c-1.79,0-3.32,0.42-4.58,1.26c-1.27,0.84-2.23,2.01-2.91,3.52c-0.67,1.51-1.01,3.25-1.01,5.22
					v0.34c0,3.35,0.8,5.88,2.4,7.6c1.6,1.71,3.91,2.57,6.93,2.57c1.19,0,2.41-0.15,3.66-0.45c1.25-0.3,2.45-0.84,3.6-1.62
					c0.56-0.33,1.07-0.49,1.54-0.47s0.85,0.17,1.15,0.45c0.3,0.28,0.48,0.62,0.56,1.01c0.07,0.39,0.02,0.81-0.17,1.26
					c-0.19,0.45-0.54,0.84-1.06,1.17c-1.23,0.86-2.69,1.52-4.39,1.98C973.58,854,971.95,854.24,970.38,854.24z"/>
				<path class="st2" d="M1007.87,854.24c-1.68,0-3.36-0.2-5.06-0.59c-1.7-0.39-3.29-1.07-4.78-2.04c-0.41-0.26-0.7-0.59-0.87-0.98
					c-0.17-0.39-0.22-0.78-0.17-1.17c0.06-0.39,0.21-0.73,0.48-1.03c0.26-0.3,0.59-0.47,0.98-0.53c0.39-0.06,0.81,0.05,1.26,0.31
					c1.45,0.82,2.86,1.4,4.22,1.73c1.36,0.33,2.71,0.5,4.05,0.5c2.05,0,3.59-0.37,4.64-1.12c1.04-0.74,1.56-1.73,1.56-2.96
					c0-1.04-0.34-1.85-1.03-2.43c-0.69-0.58-1.76-1.01-3.21-1.31l-5.2-1.06c-2.31-0.52-4.05-1.39-5.22-2.6
					c-1.17-1.21-1.76-2.77-1.76-4.67c0-1.68,0.46-3.14,1.37-4.39c0.91-1.25,2.19-2.21,3.83-2.88c1.64-0.67,3.52-1.01,5.64-1.01
					c1.64,0,3.19,0.21,4.67,0.64c1.47,0.43,2.8,1.07,4,1.93c0.45,0.26,0.73,0.59,0.87,0.98c0.13,0.39,0.15,0.78,0.06,1.17
					c-0.09,0.39-0.27,0.72-0.53,0.98c-0.26,0.26-0.6,0.42-1.01,0.48c-0.41,0.06-0.86-0.05-1.34-0.31c-1.08-0.75-2.19-1.28-3.32-1.59
					s-2.26-0.48-3.38-0.48c-2.01,0-3.53,0.39-4.55,1.17c-1.03,0.78-1.54,1.81-1.54,3.07c0,0.97,0.31,1.77,0.92,2.4
					c0.62,0.63,1.59,1.1,2.93,1.4l5.2,1.06c2.42,0.52,4.25,1.35,5.48,2.49c1.23,1.14,1.84,2.67,1.84,4.61c0,2.53-1,4.54-2.99,6.01
					C1013.89,853.5,1011.22,854.24,1007.87,854.24z"/>
				<path class="st2" d="M122.8,950.74c-3.91,0-7.26-0.82-10.06-2.46s-4.94-3.98-6.45-7.01c-1.51-3.04-2.26-6.62-2.26-10.75
					c0-3.09,0.43-5.88,1.28-8.35c0.86-2.48,2.09-4.6,3.69-6.37c1.6-1.77,3.57-3.12,5.89-4.05c2.33-0.93,4.96-1.4,7.91-1.4
					c2.23,0,4.39,0.32,6.45,0.95c2.07,0.63,3.85,1.53,5.34,2.68c0.6,0.41,0.99,0.88,1.17,1.4c0.19,0.52,0.21,1.02,0.08,1.48
					c-0.13,0.47-0.37,0.86-0.73,1.17c-0.35,0.32-0.79,0.48-1.31,0.5c-0.52,0.02-1.08-0.18-1.68-0.59c-1.3-1.01-2.73-1.74-4.27-2.21
					c-1.55-0.46-3.19-0.7-4.94-0.7c-2.87,0-5.3,0.61-7.29,1.82c-1.99,1.21-3.5,2.96-4.53,5.25c-1.02,2.29-1.54,5.09-1.54,8.41
					c0,3.28,0.51,6.08,1.54,8.41c1.02,2.33,2.53,4.1,4.53,5.31c1.99,1.21,4.42,1.82,7.29,1.82c1.75,0,3.42-0.24,5-0.73
					c1.58-0.48,3.04-1.23,4.39-2.24c0.6-0.41,1.15-0.59,1.65-0.56c0.5,0.04,0.92,0.2,1.26,0.47c0.33,0.28,0.57,0.65,0.7,1.12
					c0.13,0.47,0.12,0.94-0.03,1.42c-0.15,0.48-0.48,0.91-1.01,1.29c-1.53,1.3-3.34,2.28-5.45,2.93
					C127.32,950.41,125.11,950.74,122.8,950.74z"/>
				<path class="st2" d="M159.9,950.63c-0.86,0-1.51-0.22-1.96-0.67c-0.45-0.45-0.67-1.1-0.67-1.96v-22.79
					c0-0.86,0.22-1.5,0.67-1.93c0.45-0.43,1.06-0.64,1.84-0.64c0.78,0,1.39,0.21,1.82,0.64c0.43,0.43,0.64,1.07,0.64,1.93v4.3h-0.56
					c0.6-2.23,1.71-3.93,3.35-5.08c1.64-1.15,3.71-1.81,6.2-1.96c0.6-0.04,1.08,0.1,1.45,0.42c0.37,0.32,0.58,0.85,0.61,1.59
					c0.04,0.71-0.13,1.28-0.5,1.7c-0.37,0.43-0.95,0.68-1.73,0.75l-1.01,0.06c-2.46,0.26-4.35,1.06-5.67,2.4
					c-1.32,1.34-1.98,3.18-1.98,5.53V948c0,0.86-0.21,1.51-0.64,1.96C161.34,950.4,160.72,950.63,159.9,950.63z"/>
				<path class="st2" d="M204.71,950.74c-2.94,0-5.47-0.57-7.57-1.7c-2.1-1.14-3.73-2.76-4.89-4.86c-1.15-2.1-1.73-4.59-1.73-7.46
					c0-2.83,0.57-5.31,1.7-7.43c1.14-2.12,2.7-3.78,4.69-4.97c1.99-1.19,4.27-1.79,6.84-1.79c1.82,0,3.47,0.31,4.94,0.92
					c1.47,0.61,2.73,1.5,3.77,2.65c1.04,1.16,1.83,2.56,2.37,4.22c0.54,1.66,0.81,3.53,0.81,5.61c0,0.6-0.18,1.05-0.53,1.37
					c-0.35,0.32-0.87,0.47-1.54,0.47h-19.11v-3.24h17.82l-0.95,0.78c0-1.94-0.29-3.58-0.87-4.94c-0.58-1.36-1.42-2.39-2.51-3.1
					c-1.1-0.71-2.47-1.06-4.11-1.06c-1.79,0-3.32,0.42-4.58,1.26c-1.27,0.84-2.23,2.01-2.9,3.52c-0.67,1.51-1.01,3.25-1.01,5.22
					v0.34c0,3.35,0.8,5.88,2.4,7.6c1.6,1.71,3.91,2.57,6.93,2.57c1.19,0,2.41-0.15,3.66-0.45c1.25-0.3,2.45-0.84,3.6-1.62
					c0.56-0.33,1.07-0.49,1.54-0.47c0.47,0.02,0.85,0.17,1.15,0.45c0.3,0.28,0.48,0.62,0.56,1.01c0.07,0.39,0.02,0.81-0.17,1.26
					c-0.19,0.45-0.54,0.84-1.06,1.17c-1.23,0.86-2.69,1.52-4.39,1.98C207.9,950.5,206.27,950.74,204.71,950.74z"/>
				<path class="st2" d="M245.38,950.74c-1.86,0-3.55-0.37-5.06-1.12c-1.51-0.75-2.68-1.75-3.52-3.02
					c-0.84-1.27-1.26-2.68-1.26-4.25c0-2.01,0.5-3.59,1.51-4.75c1.01-1.15,2.7-1.98,5.08-2.49c2.38-0.5,5.59-0.75,9.61-0.75h2.63
					v3.24h-2.51c-2.87,0-5.13,0.13-6.79,0.39c-1.66,0.26-2.82,0.72-3.49,1.37s-1.01,1.56-1.01,2.71c0,1.45,0.51,2.65,1.54,3.58
					c1.02,0.93,2.43,1.4,4.22,1.4c1.42,0,2.66-0.34,3.74-1.03c1.08-0.69,1.94-1.62,2.57-2.79c0.63-1.17,0.95-2.52,0.95-4.05v-6.42
					c0-2.2-0.45-3.79-1.34-4.78c-0.89-0.99-2.4-1.48-4.53-1.48c-1.23,0-2.5,0.17-3.8,0.5c-1.3,0.33-2.66,0.86-4.08,1.56
					c-0.56,0.26-1.04,0.34-1.45,0.25c-0.41-0.09-0.74-0.32-0.98-0.67c-0.24-0.35-0.37-0.75-0.39-1.17
					c-0.02-0.43,0.07-0.85,0.28-1.26c0.2-0.41,0.57-0.71,1.09-0.89c1.64-0.82,3.27-1.41,4.89-1.76c1.62-0.35,3.14-0.53,4.55-0.53
					c2.42,0,4.41,0.38,5.98,1.15s2.74,1.94,3.52,3.52c0.78,1.58,1.17,3.6,1.17,6.06V948c0,0.86-0.21,1.51-0.61,1.96
					c-0.41,0.45-1.01,0.67-1.79,0.67c-0.75,0-1.33-0.22-1.76-0.67c-0.43-0.45-0.64-1.1-0.64-1.96v-3.97h0.5
					c-0.3,1.38-0.86,2.57-1.68,3.58c-0.82,1.01-1.83,1.78-3.04,2.32C248.28,950.47,246.91,950.74,245.38,950.74z"/>
				<path class="st2" d="M292.53,950.74c-2.2,0-4.03-0.39-5.5-1.17c-1.47-0.78-2.57-1.92-3.3-3.41c-0.73-1.49-1.09-3.31-1.09-5.48
					v-13.74h-3.58c-0.67,0-1.19-0.18-1.56-0.53c-0.37-0.35-0.56-0.83-0.56-1.42c0-0.63,0.19-1.12,0.56-1.45
					c0.37-0.34,0.89-0.5,1.56-0.5h3.58v-6.09c0-0.86,0.22-1.5,0.67-1.93c0.45-0.43,1.08-0.64,1.9-0.64c0.82,0,1.44,0.21,1.87,0.64
					c0.43,0.43,0.64,1.07,0.64,1.93v6.09h6.76c0.71,0,1.25,0.17,1.62,0.5c0.37,0.33,0.56,0.82,0.56,1.45c0,0.6-0.19,1.07-0.56,1.42
					c-0.37,0.35-0.91,0.53-1.62,0.53h-6.76v13.3c0,2.05,0.43,3.6,1.29,4.64c0.86,1.04,2.27,1.56,4.25,1.56c0.71,0,1.3-0.06,1.79-0.2
					c0.48-0.13,0.91-0.2,1.29-0.2c0.33-0.04,0.62,0.08,0.87,0.34c0.24,0.26,0.36,0.75,0.36,1.45c0,0.52-0.08,1-0.25,1.42
					c-0.17,0.43-0.49,0.72-0.98,0.87c-0.45,0.15-1.04,0.29-1.79,0.42C293.8,950.67,293.13,950.74,292.53,950.74z"/>
				<path class="st2" d="M328.29,950.74c-2.94,0-5.47-0.57-7.57-1.7c-2.1-1.14-3.73-2.76-4.89-4.86c-1.15-2.1-1.73-4.59-1.73-7.46
					c0-2.83,0.57-5.31,1.7-7.43c1.14-2.12,2.7-3.78,4.69-4.97c1.99-1.19,4.27-1.79,6.84-1.79c1.82,0,3.47,0.31,4.94,0.92
					c1.47,0.61,2.73,1.5,3.77,2.65c1.04,1.16,1.83,2.56,2.37,4.22c0.54,1.66,0.81,3.53,0.81,5.61c0,0.6-0.18,1.05-0.53,1.37
					c-0.35,0.32-0.87,0.47-1.54,0.47h-19.11v-3.24h17.82l-0.95,0.78c0-1.94-0.29-3.58-0.87-4.94c-0.58-1.36-1.42-2.39-2.51-3.1
					c-1.1-0.71-2.47-1.06-4.11-1.06c-1.79,0-3.32,0.42-4.58,1.26c-1.27,0.84-2.23,2.01-2.9,3.52c-0.67,1.51-1.01,3.25-1.01,5.22
					v0.34c0,3.35,0.8,5.88,2.4,7.6c1.6,1.71,3.91,2.57,6.93,2.57c1.19,0,2.41-0.15,3.66-0.45c1.25-0.3,2.45-0.84,3.6-1.62
					c0.56-0.33,1.07-0.49,1.54-0.47c0.47,0.02,0.85,0.17,1.15,0.45c0.3,0.28,0.48,0.62,0.56,1.01c0.07,0.39,0.02,0.81-0.17,1.26
					c-0.19,0.45-0.54,0.84-1.06,1.17c-1.23,0.86-2.69,1.52-4.39,1.98C331.48,950.5,329.85,950.74,328.29,950.74z"/>
				<path class="st2" d="M400.19,945.32c-1.83,0-3.5-0.44-5.03-1.31c-1.53-0.88-2.76-2.06-3.69-3.55c-0.93-1.49-1.4-3.17-1.4-5.03
					c0-1.71,0.44-3.32,1.31-4.83c0.87-1.51,2.08-2.74,3.6-3.69c1.53-0.95,3.26-1.42,5.2-1.42c1.79,0,3.45,0.43,5,1.29
					c1.55,0.86,2.78,2.04,3.72,3.55c0.93,1.51,1.4,3.21,1.4,5.11c0,1.83-0.46,3.48-1.37,4.97c-0.91,1.49-2.13,2.68-3.66,3.58
					C403.75,944.87,402.05,945.32,400.19,945.32z"/>
				<path class="st2" d="M466.45,950.23c-0.89,0-1.58-0.24-2.07-0.73c-0.48-0.48-0.73-1.17-0.73-2.07v-33.8
					c0-0.89,0.24-1.58,0.73-2.07c0.48-0.48,1.17-0.73,2.07-0.73h10.78c6.44,0,11.41,1.69,14.89,5.06c3.48,3.37,5.22,8.24,5.22,14.61
					c0,3.17-0.45,5.98-1.34,8.44c-0.89,2.46-2.2,4.52-3.91,6.17c-1.71,1.66-3.81,2.92-6.29,3.8c-2.48,0.88-5.34,1.31-8.58,1.31
					H466.45z M468.85,945.82h8.04c2.53,0,4.73-0.32,6.59-0.95c1.86-0.63,3.42-1.58,4.67-2.85c1.25-1.27,2.19-2.86,2.82-4.78
					c0.63-1.92,0.95-4.16,0.95-6.73c0-5.1-1.26-8.92-3.77-11.45c-2.51-2.53-6.27-3.8-11.26-3.8h-8.04V945.82z"/>
				<path class="st2" d="M532.04,950.74c-2.94,0-5.47-0.57-7.57-1.7c-2.1-1.14-3.73-2.76-4.89-4.86c-1.15-2.1-1.73-4.59-1.73-7.46
					c0-2.83,0.57-5.31,1.7-7.43c1.14-2.12,2.7-3.78,4.69-4.97c1.99-1.19,4.27-1.79,6.84-1.79c1.82,0,3.47,0.31,4.94,0.92
					c1.47,0.61,2.73,1.5,3.77,2.65c1.04,1.16,1.83,2.56,2.37,4.22c0.54,1.66,0.81,3.53,0.81,5.61c0,0.6-0.18,1.05-0.53,1.37
					s-0.87,0.47-1.54,0.47h-19.11v-3.24h17.82l-0.95,0.78c0-1.94-0.29-3.58-0.87-4.94c-0.58-1.36-1.42-2.39-2.51-3.1
					c-1.1-0.71-2.47-1.06-4.11-1.06c-1.79,0-3.32,0.42-4.58,1.26c-1.27,0.84-2.23,2.01-2.9,3.52c-0.67,1.51-1.01,3.25-1.01,5.22
					v0.34c0,3.35,0.8,5.88,2.4,7.6c1.6,1.71,3.91,2.57,6.93,2.57c1.19,0,2.41-0.15,3.66-0.45c1.25-0.3,2.45-0.84,3.6-1.62
					c0.56-0.33,1.07-0.49,1.54-0.47c0.47,0.02,0.85,0.17,1.15,0.45s0.48,0.62,0.56,1.01c0.07,0.39,0.02,0.81-0.17,1.26
					c-0.19,0.45-0.54,0.84-1.06,1.17c-1.23,0.86-2.69,1.52-4.39,1.98C535.23,950.5,533.6,950.74,532.04,950.74z"/>
				<path class="st2" d="M573.44,950.74c-1.68,0-3.36-0.2-5.06-0.59c-1.7-0.39-3.29-1.07-4.78-2.04c-0.41-0.26-0.7-0.59-0.87-0.98
					c-0.17-0.39-0.22-0.78-0.17-1.17c0.06-0.39,0.21-0.73,0.48-1.03c0.26-0.3,0.59-0.47,0.98-0.53c0.39-0.06,0.81,0.05,1.26,0.31
					c1.45,0.82,2.86,1.4,4.22,1.73c1.36,0.33,2.71,0.5,4.05,0.5c2.05,0,3.59-0.37,4.64-1.12c1.04-0.74,1.56-1.73,1.56-2.96
					c0-1.04-0.34-1.85-1.03-2.43c-0.69-0.58-1.76-1.01-3.21-1.31l-5.2-1.06c-2.31-0.52-4.05-1.39-5.22-2.6
					c-1.17-1.21-1.76-2.77-1.76-4.67c0-1.68,0.46-3.14,1.37-4.39c0.91-1.25,2.19-2.21,3.83-2.88c1.64-0.67,3.52-1.01,5.64-1.01
					c1.64,0,3.19,0.21,4.67,0.64c1.47,0.43,2.8,1.07,4,1.93c0.45,0.26,0.73,0.59,0.87,0.98c0.13,0.39,0.15,0.78,0.06,1.17
					c-0.09,0.39-0.27,0.72-0.53,0.98c-0.26,0.26-0.6,0.42-1.01,0.48c-0.41,0.06-0.86-0.05-1.34-0.31c-1.08-0.75-2.19-1.28-3.32-1.59
					s-2.26-0.48-3.38-0.48c-2.01,0-3.53,0.39-4.55,1.17c-1.03,0.78-1.54,1.81-1.54,3.07c0,0.97,0.31,1.77,0.92,2.4
					c0.62,0.63,1.59,1.1,2.93,1.4l5.2,1.06c2.42,0.52,4.25,1.35,5.48,2.49c1.23,1.14,1.84,2.67,1.84,4.61c0,2.53-1,4.54-2.99,6.01
					C579.46,950,576.79,950.74,573.44,950.74z"/>
				<path class="st2" d="M608.3,916.71c-1.01,0-1.8-0.27-2.38-0.81s-0.87-1.26-0.87-2.15c0-0.97,0.29-1.7,0.87-2.21
					s1.37-0.75,2.38-0.75c1.08,0,1.89,0.25,2.43,0.75s0.81,1.24,0.81,2.21c0,0.89-0.27,1.61-0.81,2.15S609.38,916.71,608.3,916.71z
					 M608.3,950.51c-0.78,0-1.4-0.24-1.84-0.73c-0.45-0.48-0.67-1.15-0.67-2.01v-22.29c0-0.89,0.22-1.57,0.67-2.04
					s1.06-0.7,1.84-0.7c0.82,0,1.45,0.23,1.9,0.7s0.67,1.15,0.67,2.04v22.29c0,0.86-0.21,1.53-0.64,2.01
					C609.8,950.27,609.16,950.51,608.3,950.51z"/>
				<path class="st2" d="M646.01,960.79c-2.01,0-3.96-0.22-5.84-0.67c-1.88-0.45-3.58-1.14-5.11-2.07c-0.48-0.3-0.81-0.64-0.98-1.03
					s-0.21-0.79-0.11-1.2c0.09-0.41,0.28-0.77,0.56-1.09s0.61-0.52,1-0.61c0.39-0.09,0.79-0.01,1.2,0.25
					c1.64,0.93,3.2,1.56,4.69,1.9c1.49,0.33,2.91,0.5,4.25,0.5c2.64,0,4.63-0.68,5.95-2.04c1.32-1.36,1.98-3.34,1.98-5.95v-6.03h0.5
					c-0.52,2.09-1.69,3.74-3.49,4.97c-1.81,1.23-3.9,1.84-6.29,1.84c-2.46,0-4.6-0.57-6.42-1.7c-1.83-1.14-3.24-2.72-4.25-4.75
					s-1.51-4.39-1.51-7.07c0-2.05,0.29-3.9,0.87-5.56c0.58-1.66,1.4-3.07,2.46-4.25c1.06-1.17,2.34-2.08,3.83-2.74
					c1.49-0.65,3.17-0.98,5.03-0.98c2.42,0,4.53,0.61,6.31,1.84c1.79,1.23,2.94,2.89,3.46,4.97l-0.62,0.78v-4.92
					c0-0.86,0.22-1.5,0.67-1.93c0.45-0.43,1.08-0.64,1.9-0.64c0.78,0,1.4,0.21,1.84,0.64c0.45,0.43,0.67,1.07,0.67,1.93v22.91
					c0,4.21-1.07,7.38-3.21,9.5C653.23,959.73,650.11,960.79,646.01,960.79z M645.45,945.54c1.68,0,3.12-0.38,4.33-1.14
					c1.21-0.76,2.14-1.86,2.79-3.3c0.65-1.43,0.98-3.12,0.98-5.06c0-2.94-0.73-5.26-2.18-6.96c-1.45-1.69-3.43-2.54-5.92-2.54
					c-1.68,0-3.12,0.38-4.33,1.15c-1.21,0.76-2.15,1.85-2.82,3.27c-0.67,1.42-1,3.11-1,5.08c0,2.91,0.73,5.21,2.21,6.93
					S642.96,945.54,645.45,945.54z"/>
				<path class="st2" d="M684,950.63c-0.78,0-1.4-0.22-1.84-0.67s-0.67-1.1-0.67-1.96v-22.79c0-0.86,0.22-1.5,0.67-1.93
					c0.45-0.43,1.06-0.64,1.84-0.64s1.39,0.21,1.82,0.64c0.43,0.43,0.64,1.07,0.64,1.93v4.58l-0.61-0.84
					c0.78-2.12,2.06-3.72,3.83-4.8c1.77-1.08,3.79-1.62,6.06-1.62c2.2,0,4,0.39,5.42,1.17c1.42,0.78,2.48,1.97,3.18,3.58
					c0.71,1.6,1.06,3.63,1.06,6.09V948c0,0.86-0.21,1.51-0.64,1.96c-0.43,0.45-1.05,0.67-1.87,0.67c-0.82,0-1.45-0.22-1.9-0.67
					c-0.45-0.45-0.67-1.1-0.67-1.96v-14.36c0-2.42-0.47-4.19-1.4-5.31c-0.93-1.12-2.42-1.68-4.47-1.68c-2.38,0-4.29,0.74-5.73,2.21
					c-1.43,1.47-2.15,3.46-2.15,5.95V948C686.57,949.75,685.71,950.63,684,950.63z"/>
				<path class="st2" d="M768.08,945.32c-1.83,0-3.5-0.44-5.03-1.31c-1.53-0.88-2.76-2.06-3.69-3.55c-0.93-1.49-1.4-3.17-1.4-5.03
					c0-1.71,0.44-3.32,1.31-4.83c0.88-1.51,2.08-2.74,3.6-3.69c1.53-0.95,3.26-1.42,5.2-1.42c1.79,0,3.45,0.43,5,1.29
					c1.54,0.86,2.78,2.04,3.72,3.55c0.93,1.51,1.4,3.21,1.4,5.11c0,1.83-0.46,3.48-1.37,4.97c-0.91,1.49-2.13,2.68-3.66,3.58
					C771.64,944.87,769.95,945.32,768.08,945.32z"/>
				<path class="st2" d="M834.34,950.23c-0.89,0-1.58-0.24-2.07-0.73c-0.49-0.48-0.73-1.17-0.73-2.07v-33.8
					c0-0.89,0.24-1.58,0.73-2.07c0.48-0.48,1.17-0.73,2.07-0.73h13.24c2.72,0,5.04,0.41,6.96,1.23c1.92,0.82,3.38,1.99,4.39,3.52
					c1,1.53,1.51,3.37,1.51,5.53c0,2.42-0.71,4.45-2.12,6.09c-1.42,1.64-3.35,2.74-5.81,3.3v-0.84c2.76,0.33,4.93,1.35,6.51,3.04
					c1.58,1.7,2.38,3.9,2.38,6.62c0,3.5-1.15,6.19-3.44,8.07c-2.29,1.88-5.52,2.82-9.69,2.82H834.34z M836.58,928.22h10.22
					c2.83,0,4.96-0.57,6.4-1.7c1.43-1.14,2.15-2.78,2.15-4.94c0-2.16-0.72-3.81-2.15-4.94c-1.43-1.14-3.57-1.7-6.4-1.7h-10.22
					V928.22z M836.58,946.16h11.12c2.91,0,5.07-0.57,6.48-1.7c1.42-1.14,2.12-2.88,2.12-5.22c0-2.35-0.71-4.08-2.12-5.2
					c-1.42-1.12-3.58-1.68-6.48-1.68h-11.12V946.16z"/>
				<path class="st2" d="M893.28,950.74c-2.2,0-4.03-0.41-5.5-1.23c-1.47-0.82-2.56-2.03-3.27-3.63c-0.71-1.6-1.06-3.61-1.06-6.03
					v-14.64c0-0.86,0.21-1.5,0.64-1.93c0.43-0.43,1.05-0.64,1.87-0.64s1.45,0.21,1.9,0.64c0.45,0.43,0.67,1.07,0.67,1.93v14.64
					c0,2.31,0.46,4.01,1.4,5.11c0.93,1.1,2.4,1.65,4.41,1.65c2.23,0,4.05-0.74,5.45-2.23c1.4-1.49,2.09-3.46,2.09-5.92v-13.24
					c0-0.86,0.21-1.5,0.64-1.93c0.43-0.43,1.05-0.64,1.87-0.64c0.82,0,1.45,0.21,1.9,0.64c0.45,0.43,0.67,1.07,0.67,1.93V948
					c0,1.75-0.82,2.63-2.46,2.63c-0.82,0-1.44-0.22-1.87-0.67S902,948.86,902,948v-4.86l0.73,0.95c-0.75,2.16-1.95,3.81-3.6,4.94
					C897.46,950.17,895.52,950.74,893.28,950.74z"/>
				<path class="st2" d="M932.39,916.71c-1.01,0-1.8-0.27-2.38-0.81s-0.87-1.26-0.87-2.15c0-0.97,0.29-1.7,0.87-2.21
					s1.37-0.75,2.38-0.75c1.08,0,1.89,0.25,2.43,0.75s0.81,1.24,0.81,2.21c0,0.89-0.27,1.61-0.81,2.15S933.47,916.71,932.39,916.71z
					 M932.39,950.51c-0.78,0-1.4-0.24-1.84-0.73c-0.45-0.48-0.67-1.15-0.67-2.01v-22.29c0-0.89,0.22-1.57,0.67-2.04
					s1.06-0.7,1.84-0.7c0.82,0,1.45,0.23,1.9,0.7s0.67,1.15,0.67,2.04v22.29c0,0.86-0.21,1.53-0.64,2.01
					C933.89,950.27,933.25,950.51,932.39,950.51z"/>
				<path class="st2" d="M966.42,950.74c-2.79,0-4.92-0.83-6.37-2.49c-1.45-1.66-2.18-4.05-2.18-7.18v-28.05
					c0-0.86,0.22-1.5,0.67-1.93s1.06-0.64,1.84-0.64c0.82,0,1.45,0.21,1.9,0.64s0.67,1.07,0.67,1.93v27.66c0,1.94,0.4,3.38,1.2,4.33
					c0.8,0.95,1.95,1.42,3.44,1.42c0.33,0,0.63-0.01,0.89-0.03c0.26-0.02,0.52-0.05,0.78-0.08c0.41-0.04,0.71,0.08,0.89,0.34
					s0.28,0.78,0.28,1.56c0,0.71-0.16,1.26-0.48,1.65c-0.32,0.39-0.83,0.64-1.54,0.75c-0.33,0.04-0.67,0.07-1.01,0.08
					S966.75,950.74,966.42,950.74z"/>
				<path class="st2" d="M999.55,950.74c-2.38,0-4.48-0.57-6.29-1.7c-1.81-1.14-3.21-2.77-4.22-4.92s-1.51-4.65-1.51-7.51
					c0-2.91,0.49-5.41,1.48-7.51c0.99-2.1,2.38-3.72,4.19-4.86c1.81-1.14,3.92-1.7,6.34-1.7s4.51,0.61,6.26,1.82
					c1.75,1.21,2.92,2.82,3.52,4.83h-0.61v-16.15c0-0.86,0.21-1.5,0.64-1.93c0.43-0.43,1.05-0.64,1.87-0.64s1.45,0.21,1.9,0.64
					c0.45,0.43,0.67,1.07,0.67,1.93V948c0,0.86-0.22,1.51-0.67,1.96c-0.45,0.45-1.08,0.67-1.9,0.67c-0.78,0-1.4-0.22-1.84-0.67
					c-0.45-0.45-0.67-1.1-0.67-1.96v-5.08l0.61,1c-0.56,2.09-1.72,3.74-3.49,4.97C1004.06,950.12,1001.97,950.74,999.55,950.74z
					 M1000.72,946.71c1.64,0,3.06-0.39,4.27-1.17c1.21-0.78,2.14-1.92,2.79-3.41c0.65-1.49,0.98-3.33,0.98-5.53
					c0-3.28-0.73-5.77-2.18-7.49c-1.45-1.71-3.41-2.57-5.87-2.57c-1.6,0-3.01,0.38-4.22,1.15c-1.21,0.76-2.15,1.89-2.82,3.38
					c-0.67,1.49-1,3.33-1,5.53c0,3.28,0.73,5.78,2.21,7.51C996.35,945.85,998.3,946.71,1000.72,946.71z"/>
			</g>
		</g>
	</g>
</g>
<g id="Layer_1" class="st1">
	<path class="st3" d="M540.51,1080.85L540.51,1080.85c-298.23,0-540-241.77-540-540v0c0-298.23,241.77-540,540-540h0
		c298.23,0,540,241.77,540,540v0C1080.51,839.08,838.74,1080.85,540.51,1080.85z"/>
	<g class="st4">
		<rect x="16.27" y="503.99" class="st0" width="54.64" height="54.64"/>
		<rect x="16.27" y="564.81" class="st5" width="54.64" height="54.64"/>
		<rect x="16.27" y="627.7" class="st6" width="54.64" height="54.64"/>
		<rect x="16.27" y="689.55" class="st7" width="54.64" height="54.64"/>
		<rect x="16.27" y="753.47" class="st8" width="54.64" height="54.64"/>
	</g>
</g>
</svg>
